<mxfile host="app.diagrams.net" modified="2022-04-15T09:42:13.605Z" agent="5.0 (Macintosh; Intel Mac OS X 10_15_7) AppleWebKit/605.1.15 (KHTML, like Gecko) Version/15.4 Safari/605.1.15" etag="GsS-JskF6p55JU79-2IA" version="17.4.4" type="github">
  <diagram id="B_o5gnNM4AaKvdSvrbHg" name="Page-1">
    <mxGraphModel dx="945" dy="770" grid="1" gridSize="10" guides="1" tooltips="1" connect="1" arrows="1" fold="1" page="1" pageScale="1" pageWidth="827" pageHeight="1169" math="0" shadow="0">
      <root>
        <mxCell id="0" />
        <mxCell id="1" parent="0" />
        <mxCell id="8OXMd4z44nyRTxKYUgdR-21" value="楼层" style="rounded=1;whiteSpace=wrap;html=1;" vertex="1" parent="1">
          <mxGeometry x="414" y="190" width="80" height="40" as="geometry" />
        </mxCell>
        <mxCell id="8OXMd4z44nyRTxKYUgdR-26" value="容器" style="rounded=1;whiteSpace=wrap;html=1;" vertex="1" parent="1">
          <mxGeometry x="534" y="240" width="80" height="40" as="geometry" />
        </mxCell>
        <mxCell id="8OXMd4z44nyRTxKYUgdR-29" value="容器" style="rounded=1;whiteSpace=wrap;html=1;" vertex="1" parent="1">
          <mxGeometry x="534" y="135" width="80" height="40" as="geometry" />
        </mxCell>
        <mxCell id="8OXMd4z44nyRTxKYUgdR-34" value="" style="endArrow=classic;html=1;rounded=0;entryX=0;entryY=0.5;entryDx=0;entryDy=0;" edge="1" parent="1" target="8OXMd4z44nyRTxKYUgdR-29">
          <mxGeometry width="50" height="50" relative="1" as="geometry">
            <mxPoint x="494" y="210" as="sourcePoint" />
            <mxPoint x="534" y="140" as="targetPoint" />
          </mxGeometry>
        </mxCell>
        <mxCell id="8OXMd4z44nyRTxKYUgdR-38" value="" style="endArrow=classic;html=1;rounded=0;entryX=0;entryY=0.5;entryDx=0;entryDy=0;" edge="1" parent="1" target="8OXMd4z44nyRTxKYUgdR-26">
          <mxGeometry width="50" height="50" relative="1" as="geometry">
            <mxPoint x="494" y="210" as="sourcePoint" />
            <mxPoint x="544" y="160" as="targetPoint" />
          </mxGeometry>
        </mxCell>
        <mxCell id="8OXMd4z44nyRTxKYUgdR-44" value="图片" style="rounded=1;whiteSpace=wrap;html=1;" vertex="1" parent="1">
          <mxGeometry x="654" y="52" width="80" height="40" as="geometry" />
        </mxCell>
        <mxCell id="8OXMd4z44nyRTxKYUgdR-45" value="文本" style="rounded=1;whiteSpace=wrap;html=1;" vertex="1" parent="1">
          <mxGeometry x="654" y="102" width="80" height="40" as="geometry" />
        </mxCell>
        <mxCell id="8OXMd4z44nyRTxKYUgdR-46" value="文本" style="rounded=1;whiteSpace=wrap;html=1;" vertex="1" parent="1">
          <mxGeometry x="654" y="152" width="80" height="40" as="geometry" />
        </mxCell>
        <mxCell id="8OXMd4z44nyRTxKYUgdR-47" value="图片" style="rounded=1;whiteSpace=wrap;html=1;" vertex="1" parent="1">
          <mxGeometry x="654" y="200" width="80" height="40" as="geometry" />
        </mxCell>
        <mxCell id="8OXMd4z44nyRTxKYUgdR-48" value="文本" style="rounded=1;whiteSpace=wrap;html=1;" vertex="1" parent="1">
          <mxGeometry x="654" y="250" width="80" height="40" as="geometry" />
        </mxCell>
        <mxCell id="8OXMd4z44nyRTxKYUgdR-49" value="文本" style="rounded=1;whiteSpace=wrap;html=1;" vertex="1" parent="1">
          <mxGeometry x="654" y="300" width="80" height="40" as="geometry" />
        </mxCell>
        <mxCell id="8OXMd4z44nyRTxKYUgdR-50" value="" style="endArrow=classic;html=1;rounded=0;entryX=0;entryY=0.5;entryDx=0;entryDy=0;exitX=1;exitY=0.5;exitDx=0;exitDy=0;" edge="1" parent="1" source="8OXMd4z44nyRTxKYUgdR-29" target="8OXMd4z44nyRTxKYUgdR-44">
          <mxGeometry width="50" height="50" relative="1" as="geometry">
            <mxPoint x="620" y="150" as="sourcePoint" />
            <mxPoint x="664" y="70" as="targetPoint" />
          </mxGeometry>
        </mxCell>
        <mxCell id="8OXMd4z44nyRTxKYUgdR-51" value="" style="endArrow=classic;html=1;rounded=0;entryX=0;entryY=0.5;entryDx=0;entryDy=0;exitX=1;exitY=0.5;exitDx=0;exitDy=0;" edge="1" parent="1" source="8OXMd4z44nyRTxKYUgdR-29" target="8OXMd4z44nyRTxKYUgdR-45">
          <mxGeometry width="50" height="50" relative="1" as="geometry">
            <mxPoint x="614" y="120" as="sourcePoint" />
            <mxPoint x="664" y="60" as="targetPoint" />
          </mxGeometry>
        </mxCell>
        <mxCell id="8OXMd4z44nyRTxKYUgdR-52" value="" style="endArrow=classic;html=1;rounded=0;entryX=0;entryY=0.5;entryDx=0;entryDy=0;exitX=1;exitY=0.5;exitDx=0;exitDy=0;" edge="1" parent="1" source="8OXMd4z44nyRTxKYUgdR-29" target="8OXMd4z44nyRTxKYUgdR-46">
          <mxGeometry width="50" height="50" relative="1" as="geometry">
            <mxPoint x="614" y="120" as="sourcePoint" />
            <mxPoint x="664" y="110" as="targetPoint" />
          </mxGeometry>
        </mxCell>
        <mxCell id="8OXMd4z44nyRTxKYUgdR-53" value="" style="endArrow=classic;html=1;rounded=0;entryX=0;entryY=0.5;entryDx=0;entryDy=0;exitX=1;exitY=0.5;exitDx=0;exitDy=0;" edge="1" parent="1" source="8OXMd4z44nyRTxKYUgdR-26" target="8OXMd4z44nyRTxKYUgdR-47">
          <mxGeometry width="50" height="50" relative="1" as="geometry">
            <mxPoint x="624" y="130" as="sourcePoint" />
            <mxPoint x="664" y="160" as="targetPoint" />
            <Array as="points" />
          </mxGeometry>
        </mxCell>
        <mxCell id="8OXMd4z44nyRTxKYUgdR-54" value="" style="endArrow=classic;html=1;rounded=0;entryX=0;entryY=0.5;entryDx=0;entryDy=0;exitX=1;exitY=0.5;exitDx=0;exitDy=0;" edge="1" parent="1" source="8OXMd4z44nyRTxKYUgdR-26" target="8OXMd4z44nyRTxKYUgdR-48">
          <mxGeometry width="50" height="50" relative="1" as="geometry">
            <mxPoint x="614" y="310" as="sourcePoint" />
            <mxPoint x="664" y="290" as="targetPoint" />
            <Array as="points" />
          </mxGeometry>
        </mxCell>
        <mxCell id="8OXMd4z44nyRTxKYUgdR-55" value="" style="endArrow=classic;html=1;rounded=0;entryX=0;entryY=0.5;entryDx=0;entryDy=0;exitX=1;exitY=0.5;exitDx=0;exitDy=0;" edge="1" parent="1" source="8OXMd4z44nyRTxKYUgdR-26" target="8OXMd4z44nyRTxKYUgdR-49">
          <mxGeometry width="50" height="50" relative="1" as="geometry">
            <mxPoint x="614" y="310" as="sourcePoint" />
            <mxPoint x="664" y="340" as="targetPoint" />
            <Array as="points" />
          </mxGeometry>
        </mxCell>
        <mxCell id="8OXMd4z44nyRTxKYUgdR-56" value="" style="shape=image;imageAspect=0;aspect=fixed;verticalLabelPosition=bottom;verticalAlign=top;image=data:image/png,iVBORw0KGgoAAAANSUhEUgAAAPAAAAIICAYAAABQC2PPAAAAAXNSR0IArs4c6QAAAERlWElmTU0AKgAAAAgAAYdpAAQAAAABAAAAGgAAAAAAA6ABAAMAAAABAAEAAKACAAQAAAABAAAA8KADAAQAAAABAAACCAAAAADgZJBcAABAAElEQVR4Aey9B3zcx3Xve7YAu+i9ESDALomiqEL1LkuWrGLZkR3XOHn2zbtxXmJ/buKX5pSbcl96nE+K49zE8U2c63rtOJIty5ZkWY2yOkWKlNg7CIDoHVhseb/v/PcPLpYLEAAhkpJ2yMW/zcx//jPnd86ZMzNnAr/5xztSlg/5GsjXwJuyBoJvylLnC52vgXwNuBrIAzhPCPkaeBPXQB7Ab+LGyxc9XwN5AOdpIF8Db+IayAP4Tdx4+aLnayAP4DwN5GvgTVwDeQC/iRsvX/R8DeQBnKeBfA28iWsgD+A3cePli56vgXC+CvI1kK+BU9cA0xVTyZTpvwV0HpToCwQ4yx3c9MYFzHGcI6vcL0jffcMAHE+k9KEpfShCPmUJXfuBwgZCAQu6quBuylIpVU6Sigmkj34FpSwe5zxloVBeYfDrMH9c2hoQ2VnA0R60eCJv6DIh1BZFQ1ZZXmjFOsamkjYwPGUjo/E0mAHyCTCTPBIJWlj5nbgLDZ/IN/NsKp60yVjGSzMfnuL8DQEwBb3sokpb01Zsm1/ss5LisF1/RbVgKqjqz/hEwl54pd/2HRy1oIAMLmtronbT1bVWXVlgx3sm7anneq2nP+Yq7JpNlVZTVWBPPttrg6q4uTjfKb43/zhfA9M14AsNbtx6Y72dt6bMvvdIhx3tGHOSFoFSWhK2Ky+psktFz7WiQQQMAfBu3zVsz7zY6+g1E5wNtRGLFgY9RpAGLXSfSCRz0m6kIGjDo1OO3jMZgXvRKf4sOYD5wFuvr7OLLii3InGhbTuHrKc3Zq/qSICLXXVZlb36+pBds6nKqioK7enne+226+osHA7YkwLuFRdX2u031dt3VZl33tJoK5cXu8p44ZUBGxgCwKf4qvzjfA2csgZSjhYRGJ3dE1ZTXWiNdZKwRSEnKtEYm+oj9r67mq2lKWq794/a08/1OPqLiq7XriyzyzZU2IbzyuxbDx7T8xGnOUYjASsUHa9bXWbnryl1NE1Rksrvkae6BfqhGVKZZ+Fw0FqXFVnf4JSk/cIgvOQABlxwsNf2DLmPp4DH+yasu2/SJGzt5mvrrL1j3PYfGrWNAnlsKmWxeMp+/JNuSde4gJpygC0pCrsK2bFn2H30bTfUk1U+5GvgtGogKfoCTEmpxZdLUFx7ebU98Ein0w6RuEhKd6GDNFvrkjb42DOiTYFrzYoSCaYKGxmZshe29rvf1RJGk5NJP4mTsGSxZkWxYwC+xKbQK1qK7fW9w+mXnJBClIUuZ2V5gZPsU8KDKweJThGWHMBwru07h8XRUDc8bhISqum/1tYU2iXiWj94rMsmJhP2nNRoAFsgFaKze9LWryuz266vd5X7Hz/osJGxhL0ujrVaFUcfOB/yNbCYGhAcZEcR/ej/iuUldvH6ctsh9ReNj4BWfAJO3hvo1vX2Tto37j/q1OdPfLjNopGQDUoDRK1GED38RJd9W9I3LrHpbD0ZmSQSXj6Zf6H12QKMBdW7QGUCC/PtJi45gClgSKI2swCUGzBfdmGlKiDu1BFAW11Z6IH3+IR7Tp+4f6BdFVxhd6hP8jVVXiy2QJ1ithrK339b1gCgAXCr2kqsU3TWtrzILr6wQn3OuGwvMrPOjilHwyEhpE+2mGde6HNqMoKHsEGSuL1jwlICbaaU9SvZ2W79i/QxExNZjxwT6R2YsqGRxAzsZMfLvn5DAOy/BHXa1Y+Odepj0F/47qOdNiWOVVQQsqsvq3ZGq/sf7rA7bq53XPF1qd5DwyWSxgUWKQhYbNLjjhnMzc8+f8zXwClrAAtya3ORvQv62j1iY2N000imURIRVfYvO8OgIhztHLdD7WN2922NdqXU7gOHx+1b32+3sXGPCcyQ3+StX8fxSUfb9G8JqOdd6mujoXq07ArhnsEAEHo9XXq+QHn1hgGYSsI0jn4Pp7vogkrrkkqy58Co1ISgJaTSPLa5WwU3m5BV+ljnhN19a4MzgMG9fvJSn+sT82F8/KT6ynNxS1cT+T/5GshRA5PS4ib0G5+I2/h4wiZFb+Pqt4ZDOup8QuejAiNdNuwxJ6DlZQaIA6LTnbuHraUhatteH5RKnnR0nQlegMl7SP/KjgF1JQd15sEVFRnm0Sg1OTswREUZiDNz4Ck75snXgTfEpY7KDAgxRAFOOuioMVNUon7eJ4lRpREJF+SrKyoKrLykQGrElPXLaABn4hkg5iPheLn6Fid/Vv5OvgZO1AD92SJZlxm/RRhgRQYwIi+N13p0FVakAml8ABwpmCs4e436qBiZHM1OU/LM2NhrikX7BaLbzMA4c67AOPDoaOIkxpErbva9NwbA6bc4jgL30rUDa/o8uxDetaS1QAym+c6Z/QVP+s68lzuX/N18DeSqAejPB918znPlwT2ka24YzkxBPEfznJwiQNde2U4RMcfjN0yF5l2oHn44Nfg0M4voJ5L4Sd3NjKwy7udP8zUwvxrIpL/5nM+Wa07yzBHZkTJEO98EOfKYzy2vhz2fmPk4+RrI18A5VwN5AJ9zTZIvUL4G5l8DeQDPv67yMfM1cM7VQB7A51yT5AuUr4H510AewPOvq3zMfA2cczWQB/A51yT5AuVrYP41kAfw/OsqHzNfA+dcDeQBfM41Sb5A+RqYfw3kATz/usrHzNfAOVcDb+hMrHPua/MFytfAOVwDKTfdcObUrYBbLzD7fMw8gM/hBs0X7e1RA0ktdUpqHnHJxJAVJqe0xlhzo4XZpI4jhWWWCBVYWPdzrXbIA/gkGvEWVUzPZdVzf1L6bKtJTsoi4wZpfVctuRZ5Z0R9W56ygAXCpG5yLYx/q1dKMhiyitEeu+2lf7c1rz5ukb4Bs+pi07pGS47F7Pj6S+3HV/2c7V52mYVM7lmzhPEZBbCb283aLpUipTVbaAduJYa4D8/wVeQ0hrPWat7a5SotacRNyqC8NoS1JKysTJ5DtIa5R+uZ5xsALnVdVhKytuaotSyLWGVZyArliWSmkjTfHN968abU3nigONYVs4NHJ+SNRQSqWstcbPDW++oTX4SkLZocsQ89/P/ZquceMnvHNWbLLzX7t6+bXXqB2ZVXWdm//au17Hze/vXj/2T7GjdYKDXTV88ZAzAAhaL7D/VY154+G+ob0/rMKbegv6QsYrXLq61udZ0FiiJyoO1/ZBa78W+/AUdco0A4dfJEeIUclR3vn7Lnnu+zgNaIlrYWWbxQTGZgUozn1C8HvEVaZ7rhvGLbdHGp1csXGBLGMacz90mnLuhZjEE1QBP8qJeBoYRtfW3EXn51eMFuZfzPcHmmLyA3fm9E4D3+73TeEZdqfNGhzR54LxFgP/lp+VeutdSTT1rg53/B7LqbzJ55xiKv7rbrX/mm7b9j/Umfc9oAdpJGXzOX+oOPgqQWUx/cts8OPN1u5ZJmpYWjVhqaMlwM9XWE7ciObmtY3md33dYg73whNSpVI9+6rob441eVf8y4NfNUVycCfQkHzvTRe8KF1wh+TIwFJZK0TWvL7HhjoY0UxO3iprh1HZ6wjtemLBYIW3ie4K0oD9t1l5fbpReWOgaFG5W8IwK/pnMfy0tDdtNVFfLkWCgvkAPytaw+3wICjAB3rjiqc+vJF5B2MVFFPm7h/5Q8xeC2xzHnBWaEnGrsO+BSpfbstsDn/sLsM78up9MTZn/0x2b/s0Vk7w0U1Xfts2h80mIhPHrwdi+cFoBxl1NeVmAVZWH5DZqYhpifOUcUyfoKqY82YiNHH7Tbr+q1Cjtk4cJJKyhShRdJbS0sssHJOtvXvtrW7Vxnt9VHDe4UKFRhgzqqn8CHBNIfcwLMyh33CdQeLehp517NunfzRyqZ1HZn4cNPaMbHu+zcImRu61m31Oaeoza5v8mah0bsoh0HbUISuL2o1F4qbrDdhTinz2AgSpYZYGaozFdfis/gUvdoLuAi8cPhsJifXAwpIj/yeDsGaIkvP29lkbMZPPp0v+HkTXrPKasjLPLAywaum85kkBxyXiRxjYzbnsU03Wi03CuyPHI4Li96CIyPi65FaeGC6c+ZKK6wKXCQFRYNYCocp+wfva/Fjqtv+M0H2t3WFJn50yTLFOf6C0rtuYe22JEjnbavq9TKy2+xptZmqygptWBsyia6+21y8JAk8yEbrE3ayDUfsdJj/Rbb3mtB7ergHErLeZag7gEVsOoDeRa+TP6iJTkTzx6zZPe4BWsiFrxC9+hXUxhRRWJXr3S0SQteUCWmkK4E3KscHbZE16gHfFmaAsmElQ5P2hXH9imR1OWpmBUGE7a6YMway+Qqt2q5PRttshNOgTK/1nPQvbqtyC46X25w9Q+PJLMFQDsyMmJ79+61np4ea2hosDVr1lhJSYn8LdEXnDv4/UQA75/7KebDBDLTZJ6Tdr55ki4zrf9+jn4+/j0/3lxlo7bioqu1K6N27Hix/C4PO9c3c4F4LvC62s/RBJAPwX/Odea5/ywdzT3zz13C9B/ScD8qJs9GQc4fVo73ZabJPC8Qvb3Weq1d27LKSo/u18er3Qf6JEskTPiw/j4zdTMJWy94p02FI7JGK07GOxYFYMBbKf9VgBc3m9+TY2wn/TJKR6WsFZguUWN85YuP2YMPPmeb1t1sTSuC9vFf/IjVyrN9XCApiBRYUWmRdXcM2bf+1xP2ua88Zk8mDtivfuxaa4vvtfhrsspFxZVChXpHyJPCMiwFm0sseG2jBSrVZxY4w+9bb8nNHZaSI+7QcvUj5MDM+egpln/qdnki1LvC65st8ZMulVLgX1mp/m2xJQ+J8cDokMCq0GB8ygowsCUEwARMQ5IxLPU6NWmXh7ptKFRs2woqsz/XEWyFHHOvW10kX2BB5wcsozpmnELE27Zts/vvv18+wyasqqrK+vv7xdjK7d5777X169c7aTwjUcZFUg1MOkARjUblT2nUgT4kJheJRNzPB6EPmGwADQ0NuTKTfmxsTHSCPSJkxcXFVlioLoSYC9ek5whjIQ/e7edJOn7cy8yf+KWlpS4f//7AwIDTNoqKipzGkfE5M071OtftuGBNsbw/Tlp75+yGQ2isUFuY5Oq+8Qw7RAgxmQ6ADb9YuCpOqr3x8wz0cGyHzywCvrJIyx5I+MfCmFkmo+ak0k3pl0vIg6dCgTie1A+neBkAc5nO8icoemuvXmUP3PVbdtcjn7PKLTvUD/6vFvA/+b98XNRXaD+599P27Pl3qwt3ch9uwQB24BWh/sx9y93HfuU/jqgCcGxN9ZwIbGxWWaxKkTl8z+5jdv1VG+zj991oEfVxIqVBe+3Fnfblf/iaBeIhu+Vd19uHfu1O++Rn32lXXLPS/vovfmxffWS3/eanrrXg3zyvrR20iRSqdIriKs+U1OlgxAIjqinXMdW9dknYcFSb2QiNQQGef+pXmSzJVlliqSFdF0cstLZGbFNSSz6pU8MCciDq4qqX7sAaUF8XdR2OFFTnOZnkXAwgFrZyVeyG+JgdKChTh4DGPxH4/tqqsDVpe46kGnIGmzwRzRHvzp077bHHHrNNmzbZu971LgdCAPXwww/bD3/4QxFTka1cuXJWECO9x6VmDQ/jnDxsgANAA5y6ujpramqSU3Lt2XP8uHuzDzzi8gww+s9qampcXgCWX2Njo8uzvb3deEa+sVjMpYE5wGwAPXkCetIA4MHBQXcEuJSfODCCyUkxTr2X7yM9z0jrM4GMqpk+FV1L2wlbQx37ZMXkRE7MdUZte7WL07jsDcSmM1F8wB1hjyJu6k+h075SbiuVVCLortkNoacv5tweD4/EHUjdZmYCNI4UsV/QRYTuxwToYam6zle5l+v062hxRiri8ZNBln591hd438D47pbVN9qh+vNsxfHXrSg2ItLzmE5S9NdRvdIO1Z4nahRjycEZFgRg0nuSd7nT+b/yncM5wesKrLivHhyx7oNx+9RNV9h4gWSZ+rs9R/otqj7xynUr7L///W9osDph5Yx76eMjRVFbtbLF7r50rbWVRi32fLsVjApskr6BID8V1+8PTwjE1UVm8tGbOjpugVXaPyku4AqvgeMaDJcLT1sp4O7XswjSW9ejAul2qcwAeI2qXH2MQEgEJZwLqhLCqny9I8l7HJDVP03G9Dm6L1CrhFarSl0mQO8UgJUsHVIi0qBr6GJJX6835z87cYRwkVj79+934LjtttscoAEJhH3DDTc4gt+6dau1tbXNSugQf0VFhYa3yhzAAAmgBigAhwC4ABuAJj796+7ubnefMgA8joBs+fLlDvDkCWgBL8yBcvEcgCLlYRAFBQXuHX4ZqqurXTwYCulbWlpcWUjDr7Oz05WTMpEfQOZbyZf6yBUAHDsUVFeoiyTJpl6W4s6MySXeSk9CRTqaYxBKxH5DsRi2BfrJIasS43ZgVr5FUbWV7i/XvkST0iSjuh6bkHYnBpyUJEUyF2j0ISYGUqj2dXmKTqCfLPy6S0ZIwR5mmcznfE9Qaeh6kZSAuCgQ08djazgRt4GSOntxdZNoEXsIu3oqkuIybBTKUptdBuk/CwIwhbj7HY1uvPbL3zrsdP7ZDAeCiE2qArungvbuhnqrDyVtT1Ox7Rsctn3bDtqqS1utfmWVFVeLmwdT1nd0yLr3DVitPuqjY8NW0D5oKanPgahUNxobo5ZAlVLl8pGWFHyQwAUC2aoy6UuSiLIcO4GJgqv3pnaMycxXIo/aEp2T4vq9kuQXqR8sbmqoOu2jLk+vLmAUylMMIihEp3RM6Z0pZsZQ9U6wF1pUkr9C3+Xawf1RPeuo9hVBeA66uc4VIFiAAHAAFmDz+7sADMkI6JCOELsPxuy8SNPR0eHyQuUFwEhJ8gBISMFsQJMG8FEGgM77SUeagwcPWl9fn5OQpCN9a2vrNMgoL8RLHoDYDz5DIj2AJ/89e/ZoJKTWfYcPUI6AGU0BxsFzgE85ZgsAFIAhYWcNczyiCUpFE9UaEaBfTZuwvQ9A9QMSNyTf0AiHfhnMAA4Ni89nSAhFbEy+onE5m5QAGkH6im68xvdzOXHUZ7r6hToUywWAWioXsx96T4v1aoeH7/+o0/mkPk/C5Q5t3PcT7W748nbRutrhzptq7PzVpfaN77Vbt7qCfv2deMPJZ7PX4MlxXaEmp8SV1FCoJmzqNBsHJHlKNZCSdVA9SwtJTanXDm52Zat1HuiyPVv22cGdUlMkaQvEGYsriq2ludrKfrjTAhrYTxaXSnJKwqrjjvqsmpbEjQqskqp9cRmrxEk7ZGiS6pzSdi2BGsXRRImgts5I7RFwB8V1e8W6Gb9t0DhsbdQSP5RRQPQXKJWk1r1AtVTqFsWXmmZqzBRAFzek5QJiECm9N5XiWt9JX0v99WCByoPI9lsoXU9cikYdoaRv5TwAAEACeDyO7kWjsQATIOE5v9kC0qu+vt6BDuCQD2AnPfn7Dc99/x3+kWeZqi/9boAEsMgXNZdrmAj3uCbwzM+Da/IB9EePHnWSl+fkBVC7urAzSFurrHRH0lGu5uZmB16+jXgE8uF59pFnrj45WUQA20g3drPETqNXuOAO+lOi7h00TN+XLX7Yv2tc8SbUHZyU8XJYG+3BQIplhC2XCg2I6Sb1io6RyNntP515+j3e2/R9ukY7q5LNCDUcpkBhimSAZWfEUtGiL5Yr9Z6aKrWBJvuQzRz8yc/eFgRgsnxIG5N9UNzk4x9otX/75hHr0369c3JJXuVKHbKyHZJ4Mi6VXl5n8QtaTDYBaarqq0gCR+XMPfqgxsKePmKBkjJJ3WJpswKLpKDr06LuapvRwMYKC7CLoSZXBGS+N1kqA5rFE7i5ykzqsp0niV0vIB7RWBpicaPyqtRnangndJUI6vVRWZclUa+ocAwACzf5MiCd+EG3a5hACpSLU0trCKR4v4Ag1TgQ1QwtNeQ4XPiEIHLEJ9zZ6FhSAGSzNohyuo6nTyBaiBw1dceOHU69ROX0DUgQPirn6tWrpwE5nTjrBKIH7ATAjCQGzIDGBx2g4Efwj5QB6UufFSlOfK4BP0yA8mEV5xogky9SnTwzmYoPQFR9JDZqN/eQrqTxGQlp/HNXkHRZKA/xke68x5fuvBdmEBTzHMWIRF3nCNzF7jgnpevTE3oHEpX2YFSgQtvb0lftH4w5QDaKxg5r2xSGoQakbmO4ItMqCQj6use1HcrEhCewuvslFfVvNqWAMvEO3uUHvpM9rf/x3w84hhLTbiUAeseuQTui97JHE3HoGT6gbYce1hakaAaZLpn9vHIdFwhgqRT6wK9r07EPC8Qf++nl9m//54jbrXwuEDOHmLHcoFTg8q2SwkdHraN5yoqS/TKLq8IaV1no1SMW37VLjV1rhRpz9UBLv5d+qr5OwHGNJS5lk+Jk4pQmlQZp6ipMM3lSHTELaPIE3ZTUuBTffhH4Y/2a3SXuebHUbBnQkgfUJ8a41impqx0UTfml9qlfLEkekHqe0p5NnqThfWoJgdcULSA1KFActCH1fzvFSbMFJNy+fzCufZ0SVidtIJHZihk1D7Fu2LDBDh06ZF/60pfsjjvucIYjCBj1E6nnS66MZDNOIXKs1gAN0MEA6FuidgMYCIJznvvSkDTEg2EQl/cBXOLSN+a9aFYE7vOcZ4AMAHJEawCs3Ceg7hOoL55z5EdXgPfxbn6ozqTl2zmnzAAdoGJsA/B0LUhHOWpqqgWEkHWry4O0S7/OvSvzDxtmJwUGpGd2UElcV69OG8ejGntt6vWDkaLVackKaAcEMAxW9dr2BPpmZxD1zJw0bm7CIBd25MduC/2KO4phNKt9KQFTQ+mdZQeeOaAC/3RRmajUL+3AByq3vfHkE/ey88l1vaidGagMzOwffm+LU0H+/dsCcUZhMl9ULPB+PBqxFoEtMRSzkXIZsjZJEmqzsyKtvgiPDdpYWZPFHtxs1T1DVpxcJkISYaCmams4B17OxQBCGuQP3Frr1F0NGquGBf5u9VF3jlngRqXh+qhUU6k+9HNTzwxaoE1GHanLKUnr5EvaZJxhAhlHgquknmt+Mr9Uu6T1nnFLonqj4jhOoZagVvVq1PCgtoYZtynbPDZuj+l7vIc6pAN1gqp1w5UVtukiCNh/cvIRkAGizZs3a6bcM4546XNed911TiryjOEkjFQ+4WXmArgABMDinPgAhrhISoxJnHPPl8Zc008GRH5cwMh9gE4+9EsBFwEgEQArcZDupAW0vDcz8Jwy8Bww+mnIA6bBcz9wTnre7ffJ/Wf+kez3HRy3Hz45oH2lxZRdQ/hPZx6RnAzhpHEx4yFgYRfMzBESwMzWKG7YR20EEyAtJSQec9UZLkLoUFaktQuQgyIyrASzdgm8J/5jGcCSyg9mkfHgDT5dFIApEx9XIj3+g/c2O671VUnlXJzQAbis1FpUWeOyqA3dXGGFrSU2Lu4aKZXRJzmm+dGyVj61xzbesM4iD6n/RAWlQRtwok6VSO1J2gY1RdHS0jelY0DTLq1PM3a0YMAkaa1bklXqspPCGkMMrJcRS41Cf5maTUlCGjN8GgVC4gnMKThqj9RyzcV1JkRa1P30R8QR1C8xOWrbh0fswahmjRWqHLkaSdFXqQ9+x02VVlsNUGZvPUDMDzD5wAIAnPNDOnGdSfyZuflSkHvkkxmQhn7w0xPfB1bmM/8+94ibGd+Px9F/X2beuZ776f00frrMuJnvybzvp8FqDHhf28P4NhVNY+QOfHpUw0NIzFzBNVNGW0FGhNly9e9nHjPB6qf3cvH+Epfx44VszJ2Z/nTOZ/nsU2dJw4xqqOYr3znqNi7zVYGZKfVpUxri2PeKWbnUNSzOxeXW/eoB2/W9x4QVSYvSPus+FrS6QIWVyIpsE+rH0iGg34xJmRrjnOOAfo/qx/CBwKG/ApjiEvbrB7fkmdQTrMwBjnt1X8YKgEgK7FGA23qJp6Pi+ETmGof0ij5NM5MxG+sbty0CxZNiRLOCl6wk9Y8cm7DnXxm2m6+p0AZXAFQPcgSA4IMBsBIAM6BFMs1F5MTNBArpThVmy2+u+5l5Zr4v875/nuv5bHn7abKP0JBYiL30qmaoqavDPGO/bbLj+tfwKoxUSc0NYOiJ5ssM7jLrHs9z3HLJ/Pszjv5FVsaQDxJ3Qv3aMy15/aIsGsBkQOViiZ6QOpcTwHo+oTHVx9UfW3/g+xoHLrGh7g577Gip7T4sw4tM8yGNw07EInZdpNtq+n9ocfV5vepVrTnjV/ro0AWy0uDm2j3XPQdwnqV/usYCPn3fxfPzSacnbmYeNKlL4x1RyqZ03Stw7dO45TGNUbPAOqfk1ZsJ1AczfbbtHBU4zW64olz9WU8S5yJwL9VMMC6U6P083sxHmoExXSYEPSfm96J+GLBOBV7/m+l3OgmoQQfyQSory1lB6qdb7NHxfSWGb6JOn0mVObvMi1ahszOa9Vo1GReIEwJDQFQd1DANlRxSLVMRXjXLoqqzuLho7uDFzP3MvzvPOIpG484eTs4npBYKnXx71iwAIcTXKKPZpg2ltnZFVH0+ho9OSPtZE7+dHqieAN/YeNIOy3bx0qvD2kh7woFivuDNrq4FNFN20gVfz01HC85uUQlOSwLP642qUWaaTL+Ir1arJbE+ZwQUYU1cy7jz5j31ie+Y+uAdGltmKl6dLN7lMrxFnCr/5v22pSw5/VumJnbLhoEFHzXUSU9E8iLD4lMu8oVnOdk0rs5yOd6Sr/etn4Mat+4TgTo1+kyKiHO9VoU2mB2gpQvm19e5XuxzqXx5AJ+B1oBIWR12KuX9DBQl/4q3WA3M1ul8i31m/nPyNfDWrIE8gN+a7Zr/qrdJDeQB/DZp6PxnvjVrIA/gt2a75r/qbVIDeQC/TRo6/5lvzRrIA/it2a75r3qb1EAewG+Ths5/5luzBvIAfmu2a/6r3iY1MO+JHLgDYd4qewURmPbGjDd/9gyzjLg3V2BCg3NENlekBT7z5h2TyFu/6c4oWEZQ0VxZuZV5nhHlLX+a+d2Z55kfnnnfzRpjptQpZo5npl/IOauO+O9PO81890LyeSPjOmrOoJ2lehf5zqRQL2f/Pl493Mqsebz7lAAGuLj1bGsptuXyTvD0C72u0i+5sMKt1dz6+qBbxoV7zpXLtfbWNbqmO2s1Dl4pfMBTYLwd7D+MH2GKenoBAiCfInxGKyuWNhbLvxHuSobkNQEHZlAIDKZIy/q0Xl2/pIuD21Dnz+v0ipAztc/UfMKkDICB+vCJ1J/vS/m55xwD6iO4Jt5SBr4VpsnCd88fstbPyuEBq6bi+gX1DNc0tFNY66adB0cVAA8VeMNgSd9sjgsXU06+HSLBQyRlcy6ItAyQgEcKnzZ81zRqPldGf7UbdUmd8VuqAC0lNC+bLCEbTyhpcb/KRZ1MyFFE5vv8MhKfktPmrjj6Q7tnyQ9XTJ7jFFJiz+WLsNPnpxOyikrP9QwHfDXyFoKDDK0sdUtip4hI3BxhTgBTWbjcbNGvsS5qgBZH2XzALdfW2jFtp4IXCjz64YZk/To5a6ci9EHVcuLVKBclr++VDyr9oyHwDXTgCNfeh+coz7xuUUFFkbC1afF8S0ORlWmh/659I47JQKzbd8nDpXaLgAAhlNWtxc6zQ09vzDaeX277xETaR8Yd4zkBtHm9eo5Inq+jdatK7cLzysWsmPvsAYPG2i2Hfjv3DhsuWihDRIvQnRM1rWXFITyhq3vSXtkx6OpwjhfN6xFtBwhXiPGuaitx76D+KQtO3PC7dODwqB3pGBd4g9pBsciaGqPOGyL00qTtbbrkD+rg0THnKyqXb+Z5FSQrEh4y2pYVW618TkEr+KYqlmMIvGAcPCJ3t3KuUCtvLRvXVzhHcHhyZMlemeIUaF03a36ff6Xf0V4mqLJeM+9L6okdRs5fU6b6Ctreg6NaETXqGFx9bZGtkPOJl7f2u8X6DpzKeYPar7kh6oQFbYrrWhigyFJeORJOUGUWAJ5cLAZ67eXV9uRzvR5OxKy27xxyK1jl5MO11eUXV9vmF3q0r1aNPfR4l11zabVteW3QJtVuvqabmS/noetv/aXfz77pX/PiFhHc6tZSceuUHVVjX6KKbW6KyinXsJNiFQIqz3aKQPfsG3YuduBmEA8e//bJNzQrTnYKYM9tkX8qOJT/gkUeATAeBWu08wMSAqCuX1duXT0TqkzPWdmIJDL+kAAvhIIEqq6K2Ao5sEMTKBVBIK3x/bsUAWLCkTjgwM8ShB+T7y4AybpRGAsArZRTtXIBdsg5LuO+fBHLdalbzyonavhrci5bTrNQ1LPj91SWAtK3T4wWgPjnXXJdOqp3A5hqeUPEISeAZ3O2/oGYKzNeJmDOlOl0W85nKq16x+q2UtWFHNeJNsrljL+1uVhb0pQ7DYl9tnBtg4O51/cMO2bTJyADljK5NupT2XDxuhQBjadlWdT5OxcZOb9YrS0lWgKqZaArSyUUivT98kEmicj2tzWiIZ5te11ujJS4Vp5Na1V30BVYob6I66SUCoiw8gRenfVpx8v2TjnkV9mvvqxaTusnna+sGu0uAgOBdvDLtUpMo1D0igO+UvlvgzYQCLmEzZwSGBc5r4pLDOsDLt1QIYIXMeh/QqCBayNi9giYr0iNjsgzBhud3XxNrbwpjFiPKnzIueYMaV1s1EnwvQLzUgTUq1F90LAqCmKICjhwQLbSoLKGdJ8GB1RrJH0AO+oZFQ1jQauokkvP58VQIIalCAC0QoQIN3dbcChTdtw7TxKZZ5SLd8NMUElxRwRwcSkK5wdmAJ8GX4oAWAq0ggLCgkCGBUKWNRJQnyGUiOprq3xvI0FY6oiWlVJ5AAeESJ2hyuFJ8XTBy3vhJTAPtAC+mbrgXolcG722e8gRcMfxSQE36eqKDcMm9e7W5ohjtEExPdJA0NRnLoLmPQsN0AmMDSYVEXDaJajocjU1RORitkj+nOVnTeBGswQDCAxPcwg5De8FSWi6I9QSbe13OWhLlo9ef2Wtk8wvbx9QudXOorln1BW95do62/xin2t3NEa6F2vlFxrB1yotBSGABkI9zPatcwKYigDEK1FVxV2ekRPqQ8qUWlc5ba0cqiP5ADmBigC0jzx1XJwUMNfYN77bYZdvrFIecnbmYp3+n6CcA9RJBauXhMWPL4GP9L0ylAlIyxqL3BYar+wYcCok4KBvPCLQUEYk8x4xlLDXKTutQvlgWSYVdFVbsSPS6qoCBwLKUqNzQIG6isTjnK5HTD62IchC50JHfXQRJb+lCAADIkdrgjBLRBTjInzAw95NPX3sOzThVPkmqYN1kiz4LgaoqGsVYsaAuFn1SN1Sd7MR0XzLy6chVdCA0EwGxRwKxfhxfI6XSPq5aEQwmjUrSsSA0Gi0d5bKjlfHOmlcCINulZ3y8C1Oosy3ALPEc4xeUhWmgqa4TPWxc492FemRGzYxWgSY1w1kpwdt9SLGdtO1tU6rO6Du2LL6ounuGN0UfuTJn3J9LxKX+r/71sa0VuM50jt8bMyqpIUAaLqpCKHvPtyprmql7do/7Lo1dLmI58CTgzROCWAKjmpRJqfpF6qPi7c+F5RZlSTakXb5sMoMekzFY1BCIqMK+RwpM9rpncuwJo43zPYpCpMxOeiOxFzFQXQ0LFIGcVYqlQtuNjEhd6VSFUfHx9yRzaqWKkDYEB59SiqavnahPFkicWngFnU5kCQdAsw6cViciuOCFMMgfVGIkz4mjckPbny6YKEgSNDDYrgAcqUYFoyGH3mjIR2ROkfbcK+x1gPWFu0SgEFw00WVTmVE5cON6umXx6PBSTmsQyNqk8rcXzplHccn7JmXekVb5c6oBZOpFcNDUtP9wv0qjAbJBoFzbJbdw6mfqjsY1ekG8gC40E1AGgh2no2y93SpbDxzv/RLAC8SuaKMXSTlkEDgpj+Pao9SeuQYQszTpKgzdljgByO4alO1jQ7EpW0Ma+P3SidI6AfXpLtdHepi4dQd+qBbultlQq1Gk4ppj7Fc4ZQAJhG9qT55TdgirkkFEtTmjhixrGUGNpziDkYsCAFVl61TlhrEWO0wJFAe+m+ABIbRL0kLOOm3rRIXX68Nu/u0eyFckT4fhgTK8ujTx/VdS9D66Y+nkZEUtZJkWC0hQPwIn7+6zDUI5eEaDSAkNWy5JMnhY0jkuNNukHJ0MTxjUWaNLv4cYLIXEEQA8ReKiAhIQvpyqMcQ4QWqI4AzIW+YWKUBPH10XAcjCfcqzVIwFQgaRgdT7ZCBzGf0+8X4YGhOjRUjOyBjFuVm1ID+cYNz4+vRHHGo6yVSVFx9QMvlMoTiEo322Sl1vk0ao1POeFk6UJ/UJd0SQNigjeyQ1myP4gSG4mFX8TFCMr6ZdBgs6c++JHUbBoDm6Lpaqu+INKJaaRc16k9jg2hVv5vydArQ+FtHs6QLlMuQNacRiwLw8uXLSgzrKhVerxfVybskhg/6UVQohgYkM8MCvIz+wi031NkRbTqGWjkpY86RzjFxIs/ARL6nG/CjdKxLnFnvZcO1ba8NqeKCsiCOOeseUg0VEi+RcHwkM/0P1EUqmMrolqSk8ZYi0M6UBe4JQ4HwuEdfG/VIu5Y6I1unCLdXxgy4HNtooOrTuC9tHXDSeq7+zkLLCZHTr22QdMW/8jGp0xhSACf2ANoJCXhEjAQgo9azUx9lQ/XfLVsG1n3K5MnPhZbg5Pi8p0j9TOgJWtoj42exhgIb6uShVAwYpoJWgiFntewX1CFaDBZx2ov6RdXuEQiQhqerGfighFFVpt/fIbpCsyzRtqK0EaMtSGdIhTKi4r8mg9qE6BoCwpDbon2/sOJDWxjfiEvgiOX9nTc2aB/tmGPSbFR/iWxKdEdhaENSsQ8LK4yY0AYP/qjLaWKdsge8uK3fCaXZBOA8JDCdcs/rX6caG8nnCqc/SBx/fA7vrq0i1EY1xI1X1bihnK0ygd98TZ2zWrd3TMjolNDGzdoZgVZZdJA0VyXRuKhdg9oX6clntZWmpCv94o0XVNgabRzFcACWclR5wIrhCm727Mv9jkA2nFfmpMtrYj6zVc7CihhwxPfsy32OcaA+Y61kiIv+FKop6iNawzrZDhibRtXad0iGPdUHQxONMprA2SHMpQjUMoQHQMpatMetGAWB+kNVO9bljbvC9VerrEfU1wIoWFZ9SzgMDsa3FAHjY4P2qGoQUzmgXSUZKWAIDVDQJ4aAl0kzGRGAMd4gHCBw+vFIbbQphia37Rx0Gs5pkVH6g2D6aBePym6D8czzaBywm2SMxe5DFwRrMwG6HVAfOBQqtXdez66POKAfdTsXYvyCztB0MAQ6ixdp9Lvp6lpnLN0hdfmW6+qddoor3F6NCrAbKdrjlZdUO5sA9qNBaZHHNaJCN+bdtzdpGGvAGbRySeBTeqXEd/HG9ZVu+OiY+kOZfWAkH5z9x5uPq78XtlsldYV1e0nWNoYCOPcaLeIKeDAtHU8XMDQcQzYcMQip3lzleYP/cHgPtKiFPEOtobZRT2kL324FIc/DpbK+YuGBd7BHEgzOWU31flR2GCCNDEBQoSACAmXhR/n8e96T0/vr8lVZfA2E3Kg3f/8mJCLloe68PqBXRogFDWap6wcrLp88JalO/pTPZ+hIQ675fp5xJC51yaiHs1yLuU2IEXpBH7IkwXuXnyfvgwFTTzCQNH7dY8qDsGLsGtqCxtyYf5rJUW/ZQGMXCGiAb0ODoNTDUtX5Ps4Z2+Zl49o3DG+tvJdncb24WLQM3UyygwQvzwqnBLAfnwqF6HghwZnUswqLCu0aJeu+1xjerCi/sbxcFv/XfbxfmKxs+M7MR3PFzUp6Ri7PdHkW877sOjwjFTOPlyzmW+aR7UlRHFb0BzBlB57BbAg8P5UthZh+Ni6V/mTnmxnHZZz+c6rvnYcK7eUEVynUb66AZM0lXT2ONHfaufLN9Sy7AjLjZL9prriZ6c7U+Zkuz2Lel12HZ6puTvWexXzLqfLM9dx9/yyVwO2FCKLMbGbLNzNOZnlO9b1SFvIhXwP5Gniz1kAewG/WlsuXO18DqoE8gPNkkK+BN3ENhP3hgpzf4HrcOZ4I9gG2/3Q2wrT2Pq3E64Set36un+/fdxc58lrMrey8/Hf4efnlzrzv3/Pj8Ew/2QydQc5Fze5w8B7vfzrVjAs/p0UdvaKdKNSMuiLHE4+8/L0EJ99f1Ntpv0UmzCdb8hpwTZ3d3plvmaOtwmvatNF1ViAv5htjTs8VUglNcO/p0oyiAktq9g75J7RDIZZpzgOa+hUuKbJgpFA7+ula1BkoiGiMTfvdYpMX9aS0NxID2vpvKUzk7mXcxx6vEniFcK8nHje4FdBGaRbSptxcuD8uip75E769YQlv0IYojMt4cWb+1c3Jce0XPKBy671TmqqmXRTduInKQrpASbHGqzQhQ9/h2fAF97D2FWZgnG8iQ1ne3XgC5dOpK6tOPCtl+sWgRT9n+EiXmY3cprR9KnmENbbkbZpNfJeJjqTxG0D3+A4ClbwEIZnQEJqGZCgOb3V/OHHZ88d/j3uaca3TOQMZ6pdOzqe/qYLKS5HTzTRr0ef6LL/GshNnpvHjUD+Q1Fz1BCSS0GN2hroOjIwM+3lNP4b42Nm9oMDbt3b6gTtR9Fi3Te7ZYsGiYktOalaRQkr7+oaKVBJt4u2tyxBdlwjAKa2L1dKOQKDQJo4OaDW5QDwy5gG4OGqJfk3P1E70sYEBKywtsZDym9Tg41hXtyXHx614WaMy0j67Y5pzLZAVVlVYsK7VKq64RYxC7yNMaJXHgacsPqaZXjXNYhSlKoPWLY9pvWVyWDsiajf7tos1vWi5F5+/KpcNH7PU0d3as1jzhNlJflTlmmKD8CI1oMbpHH70vfquFPFVrtSExkZ7Ry2o9bwJxQ9ojBlgJmOa7C/GlRzXqhLll4xNWlLfOdXT7wBeWF9jKcVJTOi5dqNORktsonaFBVatt/LKSk04ESMdOGB2eIsYhBhHRYNaTeuEGYhNiLGM9arudL/tEi1xqTrxHYs4gxeMqlijg4y3uuJZWE0d0utgXPEpjeEHNL4OoxLZiL3pPnE5nmCU7qaoiu+HAFnXGghExIzY31jjmKpKlii6kIv6Mh4p+skEOkeadNI5DzOSz7iYI5n7BtVDRvyM05kJZ30wM9pJV/pYvtcFnWjrbIuW6mqW/KZEk5MSkLks32EaJTsA4Fz3p+NpQkRcxGnt3Tby+GYrqKqyyp/9gE1s2WZDP95spVddbJErLrbBb37X4sd7rPSuGy3Q3ChaFAEMazXHsGavaLPsyZ4hK5BEjfVrDrAGupMi1LCmwoQEgMLSKguIyFPaLzgp4HKkpHFNAAgN9VlqqMcCpdVQnBiKnASIIqd6NKtpSpMkxkRQIa1vVZyoJpuEUgJwy+R08d2JkqW0GmiqT0vBXt5usV37LHLJBotcfZlNvrDFkmIokXdcZ/F9B23s4SfEGCqs8MqLNDeyRuUUYQ5PuPQhoTwB6EXsKd1j4kswpUnwcqcQLCmzUHrOQSolwMMURNxsRh1SJhXhmIWj3uwdNkK3SXkrQSOYGpb3A2k0FrGAQJ+K6TomRldTa4FWUdhphph44cQo3jBUbCk0xVWaYFAuIKtXlBTlToz028TQHhvoa9eOkUlNKSzVpBMtuhge0+ytPs2UGtPkGO20KM2kt29Q90ft8kvXWduaTRYtX2sFEc9BAQAe6pH3E5EKTCM7+PTqg+UkSjzpRnYOOWjez1RRZySfcTF7PknVCfWQaR2aNWmOB+71GWXIfhPk6gfO+UnOWKQURpk7gEV+uaT0vMeBM7NGusWHhixcXm5VH32/DX3tOzb2xE9s9LmXrPK+d9vw/Q8JPAJV74CV3nKdAPC0lX3kPRb5j++Z7T1sJfX1AoFWpYiCWK4YkCoeRNKo9twHSvqXFkrl1hG08GEBapY4UjeTUUmr7z9lCUlo1jWmJNUTG9s0WV+Sd7BDAApZStKwQIAJScwEo5r3OyLJUZn5FaoUAS8pyV6wdqUFy7Ri6aVtVrButcAvDxFHOqxwXIu4uyWqVKjodVdYsKGWibmW/NpDZmI6ocoKgUtdCM2HCwjAAS0LFKV7okhagyu/iNzdRzxBUqjqUDNxi7aJIz0gcCoNwq6+1IKrJXnRLFISj2JCjgqR/klJ4WIxrDHFjWZ+x8LPnVBPMxY4f3FZmmiVFTPHikoa3IygaFG9lB+6OaJo3a+SMtS6RkVWBhBTUG0BsGOTMQfmorJlKjKixAtI9dJKqeqa7SWhngNts9xLpz/VwRH8bFR/qsQZz6ez0AnMBIxN38uIN9spdTHfQFxH40rgnyMQFvzS9AsXBWCkW9nFF6h/qF3rB7UMa3TUwquXW3j3Pht58hmL9/Zq/u0Gm5yI2cQrOyw1MCKVk/m1UgWe2mYjP/t+C4ujhKU6B4YGrbCh0cLPbrbQ63st2NxgsdvvsKSIpnjDBkv295sYuRW++LwVvPS8pRrqberOuy1RW2tBSclQZ7sFdm61+KZWqX6SWhEtSg9LgldXS/MclXQcVoUltcF2RfqT/YP6s2XlVnDphZbs6HbgDRZLhW+sd4witP+gyqxVPM3LLLhjl40/9IRFbrzSCkpKpEL3WvKQNICrmy1QKM6o73DMRVknnn3WUu3HLbh+nQUuXWOBxiazFSsFeDEC/VKbn7LU3n16rvq75EqxXoGVZwf3S1z1W7JwmcCqVo5IXS6plhai5xP6hqFuMToxA5jXUgRRqbApNzWafJNFBdgZIiVNNmqVNimNArtEb0+fk7olsgsA8v7+AUlwr2tUWFhiRZW1Au/JZYMXiT87BcMv9jS9T5/4T3IfiQaoCJxD+D7x+/fdw3n8mfHKGRdeYj/vubIizukEv+ynk4efNqvp/NtzHSUxC0qkaqkfd7zL+r/4DSs6b7VFVq2w0Id/ymJ7D1i8s9MKLlpvFeevE4C3CeDjFiyXP62Lzpf0+JGV0fDob6x7FTsKDkvaSA2Tgu36vaHu45Ju1Rbfv9dSY6MWUr8x0NUFtTnpFhwckERWX5s8RrQGt1gSVpPJY0NjFiqpVJ9a5RMwEtJNCsol1YJRC5TXzPwopEpYfd1xsQf1Y6M3X2vjP3rapnaqT4x01DvFcSy8ZpWV1lXbhLoKyfYuC1x3uQXXrbD4TknigX59V7ml1D+BwjDMYZBLaulRYERq77B+KkcK4xh9mN4eAVH6kgxjqdERCxw8oA6QdFdYMmp4ZZG0C2kPY9IWigUGbAoEpLOYRLCyTgA+IeHcs9P4MxexCrNSj3s1wX/CilSWSenBw0MxLSKQDUIJDx8+qM8bcl2GYnV5opGNmh98MoBBHLY4R/SZaMsBAp+webdfNo5oDByZCMhxdMibo10inpw973iu6lBSL0yf+DdOHGkKepXZkw5dkjnSnchhYWenm+UiAKwCikMHyppt9MGHbPS13RYbkzGnRoYVLToelxpavOliEXap9f/r19UvHLWy990lg5ekm9RTKyu0kBbVh265RSqYLLwYfgCxwGAbL7LUho0W+N9fttA990ilbHQSOnDsmCVFJLHP/JqFf/SIcCcjkSRTOCBg6n6yM6neYpFF1M+2As8AFRhXf1jGIqHTCjZI0mG9nhE8RmTxiI09+G2LH+2ygrblTmUfvf8Rm5JUDjz8uCRyg41vftZCMkIV33u7k9qhthZZqLV0bM1qCy1rsVR/n4VWrpYkP2aJfXstfOs7RLTqG2952cKrVlmgQrq7tIXU8U5LXbTRUm1tFtr6ir5P0r5JErerE0qUehyXlJNnzzr9UJ+TYgwM10FNdW1ma9QHdx20GR9y2hdH9e2Hjx63ktJCLX+UEUoGrPFhMZjkkDUXd1mJJuPbMjGYZK9+YoRFG231yqtUlhyAnU9pclAtt+ibb/1RwgqLArbuSqnyZQE7tltum15M2vlXywtLm1w8PZ60nc/G1U+XOn9h0Da9S0vwanNkmFGOGU9nXGRESp/yGCaRGdxl1r3M53OdYwB0QelhDsrdu5y+dpeL/pNN1fPMSOpntNZKrrvdQk0NEh5y4yr1KaX+XuSWayVhIta9+XmLXLpRNKh+poaQemQIKm2RS5E1bZJSkp6VVTLWqD8nCZsUiy4QECHygKRxkhosEjilrgUmZRGVRAxI0gYOH1DXUBbnnuMCweXOahyUMSWp/mdC1qL4hJZ+mZzsyftFKCi/SpXlVrjqAll0pcbmCjKMhRpWW9HNt1u8Q+q71FOkaVT99ojUf4aWghWlVvqeO115UloCNrX7oAUFvNDaVVL3BXgkrMqbQOLK5BpsanIGMKf6CpQpyq76cH1eWHsPqrAkPI0pRuT0S6nq7nlY9aLOIu9x1i/1JwOV6mbUiZE1rZSmMaMTn+uLFnWvQ4znoYd+Is2jyG6/stHWNmkJoulbgtKUel62WLJDXZc2Cya3W2Bgi6WK7lC7/1cxs43e+zzK9CgURsS1jrmspmn69UACEUvaqvk0opeylx9O2vYn43b+VawmC9uxPSl79j/lFEISd92VQTt+KGUHtsk/221hWW4D9tz9cWvfpRU75fKJpq5ArjB9d/okV6yMe4qXGdWdc09LgSBLB+7MCBlJOfUNcpzrs6bzornp63rG4YwMMk5Js9CwSADrNZIEBbI6JiOyFB/YJmKf0PInqY6l6hdLjYzWlEudxaGbJIhUypLlzRauqbSpNa029dxrFv7C56VGC8B8mSRl7PmtnrS1/yPQaMjlPx9waqSziKuPnTqkvu6LLwv40pukmgZeFTEpKeppoEESKyz1W5VcUK3nE6o6qc3hVedbcJlANkcISA8r2HCdgFJjiWN7ZCuSCxr6nSLmgL4jIAMY3xoQ+GA8wXL1d0V18eE+G//kL1vkGqnUFTJmqXWIn9iyw0yqp8jXAsuWSSpL7QbElGFQfVn1HQMY4mBQL73sNBcAHVD/PXCVNBRhWyJI4NZ3pNSfr2oQeFulakvDWeJA1ROi8l9WXV8tDxBT9oOnj9ojcbnVEUNqKB+zey8ZsLUN47InCMSmPvrQfrV1l4z9ndbx9w9b30uvWNEqdSk0wgAxxQ4fssqrLrVlH/2QRZtbdMejUNdW3qm7NdKv+hS1F6k6h3ReIGv8pbfLKKZhukKdM2LRtMbsyntDtk1Sl2zGBmVMLAlYbat+zQFnIJOZwwEDYPl8hG8i+K87ceLdn+svefBzYE1nEhRtxScDNtIj0hqRTBUQFcuRrqvDdEV6Y/88cY/5653rb1BLBitkAy3Xzxvl4el0CblYVFg8gHmdWGdkxXr9LtCwqiRkHJVPBZREhUhd6SkjbAk1UH3K4P/zGUvdslscViBTLfHPRfyUikI6d62/sCsCj1F/YdOc8we2zdE903vKpZ6vbRMhivAFPI3NKGuQML8QkHpfsHaTGNLFIk5RhCaquBbUO72JGcrHsV6OKsfIiJX+TpOlPt6h22ougduXNk66In38V/tUxfe7b/a/I330KQZ1v1HrqVulLRTIzMwvCPM4vSbyizHXsbNX0NRnj0qH7TzWp++PaZ33lK2pH7MrVvbYcCxk9YV9cnDXa3EBjroorK22up96t5VcJiksBgRRhqQNySRtRavVRRCzhqnp4UmvpioZNTu8QzYGfaJeZ60bgnIzqyE1XTvRpQMmj0ixtD1ISU1evSzgrNk7npR2JdNBT7s8ViqdN3498zXT9T99MvP5bFeU7cTPQ+ax7QHb9UTAeg+LhFVumgxlyv1g7Lrh1lPrnnume1y7n8rNc/4xVLT2sqBdeY8cLADkNInPVpb53D+5dueT6qQ4AlxYxhV+CrPWmRokfNHlZvyWOAgOpx8C6tsXSvKdKkitDl2t/vZbJMQCJdafLLZ2SZlYRZ08q8hns1SB+iIxqOZnrVe2jalUkdUWacQAI71AOTnQbQl5VymStsJA35TsIEl1dwqrayyuyTkJGd0KGnCkl7uS4IPDfXL0zirY6wAAQABJREFUt0+eL9fAKD3ih+nDE6cD5/qhelY2BmzTnUF77Sn1g59JWtNauXhaIdCrj+6/Z5r2pk+mc5rfSea7lcf+nwRs2/cZG1e54LliJryMkb0U4BVApXhptNwLSQ2ZsSOJAwEH5UE64owNJe2FhxPWfiBp9/5ioVXUK32mzj2/Es6ItUQAnpFn/uJNVQNSD0Vcu9rNXj8qm0Ck1PYNFlhzddCWrUZuyAtkxbCc6MsFbFhdChnUmaXlxAeSRloFdoiohu1SksRxaVmM5zMu7lFx7sqQWUR9V7n2KZYHFUl1rh3m9GdWmlY52yRxIzJyMRFl/bVBK9PQ+FKA172boqZPgqGU9RwM2Os/ljeMMd0WUtwjgZLZZY1rpRmklTy0gXGp1uOa1FjeIGEmkPceS8oDZcDGNP+AiRoua1VJOBKwo7vi9tR3AnbnJ9R1giGcRsgD+DQq702fNC1twjL41ZWMW7+Uj5B6IIXyI9Y9Ebbj6nNWFI9aS6XGtQsbRLgyGMYkVQXUSY0Lj2w/bKXr1lm4rlwTXtRBFGWHJZFDVZUibnTh3AGphYV5mSQvs7WaBIaoU809MPIcqUsAnAwrOcksBI2qTFseTUidDlqj0rsx7HRcl2Aaie5qXn+mk+jEV58RqUdeESg1wgly/ThoAqi/667XPdCjeE3nB2zfSynr3C3r+TUBMSNJ4aRcwcqq3nMkaE9+QxOCFM8xGpU1JIPbnhfluved2n5oxYm851XYrEh5AGdVyNvtErA0lY/bb971oh3qi1jH5HL5+5bqeLzMVlUesuqycfv8ozdYqKLarj3/NRvqYHcLWapXtVjVncuEK1naBejCZRqjlq5IvzfJlNEwElhBBO+D0bvh/UWtrJGNq6RKvq7U88KTCzi88HoZDIUWjFVIusqGlF11T0jx9BwUCQUbb0HypkHvg9dHWOZL5nHukmWk9fqr9NHlWrdLr1P9+ADmVYCQEb7BTgxTUuubAta512NIY8NyFas+cjwWsI49Sc0M1C4h3dJSUFiU0CuqZ80eH0tZ99GENa70Rfs8CpsjSh7AOSrl7XPLkaQNjhfalp0X24FueV2cqpLBWw7pewrtdS3YaIp22ppajVOXJayufNjqksdkLGyw6sYqi5Rp7FsjD1MTgyJc7XKhYa+ComoZnWRLcGBmFpfe4VaFpAHtV65uMwtMk/n03P13T5iu6UqVllioy9E2r68JeLhuXKU4QrMDF6kyAOgymcef6STTJ14ijKgYJim2s8GRPQUino4wl7EBPRNzWbZe8+6Ze69VXXFJW0CKMRNDXPeRlF3z/qA9+q+SvhScoAOnDsw6gUGR3+mEswNgDcdYx1GtBDqkDpU6AQyzNDZLFDRrFpK88W9/RcYkTRu86DKxOxVRxpHkLg3PjGh10YUXa2KEOj7nUtDElJSWV2I2DdQ1mGmGWurIQZVQraVxYsZxrUHSqltA4JtFGYFqWYPaVro0Z/NTREY2LHeqrx6tkyVafrX7whpbLbSYOnjvXicVumjIrrtpiyz9q/U58lGcOir1+HztR+URX3y006YGD1lsYkiEqR05qtdo/H2F+nYs2mBmGgamLPDqg3269Wnbr4Mk00gzAqRPHn7wr7nj7p545Ec55XE6yfTJzCQwB0AYVd+Wl5woI29nwomGvdie5rB2ANGwV9N52kNKErlU2gTpSqVir7xUU1TVR46K4fAaB1yXWuc6MqzEBBTAPHunP51gjsPZAbCmDSa2PGex73xVtaHd+F571Yr/39+z0J33Wfzzf26xFzWpQHOOC298p4U/9AmLf/NfbfL+b1iwtl5TIist+tk/kRVh2RyfdQYfqQFS2160KX1LwT3v16SRKktu1+SH72gWWh+W2i6LfvDnLPxTH9Z3/JvFfvhdC7WutPAV11j4fT+j+GrxsxiQMhWRYbuyZbu9cqTYXu9qNU1M1YIQLXuMs7wyKT/FDTJ0yfIuRvvk1harrm6zTU2SsqO9duTgbuvXd2K8mlKnr6EhaS2y5EdKNJYPgAVI1OzpsSGdQdBIHgiZc++PR+RczhVcWiJMn3ixwYGXl3+i+2DD6d1eHPfcO51+p3/pH8mHdGHNcW8636xzp4xYkq5eXu7g+rO7n03KkCV7gebibH1IE18kU/rak/bU17VlzkZpFrIl/PjLCSuWXcH1ldXXR4kmf0YpG1cGrWmF6gVNwn/5Io5nBsCUWuuF3cwjzvULvfunrei6Wyz2z39jwTZNSbzrfTLdiRB277CiP/sHzcrqs8kv/JWGa26wuABdLNAGVqy2yb/6A0s882ML3ffRRXzuaSZB52H+tRZMOP2Hc80HTry6xWkFgStvUItqFdU7323RjZssLlCHuo6JMb1XwqvXMavof/klC733I6Lnk6XSaZZuUclxWl5TErMNzcdsYLjIilJlNhLTbDD9C2gZY99g2P7zuettLNJgH31Hu119o4xWmiSDw4fY5Kh2WBzVVjaCqJwsjGoW26hWcCXUEUyKSr2mTkuZdOkc7vSHrVfxMY4qyradSF7UaWeN1lY8AM+f/cSz6XNJ40lJvUzDFsyAmViM0WoY2gXejbrNcDrPee90mHExfded6LPclAXGaJsv0izXXVpn8rIj2XREyi3ylMTtO+aB0i2T1VMMXCiXXQe8TeTcfb3LAy50D9lIesvifv1PFTorvPuOmUVY0NWZATC1+tSP0CdkldAUyn1aMHD3fZZ84Rmb+PcvWNH//auanqdpk1odFKzVaqS/+zOpYNosao1YYKn0GDo7PsGr0aedyy/oU5cgsqYc2raXxD6l7mvlkGmBhtpE8593WfiSKywFkJev0IyDWktted5pDWgRgdIyS2nVVPzl5yzx8ANW8NzTVvieD1ngmps86lqCoi02C/a2Oi6QPrezxrYd1Hae6g7Iz5ImUmr9smbKRUMTdsnKLs1Fj1lNVPO8x3ZInq5Ue7Wqa1uurUBKNOlGe09pw3R2pKys0qokocZ5VoFmsyUg4NFPC6xsoFt7Fh+To3bmzgjQyzW3mSXe43pWrGZnHjQE3nKBeiUHU+p7Ks76oBtCcuOyymdMQzdYstuUtvuIZsjFNcSke0wAwYi0cgNDVTAR772nrKe00cpTo1N28b2aYaZNBPa/qDKrnK5Lr7zEc9zYLvlSRm/iBt+rMgukXNP/J573zPuWivqg3fLBAlt3uRat8K7TDGcGwIAvUmSJ//1FtYxmTd0jaav+YvDK663kL/7Zpv7jqxb86hct9M575MVC0yTVIm58kbnQLPlTvLH/8RtajaPWlfod+OWrTvOzF5mcVURdHZb8T6nzq6Q/3X6PJXa+qqmUGjZp1hTRB75pBe/5oAVYhHHVDRb91G9Z/IlHLP71/2Whd9xphfd9WN8ghwD7d9uUFlAUNjSZrT5vkYVZumRIz6O9DdozacBaK8fs6EDC+oa1N668owRSY7axbdQGZKso1PTJstATmkb53zR6UizC1nrw2haLFsjAVVMsoFTLsNWq/l0awLA3+r8OPRnl1W2mwTuyELimBF6s0Ew66z0qVbRD1xpzLq8JmnwL2C6pq1iqkXyDsuoy9ssQDQCoW86uEh7gcRPklo0LQCzJlH0tDVxdz5TBGYWZ/RT1P1qassvel7TWy2RZ3qXplCoPGgP9ej7LGaSUxTSA9c3e/fQzgKznmHLqWgK2RjOxKuo0dx9kL6JM2aU9MwCmoBilBEaneuo8+YjmOjc0W+imOyTNhiz+kyctsGqdVNQpi/zjN8RyO2zitz/ljqGP/YIVr7vAxv/n56zwHXdYQCr3WQmySrj1uBo20do5Z4iLP/6wM7wltVQweVDrfLW2mQUZQU3rDN12t1s2GX9hswWlQgcE8sCmay1YKscDUq0xfAXOJoAhLjHEy89vsg2r75T6G9NG1NrfdjRmvdoNr1Crj+orl2nrzAFtCSIijKy1ydBnNVd8o8AmRClEa1dZYZVWZKl7EZThC+OVT5e4UkoJRLkCw0CAkAkZY1qsgMo6NRGwulYNH0klL9DyUIA8oP2blsvaC3B6jsqoVs8kDvXG9Hru0T/llUjMoFTvgqicB2gIiCOaGurzgoKYBOV3PVMdASOhfo22YF2rcnLP3fF69u7U/fFf5B/9J9416cgaFXqpwMsbzgyAmZUjCzOrd1J40VimBn/6RzbxD39phbfeZVMCb+Fd92nSfot0Ii3C/8e/0oocLVJQfzIl621AHYsUa2/LtNb3fR/za+bMH5lrrW8IapF+QNIztfYCK7j3A7IuS8U8uFfCRt9JN0GrpiYe+Z6Fz9+gBRJHNH30UlHqhMW+9e8WevJR1xd21sfWVWf+G/w3irhtZMLGv/MflvjJo3LcF9Q0yFKpwYVWqxVka0blHEGSkX7lTi2XjJ23whquvlprLHQj+YwHDvIQNbt54OkuDmu0AxKNqI/FrZLOrSsVQejPDKomrLcsaIjLlRJgBDIYd5gXPaWhmebzPLWX+SArLgpafwfEr72DJcVGpEr3aR40c4vldcmlm9IKNAY0QppWGZMBqkD9XyeBM987n3NJdSQ9IM4MGPuyNd7s68z4J87THEA3lEUa/RmZn3h8IskCzs4MgKnZljaze38aL3pm6tsCgoismvGXnrfCn/qQhdQnJET+22/bFCqq5tJGPvPfvSEYGbRS46MW+b9+0QLqI5+1IPXfZJwKqB9vNZq4IIkaWrfeK86hfRZm+Oviy0WvsqBrJVZcffyC62+x0Lve67oQhZpyGH/ku/qGeiuQxd0xrLP2MSIoSc3+Qwes9z8ft3CbVo8tU1egrMimugZscmunJIYsyyLbQaE08eOf2PAPHrOI3AoVVMmJgRhVoWZcsdosMTQstVIzpKVZMJMh1tdnw8+/anV3XGdrfv0z0kpqTgLE+JB4nXBd18ZEDhmmJIkhE83ktKbVnkGLJYONq1BjmR2W0jJDbX4tFz3y2eDi4APh8HYBWc2CVK5Wj4QJHwPHvX4061rIc74BqXvW7CvzLWRWvMDQkPSXrIB0wCslv3x469UAc3O1GtKmtOig84t/aR1f/Bcru6LNytcut4KyqA3va7eBF/dZokdLK1dXWdMHb7CaS9Y4FRA/WEHZAgg4LXBLIyWekpKO6KvMi07JCEbHFE+c9POnbINcgdWRwqXjD/1XXz2lf4hVGk8f9E6Yh+xboSFO+qKox/65y0V/mEAhQ7gbsmHTdCc5XebMhlI/mrzQEk68lqdzBiQtygSb0r8hQdmKTUx/O/XA2HGNNIvp8me9GI+Us3qlzIr7hl/CHPyld06N1BvxrUTA0yFhShYOODs/4nDN8kP/uYt0Fv9kfgPF4BpvlAlJoQImpYgQuea7KDNl959z7tZIn8Xyu1eLkIIaDqMrMNmskQEcJuCFQ+6PBo5oPXNrnYVWF1i0qVpeKbVmekReOnpYy6yFC/K2EuvVemi5zK247AJ5HpWK3SEbgFYtBeSSNyzXOlFJ6sSg1hGnZKlvAPAzUQSx+ncAciEL8vWfc4xR3rkfQ/cEYj8oCiiQYSggHwc6oYOZEej3MiTl4mXcn9cpjIWy+YlnZj2vLGaLxLed+Govlv+a2dKc6v6ZUaHTpQCIPT098iRTrzX5WtyuL4LIx7QULRqNWqX8I0sj0HJbTcsT4dfKcd24+syDg3KpKjDX1NSImKQvncUAECkvHLFUKuOonA0ASsrJvSL1k8uk/vMdE+r3cl0uv1d8Ez//O7l/toI/porXkPKrb7bCl5+1zqcf05JCuezV5rcTnT1y/T0kSRi2Cz99j5W01cioJAd/8lbpPKDI4iQ3gRYNKL4oKKW9cguq5ewOIMlRQag4ornR5fJSktCYrdRnLYDQqNScwRGy/iwYL1ng9V8yPXy10AzTjAUp6YIr02IKptTuo/xsMgqScd895VHGYy/F/P6eURUa4h+Q2xyIHSkFkAE0AMAxGip7R0eHLZMnCwAAUHgGcAEH91paZOg6y4Gy8B1I3EJZ1PlRVhhQ5n2AS5lhXEhmAE88mFZDw9nryzNuir9m3IYhxWJd7db93OM2cnivpB+WJBmhpAaHa8us+aaNVr222atxRJsI3I3b6EAbelLFo0jXf9QpjFnjhBKMmsGVqJX0BL3ZVKtb8wgz6HrGxTwSZ0WZkXzGxYmIfD5L/ER2b0ygftI5U02o0DhfqVB/n+rNFaA3fr7mmhnnjAKYQhyTgzp+EHdjY6OTrhQIoobAY0yt1DlEjxQG1EgyiAIwr1y50gEm8yPO5DlMCEl65MgRd0RLgPlkahRIWV+7ID7fQNn5fq7RImBEZ1OVZuhmWJPD8GoUDKmPKS13Wq31CUkExrgqQzzzDS6p/jjidJTqkauf5WIlTeb7p/Pi5oyLzFiLOFdRp/vakuwzsp5xsYC8vc+fBq2f0q+fkFY0VWlp5ByrLx3dzAbgWVVoj4v6r1uaIxwEUKI+QuQQMMTND6nMO3lGPK6RbD6IATbxAcLZDJSNMlA2yu1LYNRmyk9F823EA6yU2wcwRxiT//xsfgfrcVGlNXfD+aGKa6E+wdHpYonVy2LuvxD0aeafxoR7z3RfNddbF/IeZYor7lKNT6M+D0tDYWngdEi/1M9yRhnSkTLvcYu42fdcVG7qIfOly7SgYS7wEn8uLOaUwCTygcb5UgYKQ78RoAIEVMo+DTsABL/PixoKsaM6I3175Ujdf342pVZmPQBEwIn0RZWmn05ZAbIvkflOtAq/D4w6zXejap8r34HVFbURVe6MBRFvTsI+YwXI/SKA5A87uZ4E2kfuqKd9l/ecCrj+SxBmaKW5wqwABlxn22CUq8D5e/kaeLvVAIIAbS5XmFUfJcFsiXJllL+Xr4F8DSx9DZwKh7MCGFUXNTEf8jWQr4GzVwNgcK4+8KwAxgjjW4TPXvHzb87XwNu3Buj3gkGwOFuYFcB+Agwzs3Wg/Tj5Y74G8jWwtDUA5sDeqcKsw0h+QsQ3VjCs0liCMW7NxRH8dPljvgbyNbCwGgBr9HkXovmeEsB+EeAI/ACv//Of5Y/5GsjXwOnVAOD1fwvJad4A9jNdzEv8tPljvgbyNbC0NXDKPvDSvi6fW74G8jWwlDWQB/BS1mY+r3wNnOEayAP4DFd4/nX5GljKGlhQH5j+bz6cWzVwOiMC+fY8t9qS0iy0PecNYIaP/NVAC33JuVdNb/4SAT6GHFhIsZgpr/n2PLdowG9PRnoWwljnBWBWBvmuYs6tz86XBvAy3e5UU+78mgK4tGW+Pf0aObeOgJdxYH7zCacEMGtXaex8ODdrAEAywQatiEafi3v7cfPteW62JaWiHRGYHFlbfqowpxELwsg39qmq8Ow/p7GZKcdvtjCfOLOlzd8/8zUwX+zNCmAaPA/eM99wi30j0hUAc8wVuI8Ng3bNhzdHDcwHf7lbW9/nG6zeHJ+aLyU1ADj55VKjAfBs4M7X3rlZA/PBYE6dCwKYi1Nj+XzllVds1apVzl3Mrl27rKKiwnla3LFjhy1fvlx7yGoHqgUE9P29e/c6Z2+4pcFJHAYayoEbGvoF2QHncvv377fzzjsv5/Ps+NnXuJOZGMMRsP6nBROHxciozDQ4hwvJz3FY23ycyUBdAdLZ2m62+34ZOzs7XRtQ935caAHvoWvWrHHugXDmx+IWpENdXZ3rf7e3t1tVVZVzgeTn1d/f7zxy4hYJt0Lkg2cJf405+WNf8ft7fjrcKZGWvEk33zCptjyuXXsGZPthszMCbUoLZLdC9v3stvevXSbpPE46142QnL9Xq41rZCKSX8A3JPjtMFvmOQFM5LkSsszp13/91+13f/d3be3atfbHf/zHdskll9h9991nv/M7v2Mf+chH7D3veY9r3K1bt9oXv/hFB8jMPNHxr732WvvZn/1Z5xfrO9/5jv3zP/+zveMd73C/L33pS/biiy+6PCCe3/u937P169c7/1kQA7/t27fb3//937tywDS4hxoJM5lN/VAU6+9K2NMPjNvWJyZsqE9MQjf9hkYl4YezNNGYzj3vhO6e/4znnOuPn474flppqlbRELJ1N0XtgndFrVznZyJk1u9C3wcT/pd/+Rfbt2+f89lFevKDieKT7J3vfKdr029961suDsDjHuD+5je/aVdddZXdeOONzg0Tfs6+9rWv2XPPPWdXXnmlrV692i2Ne/TRR+3AgQOunWDYP//zP+/yJP+dO3e6OLTpq6++atdff70TBJQD2qJ9Z+vjv6pdJh44qJ1f5aBPrqg9hqwD7cPPbyT/3N3Kup9SA9Le/o+4KV0ATP8evuWn89B5SA9KCrR7oRwEvrte28TIp5Zun9GQ0ycWQKCBckk9Skfl/93f/Z1rsL/927+1H/7wh46bwoUPHz7sKvtXf/VX7d5777Wf+7mfs3Xr1tmGDdroS5KbAGHg4O3BBx+0T3/603bFFVfYb/zGb9jjjz9uF1xwgf3CL/yCnX/++fbXf/3X1tzc7BqO+B/+8IftM5/5jAM8kgZCgfu3tbW5spI/53/0R3/kpLJ7WcYfHLcd3RO3r/7loL0i8LLthrLxGknxfOA6IAJgV1bdB5w0HnkpD/ZqQ2pz4JznLq6uuefAr3sFksIXvCNqN/5ymdWumZVXKsXSBNqNtvGlXGauMLRsaZf5/KGHHrLvfve7rv7QrHzth3p+/vnnXVQYc3d3t2Oizz77rAMadQ4AkZY486PNac9vfOMb9sILLzhmevz4cbvnnnvs/e9/v2MOtNsXvvAFu/nmm53G9U//9E8uTzQvyk6enPt9+g984AOOEeSix5e7zf5ll9l++biWi2uTX3qL6KctfW1KbaUdW1xIHwQ4+ZnXhXZlsahcutJuMNwornV1PqY6jCkdD0olXSd0TlropEjxwkTSM+5pK2K3/y/5XShl4eebzWqXGMTUlY8bvfKksGiq8iv5T/7kT5zadtFFF9mdd95pv/Zrv+ZAS4PhqZEG+dSnPmUrV66c8XI8UUIMhw4dclz4z//8z+2zn/2sfexjH3MSGHWORoTDo44/88wzxjvg7H5aVO6vf/3rDvD4WSYeKhteIHMFNpT+8TfHbOtTExaJBq2sKmhrN7LGWRJd7BWVaHJMrlZ7k7ZsVdjGhzTGKrUM425/h3aQ6E9qU62wVUmijvTIP7TyGx9MWMPKAqttY08g7ccjQhjqTNjxXfJaOZy0vZvlqbI+ZDd+ulQbd9H652aAqaI60wUCcDADAgBGasJICQxVcf6Hf/iHjrCQ2EhgJO0NN9zgujsAGXUZB/0XX3yxk8SAFSZOQMLC7MmHNmxtbTUYPl0hmAXg5xltiQdPmHku8A5KXf7BkZQd1f5IwpbAFbB1Zdr8Upt31GprlV6hd6/2gSpQmwDmHsVv07PjWic/qe8jLvsxAeY6uXgF9K8MytWrQF4p8C6Xm9keeZUakkPIw6KDZvXiikQLMPNmxd+lDdkOayvTiOhm+2jAntauiXfKTaxI64yFRQGY2SKoQ9dcc42rfIBGnwU1h8aj4vFoSX8GwphtUBoigUCQvKjhqE+vv/66vetd73KSlkZHHYYR+AREgwN01Hj6YuzkQFokDO+HsHh/dkD69h5L2DYBqkCsWq/VUbHUeDGBtlKbLg8JkEhYdsvDofmUtsCMjWtnPrUY/yobwtpQOmyDnXLWro2pi1eFrPcg/oQFfuWVUjwkcqRERxGBPt3iSn/s1Zgd3xm35ZeLPZ+jgfbD0T71iMqLAYVAWwNGdpKgbVF1aY/777/fObenHdCCtmzZ4pgpaekW0bYweX7khYoOI8BugWpNOtRk8ued0AEBWsHxP/1gQE65YAIcs8MBgfPIcMDi6vSqqi2sd7LFEp3fAQ2hogkBynYBvFxVv0E7ICyXpGwWMHcBbD2r0P0+idBexdcOqzYuJRFQRwXKI+NkJgALxNoFVYCFoZmtVx6vSeIfE3gJ0Djmju0qyy3auPKcBzAFxrBE//ZP//RPbdu2bU6NRhXavXu3a6hbb73VfumXfsl9nPvKWf7Q0DQwahv53n777a4/hWr+xBNPuFS8i/4ShMM9uD39bzj53/zN39gf/MEfOHWLvjZqIH3l7BCXdByUZB3tF0EJaGoHB9bYuDYhUwMC2r5jmp4o4IZFu+wWD1XUtoSsqCxo7Tu00abyoIzuRxxlwmbUYwPa41ZxgrqX0PeM65p9bh1ViYgmJMmH1e8+V4MPNBhgV1eXA+Nrr73m1GLaBTsHTBWJSns1NTU5bQjJiyHqE5/4hP3gBz9wms9dd93l4h09etR9LvEBKKo9qjb30brQmAAtz6lPAsx4z549Drjvfve7nUSGqcA4coVBgQ7jlbJw7TkM0xV4J3QvJtAhScek5yJhUYuH1SZjihMT4HtiAYFaTEaJI5LQVZKuEe2K2Kf4UR2RsG167YDaPCggDyidzAGeGq3itksi69JJY8rGF4zqBpJer3PX3H+jA2S6qEAfaeXKlc6YheHq7rvvtssuu8wBmka84447phtorheQD0RDHxfJiQSGQFCZP/ShD9mKFSsccSDxr9YG0wTUaqQ+/S76SRxRsXAMD0fPFWhkB8B0Y1PhqEIIGqDFzumVdVKNBXIAzXYiFTUhTwKL/bIF5KSIwuvgYvhSYhEecUcF2No2cXupbXE19sSIJLdaMy1UtGWJGIaI5FwNAAjgwBxhpvwAHABj7yraB6ABKuIiGS+88EKn8SBxaWtUaUAJcwXUxCfAdEmDtrZp0yZ3/bnPfc7ZTzB6YRQjYA+hX43k5f2f//znXRkA8K/8yq84Q5YvpV2C9B9ew482LFZbos7SF8a+QY3rltULnMulOgPkY2M0W8D1VRPqNjWUpuyQJGuH1OpSAf6YNCYAjTQm/rAybtczvy8MiIV/xzAAMEGXDsxFSoNUP5MtvWgAU3D6nPSbCJ/85Cddg6NqXXrppY5Do1rRkFiccwUaBAAThx/nvjQgPucAkmNmIB7BJxL/yH0aJ1fgrvtR+fqhXoXV0tXqz7K59NigNAFVfll10AaRlirPsHaQx0KNMQpVupBWJRdaTAfy4xkW58JoQKp1wkni6pagDbdLDRe4CaU1QatshZTOzUCdYXii/rAvoN5iu6D/iTbDc6QwmhB1zfVLL73kukiotlxjbEGNBnAbN250Ki92DO4BVH8zN/KlTVGVaVfS0hVCi3vve9/rmIE/fMR9ukQMFWII9e/7taii0Ezuxz1lpc3UAK4krLo/ZSK7ElE41HNc0hrJ3FIiwI4ooogA9Xm/zit17FJbRRUXEC7TZuJHBPRJAfy4pHajGLOyc2p0qyQzdJIdxP/tfElsDGhnMiwawFQ+nBmDw+///u87rgyYMSD51k6AS4NjeGIoIBOIcGbGkn/mZ37GNSgNC2en/wQBwIkfeOABxxS4//GPf9zlReP7gM2sKO7N9syP56zDuvDrHyPVga3aTA11V43urNJqW1Tezr1qeBlBKmWAiuuIZC4ulVFL48ZxtabbUFrvJC5qd0xSF8COhNTvU/xkgh87xodsxTVRq1uz6Kr2i/+GHQEutgX6pvR3qUcMWbQnbcZz1GBGCLjmPvGQtrQV7YwBC2mKKo0mhGGKfDBKoZn5RiifafMxgJdA/gS0KpgE7yJwRH3O1d4898HLkZxG1Y7b+tQdUlUjMdUEzuoMuOCl3B+WijyOOiwJPaKjmspJTbF+PVObKZ8+GbLQnkYlahXF+tXf5RolqkvviIkZkCfFJz7947UC9o2a+nAm+796tS2KqlBxUKH+7M/+zHHWr3zlK/blL3/ZNQSWZfqvTz/9tFN9fuu3fsupQ5s3b55uMF5MHjfffLNTy+hLYxyB+2PoWLFihQMuqjKNi0oGs2CskWEKP/AMTk4DY+zC8j1boLJRg7WlrcUEQBoEA9NIN1LAS8WBcwdkNZDa2Lr2Trl79JuHRRUjxxPuOZJZWTiDx3hf3AYOe0Tk3fO4dLlU8kveV2yX/HSRm9gxW9nO9n2YqW95xviI+kygjXypiyoNcGkTxuwBFhrYww8/7OqfuLQDjJg+Loyd8Nu//dtuPJ80GCK///3vu+4SICcNIIcBoH5DR9/+9rdde/tSHUMo9hRoIDtU6xYq67hA6dpN7RVTGVB7XY9F15MCnNemau+0RZm2h5nTL+YZAHQ7M6pbxLXbPxk6SdMA3MExf96l/KALLx7DT2ZXlqXsvkap49BXdiHf4OtFjQNTJjgwY4dIykwO6TckqhTDSlyfKgBCfwAfAoDL+9yZtPRz4f70o/zw/7P3HlCSHdeZ5s3K8rarvUV7A9vwIEADAiCHIqmRGYkUZThyMxqZM5zRrszo7EojabSzOkdHOjtzVpyVRhIlLilSK4oyFI0oghaERxNomIZr721VdfmqrMz9vnj1GoViV5vqrupqMKM7K1++Fy9evLj3v/fGjRsRPtNne58SfrJ5leeb+N1zrByPEsCx93kWyx6/4PfE40SsKa4JTpP5PZaIprwMTXNTEZdk5/JirH9zQyzfWpd+Z1dm9q9tMp1xYGmpqavwNNn2OR1zDayAtA8r8LSczOu1nPbe47GaVq0s4LScNMMVEF7Tu6ymd7hI55gads+ePWe83Po/BH+ukdXWlqX5fDYAq2Ff7ULIYu5qJp+hY36Q3sU3InHuzOn8AFR6mH7m5/id3BsT7xm/luV7LaOm9CIcYauaiLp77bR3XrZ0vnHgaQP4stWwWtBla4HpAviyVaBa0GVvgfMBOFcql/3B1QKrLVBtgZlvgSqAZ76Nq0+otsCMtUAVwDPWtNWCqy0w8y1QBfDMt3H1CdUWmLEWqAJ4xpq2WnC1BWa+BaY1Dmy19Hj60eXv8ICD8A41mBxS8OMwg9E4DvHk11KG8T+OATq+a/CH95ss06Ekhx4cJsrPG2qZB9RPFdk1Xmz1a5ot4Jir0U8O/eTjvxYlLR2echzY80ZqOfRnPoeNHO6RbtLbj2PG5pfmfvJ5vMZCm7zf8xcy9JduqP6ZsgWmBWCJJZEc03O80BkmfudRMw7KS0DH9ASwsc15VJZjg47rGWbp/TKMIHVMUGZw5omuc+cVGxSSA1/mEvCWXQXwlPSc9gWB52ob0kU6SGNpKsjWrFmTAKsQVdg6BiyYzWPElfHQexjPlScEs98mx4wd85UvDIc0Ty4MPOfkCedve1xN02uBaQFYIjjxQEAJ0hxkamMDOARsLrE9NmLHgXg/3ms+Qe95iehvpbJlyUgyhiCWATz2HvN6j7+r6fK3gDOBpINzrqWrIFTYGnll++dT/IzY8rpAFuDygRpWQazlZH5BL/3zY69Ztnm9Jm0V2OZXk1cBPH16TgvAPk4gqSElhFrR34ZCSmhBKdjUokZQOe1P4vmR8Ll5Zv7c/JKYfkyeM68SP9cGOXPITNV0+VtAwWtyup+0U6DajcnbXeGr5SNtpbVRU9JCAJpfOgl47/Mj7QRtfp/RXoLf817PwX/53+Q7q8RpA1jiSTDNKeeOSkhN4XzWiSDVfJJYatVcI+f9Hu83j79lCBlFSe15NbrMYsiev72ulFdQyCjVdPlbwPa1nZ1dtAaTWRNZ+ipIBaLCOjePpZWWlbRQm0pbAWk+kzSVtmpq6Wd+fyskvCaYpa/nzeNzzVdNF98ClwRgiSFRBK4OJ7VrTgwZQkIpsSW8oJQJJJhJgskASmiTefyYFAYKBn9PzG+fOZ/eljJW/1y2FtCZaBdGgSsQ/c4FrGCVTnZppKNgVZMqcBXYOrNcyCHv4ghM6S8/aKF5Xpqq0XNT22c4cUL6emyZ1XTxLTAtAAtSAescTk1kiS/B7KeqNQWeHkf7Np73WMm+du3aZHrZz5JoAtpkeRJd4prU2DqtlNIKB6/LUJ6rpplpAfurfkx2bTR3paeglTaa1tJLbSvtco+0x9JFfpBu0kxQSncB6zXLMb9gXoN295oCWrrKI7ngnpk3e2OXOu3JDAJKAkhAJbfeRCWqxPYjISWM4JaITgiXcBJX7Stxlcrek5ejxlbaW6b3yRAS3eSx9+VrY72xyTK9t7MdBZjtPznZjlo8F2KqSltNY7WuALPtPSf9pKtl+AwFs+X6kXa5teSzrYtJAex5y1BT5xaX1xUIuZa/kHqlAr/D/kgH226qNG0AT1Vg9fyVa4HLBeAr9wbVJ09ugfMBuBqJNbnFqr+rLXAVtUAVwFcRsapVrbbA5BaoAnhyi1R/V1vgKmqBKoCvImJVq1ptgcktMK1hpMmF+Hu05PKw334l9y7mXklz4MTETelB+uWf7Jzf6Uf2Jx2P/z5z7O9JKXuukyuyYtNvbnDNIlfZv9BkHbPPhd4x8/msfnWYZebb+Wp9wiUBWKD0stT9STapGUlL/BGMAccJAoELHGKQZQFrWPKvqYkl+xgeMhUYXnJlP1NagJsf7vTmOUFX9Lrg44TleT7lG7+HU2eA5sJm5TLjyKzzWUKIjI6x7KtLuvKoOhaX62Bh4DZW/PaeqZL3DzOk5WdsvI6pAvkNnJsogPLTM/6d3p1tO9gqopEhoDqGcaqp2gITW2DaHCF4T7FpzIlull0VbazjOVYiZBIANTcRXcVmRClPd28cPt4VN21eE431dUnxesF1eMVUBfCILnKPq2G+3ciowsaeHvIv5bWw7I5Uf396xm8emQArmLMP93BcYr3QIT6jpbqY3157VhA75jw4NJw+mfqnUMZSK4xxFrhWaEDwdLLgrxsp+cDZTLYTn2GEY4mxwGbCERvGx8VnsxrTfZZt+09/8+l4dtvTsXD5snjLA/fH2o0bzoztT7fcK3FfT19/PPToU7HtmRfgtVK89x33xk03bIn6K0yPaQN4CKY6emo4Hn9uZ+w/dJxdC+riRNdpdoKrSYP9jWjcZrRG38BgdPcORk9vXzxw981pmxGBIDAzLQ0s0+9Mk7plCdhN18WLG4aZBCSzTtM9MjWH6ZzaM/8k3PNboeA5s5mvu5fAErSxmnhiUquOjJawEoazeqn+AUq561SMvbQjrS3c0DkvSk1Mr6tvY78k1j5mTH2Msmc7jSGlhhE0RayZWjdvmuuJtn3669+Iz3/8E/H0tmdYSL0mXmE3h3/xvd8TW9kXunPRwkzwz/X3oH7HT3XFh//nx+MjH/loHNy/O4H2f/y3/x7/9t/8ePzHD/1cLCDS7EqlaQFYYAgKLNbobGuJ4409UY95105s9LyW+rRh1PyO1jiI5vX60oXzo8GNVV09O6Eq4SqBTNNYSZ3388qu1esC2zwj+4wDnfsyTey9mXkuYMWSgC7zI5nTHFdc2Fd16jFHw1RUU7+VDV4nmtKCfMSoJZ5f7Dkdlf2H2JyqLkptC6Ky6nY2wqqNw2y5EjsbgsMY4J2XrqmJzmVOYJ99kpXY6qE0Zpji3Afws489Hn/8e78fLzyznQkMLVhnpeg6sJ9IrIZobW9Lgnj2W/Din6iQ/4fPfpG+4vH4zz/7/njiqWfiqedfjhOEm/7u//E7sQRB9JM/8UEiCq/MnOZpAdhmGGUbNoG34ZqlsXndigSWwcEhtqXoSy8zzDL4yxfPj7XLs/ha+V3ACKy0G3p2mAGBY+FpZ1fweUmA+BGc7oKQAOn5hMtMu9q4asOx8T6v9ck1b9LGXPefmt76mrc2LdlPQZblPzKWWdn/6F52IHyUHbDamqJjQ0u0syPWi9tGY9/OoZi/tMSeR4C8QH+6vQiArc+lpzMOPuuowCGdq69tM9hHf601Lr0OM1HCCBbNt77+9WhFAv/sT38wNl+3Ofbt2hPbntgWx/cfiCHCA+vpDlwN6XT/QMxvbYwHfui9Ma+9Jd581y3x4T/9RDz81LNx+Ojh+NznPxfvf9+/uroALAMBNxGARlDzsXoDIOkdGIrtr+yL5sa6eO7lXXHLtetjDQCuJKYjc9LA6bZ0M64qIcSxwOVb8KafAivLJ2uLe3R3usfsZvE+wZ3MZU5Yhwy85vf+LFe6K/3mHk9NTp5TcCxqjfpbm6ORvX5r64sxOFoTy64tRttSnEcNLGCA1q1nH41GMH45kuAt23aY7MYSl7HN++lnuYVLY1PzVWNenq0thug2yQ/3vfP+uOO+e6Nl/oJYd9NWdk+oiX5mMfXTnWpnmuLVkNxtY2VHMxu5MzGDCR7z2lvjug2r4yGEUYlNtZoSrTLheyXeZ5oaOAOHINImHdcd0YCTaiMaubGxPtqbmOi/fGkGJvKZR02q/tA0VpMKOs/Ds5bEcf43OxKEmUb2OebxT3pqAiNyIWlVgZs2E0smNU/wt8/Ibkv3+vtsydPuBbx4VQ3msfv7cCL7w6thcrvpL+d8VlYf63S2ki7sXPKqM3WuxAa2R48ci5df3Rv7D5+Mgyf62Si8Nd5z362xZV1beq8LK3Hu5SriS1i1bl00IJRGR0oxjGAX1Ouu3cI+Ru4XPE22uwKval2PHz8RY2xbuHvnrlixbEmsXNwZnS1NcefmTXEH1oXO24ndwNms5jRbUtAyvENNUz+Vb5m7rYX9cOjzCuq1KwAvXD9Gvy0BVpSCBHzL49pbOIqE7LfnTcJTsFl+6styrMk94hS1op5kz2d5sr5vZlbaB/Y+gaypbMleN/n8MltFTpnSdfNk+bN8E4+nvPOCL1hvwduPSbZjx4uxb//+WLJwSaxi9lVb6zx2ht8fPUNaMfZz6e2T92pNDcxYWrlqRfSyLM/p0z2p/3uaGWlaFouZnug88qslFWGeazevDWyk6Gh3oYnaOMryQ7eihW9fvzoOw2OHjh6L9nkd0XSBs70u57tPE8CAAvRqJslnalOTeNFbKvNpHrqxdWLExIyZ5hKMupllZg5eu9dy+JdtnJ2KS9eFskAeHR2JocG+aG7JVr7MtK99Xu5TE+MdPgNs7xwHcaqfZYz/s7zZTraBpvJRGHoXixIcP3aC4aBGBBLT9ZpaY+WKZbFi5ZLY9sLuqCswGR4NfWY8erYrexmeV8s0xCVo4E48+HaSFOTzlixO0wobOxdGw1UEYBl8jKmUvV0nYv6ChWwtOhiDvadj/TXL2VitL762/YW45YF3Mvqig3T2eWv6AIbQ1jd5kT3mnwEbJgGdvQveZfZIF7SC23Pm09MM5jjKAZtdn3CjpXg1aVG1cz0MPzzmzoUlnmmfMXNYJfOZY3OXAG2mfbPyksk7XlK5TANzPNtJojof9tiRw9F18kQsWsCSrXhi3epyGeZYW0cTfe6aWLygLTavWZL8CI756pW3/ldraoHZJfrgoYMxzLBcHfOCG5eyOinfBZj9akl19Q3s98wijHsORBE+kzYVRi5O9PbHX3z2y3H02NE4Qd9YIXUl0rQALBB0thTx6MqgGWwzeAhSwSRa/ecvlW464lxupaZz/M5gKkSz+82f5Vbzjh+Pl5m0EuO2dfS1UfCpLPvRHgvcDMx8Y0brXU7lWIRPKWe19NdspjIE7yIoZP+Bw3G0m2VqAO+65fNZweJ0dPd0s+ZURybYEH6tzQSNuFFmqvNs1nIGnpVozf7NaKwyNFOI1WJCFzGvr7a0ZP2GKHWf4F2Go+90L3E+LNpHV+gY4HWRg6V0g67UkkDTArAEqAG8tTgrcrglsEE0U8FIDL/9l8AHT45rk6R1Bav/00UAno79BsjjZXjdC0l788PbHQMtV0pRrM3MsuS4ss8LgpM3nO8EYrFL/jRENC4EkmaeZWDYTRhCWh8/2R079nXHtldPsUt8Od57TzFWLZkfA0OjvE9WKSW44+gdHQSM0LZ5e9mOV20CtDUweDD8Uqgrpm7TGfpeRS81cPJ4NBCscXDX7jjy6s5YTlTZKO8mL37wR/91bME5J5CvRJr2U+3fymjiLONBj7I0zpP8gDlh4uxf+pWB0gzJqeUX5hTqOOsvc8hdqdTE19n96QFqWACaQDmubQWlY8Dpm2NNaCOlTJknOusjW34aP32tYlmmmf7Lu7v0TM/pPgJE6AYQljk63M/aXyNxuqc3TQARuH4ErAEatYabznY9L1M7WG8FqP394dPdMYSF4XhvEbN5aHAg9R2LzS0My839lUXLAPT0kYMx1NsTR156NtbffW8M1jbFwMljqQ+/BQ/0H/xf/y1+8H3vx7mV7SpymZrxooqZNoDtxeSTDjRj7b8WAIp+5qSWkwpU33otXeYK18wDM0ts+Jvkt/dmHxFcQx6T5yxaB7JKVS1bw5HnMvDq5Ub78lELC94zfWIYKRsP5gnm93oqdfb++I4CuJEotM4WtiAZPRobV86P5Ys6oo+x0KYmNBNWB9WnjgSKMGSROflmr46X40m+59DgcAwQyDPoGk4MkRXHRqKWF5MDaAS+awBwf4zUdEVjW2s0MNRoHLE+lLmWhvp64/jOF+PUnp3Ri9+ijcX+ii0IIZxZC69ZHe0dLXEPq61uvPPeqGfo70qmaQNYJwv+OQg2gkmbFeOUQs+XDfmDeHrmdFcnsEIoNahOAF3xKbRStI7TLwdwMr5hCG5LwBPkAtCPtM76vGgtNG8m7TMtzCNf+82zE3jVyLSuz78iTiyeOzg0EgeOH4tCfSXe9eYNsYQhozoqNTY6FrVEdWUamKE22q3G9rLCV1kqwdiDxo8Hw3zQtzLCypXSqp4VJ/k2SKVSy0GxjllrLLrXNRpDacG8JkYV0NBzzKk1ghDq7+mKDoZCO5YuoNpNsfPZp6Pc3x0r161Os8KGWCr3yK5XYvnm66O27sr166cHYGihtt32/N54+IldsWp5Z9RBqYceeTE2bVzG8EEL51+Oe+/eEi/tPArRKrF2DV5Jhk3UoZvXLYzbrl+OVpRTM45VUmeurAy8XhG8JrXT8NAgToPj0TZvMZoL5gCkE7WvGtnphEkDq20Bzxj35X1MjxUCs5XGq576v/+47avxzc4d0frmNbFx+arYenpFbOlbEkvr3WoGIUPdtE7sOmQiZ7ZqeXmeU2IaZmWUCSF1CqE6GHoUa4j1vxVUCnqCYaQDJMIAw8MOYB0TKKHpxugbF+dYWGUTa1932M+lGzCM6X9k977oHhiOdZs3RmMr5jKzkUx9p04SkDN8FQKYyouFY8dZqJvhkCKMKHE0J8ZwYA0PlaKxroG+HmOahDkd6zkVJ47XxdDI6eil/7d5zYKkqe0r6egRqDKvzJyBVvb3CXkCjKXB6GhjWdQYAqgMJzk2jABQCKR+MBpZ7Z76yVSGn4lp7AtzE/fPsgnNi5Twvp7u74vBBiT6Mhih5Wi8upBld8f6YnUdW8wwRGHyTQv4E6zn617bi1dBKmMiV/DM0gmIAuPaxSKTF2B8+5FlopSSdZWA7DsCcjRWBZOpMjIEkZIUn1NvWaR+xdqGGEXonDx0NF588ZW48fat9OfhPxTVKFbVyOhQNs0TXkwWZsa4s/4e09PAchyfrddfw84Mi5i04DaTxbj3rg04bAgJZFzzLXdujoHh0Xj7mxuZrkc4HaDuOT1IP2k4Viyx30D8tETlKAOuhb6Wsv6vwB3l3p5YvgTTs3ZBmrd79NjJ6OoeiYaWhYBZzeu2lplZnSbzK+01o+lbqpF9iBP9ZxMcvlcG4N7ob2Kd5XmVaGFaZelQTyzoWRLt5RYEn56E1AK0Qeo8vNYAV9FRYodazEgi5XyfGo7rOrAusCyMxNP0SbPNUneKnzL7ILsbOhjOtbmU9jDc98gjj8fmpe2xpK02PvP1R+ObT70QP9LYFPcxtt3A+5QdDUFZJOAm+l25N5gegKmv7X7ixOk4dbIvBhgbW4xjprt3KJYv7YgRaHayf4ywyqbYe/Bk7Nl3LG7asgowb07AGk2AE8Cvf/EctJR+hq7DOEQOHjwQLU4kYAz1BGOqL7yIgwEA33DL29GyGVB1cOVDSWpk2eK1frDlcWbcOfb6p87QL5h0FA3cPdAT/fXsD4XZP1hTjoWDleioNEdbfQumV7bIgHVL9Zuhqsx0seX6phhlEojWVCWN+2JSc5xpXoUUtACznrOzUMB5VcBCqwDosqMQcyQ5tfTFXfuYEtvI1NGeqLQvijLW5SuHTsQffORvY8OmDbGFyQxaHDJoHWPaNbW8C+91pdL0ACwxeIEnn94Tj217NdZds5CVL9gOpac/3nHfVszqQjz/8pHYsn4x++IMxLbthAginW++kX1mtXtJvnN6b/+ArYyJX98MKk8lejczQb74z1+K+++/L83+APoxb/4ybgMk48IgHxNOji1Ub5oEIbgFB/k0tS1rtpJPGsLU6u7rjtF2Hr6yBWZgkkewodsJZj6Va1FYmQa2zv67alMiJiDF8zzKFioFNKvvplVRUVPxYmnVFo7KnHMoyU8Z5q8krT033twlixZ0tDPB5IUYrRsjnn9x8qj7eutWr4j5nR2s8jKMT2eISRrsysh7avldyTQ9AAs4wLBh7dI41TXABlft0cmUq5deOYhXejBt4dFcO8JwSVOUF7ayyVVjzOO6IM21bIqFTgiWugI4+7YvnIM5ncMB0sQcvhEI7hYtbq1Sw7zc+uaONJhu39a+b6aBMacFLRpY0y2DhYWrpTOTZ7Ya29dxpY9TQ71xcv4A7ziMk6A2mitN0VJujoZitrN9Jr1tzas3Sa80HFQhbJbXSOPaY2hkLKx0HvqMMIRkCGUF0KK6ooiQddhsLg0jSYs+Jl988+HH44G33Jr4chSw1uJff8udN8U8AFyGpsN43T/+6S/E8/tPxB/ecFe0GB6a8/Isk3F6AKaSAuTWm6+JrTdkewM3wJzvuu+mM06p737n1jRkkO2lQ1tgL6e9c3jR7F0zlpX4nsi8sQoGwazHEnPLbivaqZs5pNu3PxNr1q5Ogf4NBETUYtoIXjWsJnMWB515pvVI68zyWvYwAW3Js5ey4IxSLKmfH287fVvsf/pkHFg0GK2MgTb1NhAMUJdCUa2RQsu/V2vKas9bIGwdEtLfoANLBLskUqZ9WdGEWTwuHDhv05ZomtcJaTIfyFx67yWdbXHXjRvx0yxMXbxWloqqK1bilhu3MHmnJs2Ke2Lb8/HZrz8Zazddm/aOulLgtd2mDWDhsOP5Z5nn2Zemia1cuQoNeYpIo5FYwpajp5i9YRBDR/s8drs7SfjZCu5gczLy5VI3gddaCLTEwACNw4Q10JsDeAVbWF7znvfEpg0bcGLp7XS4ArkIo/jRcTWKlC/r0BL84+B1eIaOVqaJ0/HsgFiGVnhoFcxvWRLvql9LQ9PfO8U7dZeiAaauXWDTm/OqNp6pv+RT4NLWEMx+P02eQigTPL2GH8N+b4MBEQC7kWEatbFvP9cE10L8Nos721OYsPUz4ORWwLtm1XLegy1S0dAPPfU8VmFzXH8di9oROXcl07QB7Mtdd/2NSKlMwtZjGs3vZHgIbWr/pxmTV21j/27p0uUpRLBuvMMPTUmvgSkHcvoe17xeTtqV74bmxli5bAGCohFQAAAcIAaKFAoCWO0q2AU/YAA0iaHGz41zSRIKs2ao0gauAXXsZE9se+VQDNnfRTvNIxpr1fyGWL98QQqrzMxO2k+Gpx3zdriSDHGxz7bOKQhFbco7NEPz0X5KwUJLwT68XI2TT3T81DREbRvgIJTS+9TWuTC/2OfOVP4htrg9fOgwSyfZ5VuII7Y13vvOt0WLCxvyDs/s2B2HTrJ4I+90xx23ndltcabqc75ypw1gua6ecUz7OZAo4bEBV3tuTnQS/J2IS74zW0pOqM1EZhXQfnQHJEnOcTKDVaAcO0x08NChbC9ZyqsjqsdgctQwQHY1BICb7mE4CeBmx97Lea4pbMwzW8nnuUpDE61723qWjiGG9mTfMF0BtuAcsf7ZNp28AI0nAAQxx1dxEqwpIAXGLgxm0XhJMkEv362mQX0MpyB8a6BbujYHX7kTZbPljjcxSoAFBQ3v3HpdzF++HGYqM3TZHZ/9ysPJOdlOF+DaazeBgSsXhSW7TBvArhWU+jAEIBRFDEnGlQ9TcAbfmraiKQeyeSbDaBus6X8AAEAASURBVPzWpG3FWOY9xuziB1gEkGMxwNStQ/uJ+FqxEhA3pVDMgUH7u1zHwet9amvL8pP1d9VoPjF7Zrr+bU/Prr/2l0r7ElOm8QdMef21C7aDy7F0tDYwZbAzthhux0nr1NTQmK7B2+kdU3txPF7d1wq5Co6krf19X8zZaaWhbJw0vZgvCFg1qbOElZQ8t9nKmknw55fmyHcbwLyHCfqHX9pOpNgpNjhfxCQT+r5o5i9/47F4dNt2hkqXx6brroslixdhRUDoK5imDWA1R9+rz8S+V3fFgfprGN6pTYQUbP39w7Fx3fK45+4bUzDD5PfLtG9GVRk6B1/iYCRd0pYyBsdGazVivtx19514s9vgkwpB8AABjVYuNo3fwj2gOWni8YkSlMpjAbHoVgug7fx71sT1ImO0hfLp1M85k8/s3J6AxXGBRQUqxWaelc6ctShPWke7C4sWzIfwRhtlVoSzjVrZ0NwlZ5IX3sxJA/vtjZ64upL0S8n6A+RR3rfCUKGmcbLGbLfUiJmADSS/a6MlHjhz83gZc+irrIMUDVwAvAN40I8Sxvupz3+ZWIfeWNA5EnfedVtSJle6ytMHMDUvEdA9ShDHQMsQIGunX9eA55npc4RO9rOQWSORRkMQSWfOxCRhM03rWYjJXwMdJapgFnPeks1aUsuORTt9EXeYH8GR4HPGyr0sFk4jC3I+Cajcp7T3OOONrGxOpOf4tIlJnqMbBqFG4/Czp+KZzxKm2dPA7KHMNLF/L/hHAOwINWxd3h/Xv7s/5q9fiCbh5px5JxY6ftp3aWV4YfWa1Wn3eoVCA44Pk1E8LoaQCqCMzHwe/51yXD1/kred9lZAjrFKYzKjMadptkRPd7fwR+ZQlDbQk/YuMpnBlNFpbr3vE996Nnr3Me93XhMKCJ7AMfdXn/kiK63uTFNADxw7EfsOHk0m9pWu+bQBjGUb7avXxIoGloSJ+ZgZMDrgam5oi2WL2xHGhfjSV5+OtWsWx+qVS7OXzagK32fMKvEEskBwLSyX2kno9Zs8KcSSiz14tw8cKOD503x2GpqzXggi1yrlWAapQbI7tuiEBoFn2UlQ2MIwmGZQeuyEFh8dJdb1JHs7HRyOJ/++yCJsTDR4a22cOkBAAmN/oyUXcWdYpIshXIYSdjyPF5JIo3f+MGODLORdaEZwaEEpHyalxJj80Yyex4Jn9vv0mCvgajC70mqX3GOTzDVHzqRXOefP5EDMXjY5qipoLcGa2p52sX0kZxJSviulGdyhti4nYEvruZO++NWH49d/+/fi3Xdsjh9+z9uSMvjrzz4Yf/W5L8cgK2zWNbRGBUvsv3/4f/Kelfhf/+PPE+PQfsVeYFoANrxx36GuqN2/N/awSv32wspYv24Jw0h9aF9if3uJPoJG/ayw+JY7r6MfsRjGhdkhmPGxAnZcNya85iZ0poG5BuA8l6YOov02rl8Xq3HjO4tFie+6WMWaEkMRtFsBUKuJx++p477ET+NP8Fjt18gyt2fM1vHm7u4pxINfLcaxvUy0OIZpTpm9rJIxarmCsliOAWbPDCEcGprpB8GJp/cwqfsf2qKlgCBZhca5mT7fEjKbfzwpnjQbnXThDCrr7DCby9TWaKpTzhnQJuEjW1+dya5L1uDQjPfVurC9pbHCKaVxSyYRmxN66LWqBLl0ngvJYKBPfOaf4/c//Bfx3DPPxfCpQzHW2xXPvfJqPMieSAOA1xhv4w9aGGFxPPt3/+AP4zSW5m/+2v8SnfOuDIinBWCBdph1jNtbF8fCrfXxZvqiehdXLWkBfEww4GWlnpq2EafTrp17IC4bhqEdhwotaDe2XwFw2UdzORvLHWMclw0UkpmithrlfEfDWNx/C6s44N1Ui7kekXxhPOrhg4fj5WM8MzFBZnp77M/EFjJROi7EmmXNcfNGFpRj0kWerF+Z6KECTqX2NcU4/uJofPML9ocVNJjRWBV62al2MtM724px3ZrmqCsRqM8UyZoXaqMWITB6L2s+TQBxEkTUvYaZWJ1sjJZpJDyxlJV2hkicrZVADWRu6pG9Q16zq+c7Cd/sDbKwSYDgTCNfViFVISLLPm8CtflsBEcOyKdATov+ez21yZV770/+3T/Ff/2/PxJ7drzAWPVIvLBzH+DdjVWBtUWVi/g0ivC48c8eqygaGIX54z/5ODEOy+MX/s2P4d+Y/e1VpgVgzdjrNy2Jhfv/LlrrsS/nr4iXT9XHkZ6I011EGxXRjgyVVOirlkZq4s61OG+Gj6X5lUc73hJdbTdCQONI6VsCVCOqRgQvWnqI/sYwsyHcPM3vtgZWdsDkpL0Sk48gHJKzCs3YXMd2oKON0T9I8IAaGKBlGjoTDqJY8PAVHY0MbagtJifzwGR1eIs33M04JTYfLiaWd2UTMcx6J9/Xg7EGvrGYo4047xJ1q03lAuJjDKe9SP9vAc9RNvgwv6iwDOyeOZqP1i1dhFEzXpWp4XN+JEb38lWWpIOBGwpgpC5xw1gkgBNq8SYIUmcwpG+tr3HwcqAGrkEAG9zhUI3lZD6BK9MAL+3eH5/4+3+KQ3tQNIOnoQfCpzabq13G8SivForMsGLShiuvqkikbx0jCyWcdh/+k4/FPXfeEm+645Y0RDibbzEtAMuAdUzEZq0RRFNrFJjWt5h45fp59IOZ71pgJL9k5wdzowYi1bbArGrQYgd9iLYMkJC5iGkq85ZsMPqYxRqdO2gpftd6rOmKMEhKilYRnMY0y/mux9XeSmxxYwUA22QCGE2O7a72lqeSWZ3ugdGY2pgAZNbxJBEaasfito3DbH+KJiUAocSncWEhhk9yP1q2heOxLsoeoA/Onkilbp4/jEOqk3c6TDTYc0jlLt6Fsc9Sa0JpIq5l207Z+GiGak6RMgB7jVKTRhrHfF6tq+bbd1Rw6t93uM9pdqmNebn0rrBA2o1jvNvkcSIeRNYj73TSVEbWMFfkvYeJHPzU578Sz73wcgwzAynrq8N/aa621lxiJPi2EQ1s+CvdoOwtUsBSPTPkjhw6En/6/34qbmBcuBN/x2ymaQFYIo0gXYvr30GMQqZ22pG+C3lpPYyCMksAAZO3kbWfTCwmGUX2FC4AgqyhcC5RVtYn1OQ0lpZy6XvWYbe4+mQtknqERd11kOVmluaYplct4Fs4r5Z5x4AHk6yExh51LBKNniK0OFdGu8ok8Mq3J7RBsWYoFix5hsH6AzHc3RRjLvHSyYyTEwxRcU/tvJ4YONYRFaYzNi04gVCgz8105gqm/cDu1dE4RDhdgYneE1ComTjEVqD79x9Ifb0lhIK2sqZSxvBaBFmdeKHMpExonlDAt9d0Tp5JQTeSms8YNHL52DRE5HulGiuiBAHv5uvBFyMEQ4yyuko9Xui65ubUjUrXr9AbPrzt2fjSQ09E14njDH+xpxP9XAWLk/oVSPJpgbBdQ3d9K+RV8s24y0RpjIgsQO1SUl996LH4xiNPxrseeGsaJpyt15kegGF8J9LnDgjpo2NpbEyRyzHSuI8hptbW9mQipZU3RJB2FHnlV5OSO3E+oE1mi86dxNT81lNbEJQ4RgCrcdUNSMHEC5ShQ6yZEMv2FoDFvr9jALUE6Eep14hAplGRJSzpgjnteF7+0OzR2V/rUWaRgeOvMoy0KwZ6FmIm4Wk8SdTUseV4nhkS2zFAWaxE2NYbpaPd0XdyUUQXwKdOpUOLohnClrAwSo2Z9s0KpoKk0yxct2v3boYcDsVN110f84lOs23s+1mfFIF1VsmSlTLX/0oLCa7wKqHJ1FaamJmmhUacT01sPo9ps7GB/hg+cTJGFy+JRv0DQjwraNZf93k24Pvo330xXn75VQJQ6Ouy9lUNPOQSsUVj7XXKWXecj44aKJilmWu6uSDhAKutqKu0Bo+dOBV/9vFPxV2s3OGWo7OVpgVgZCpeZs0nZpiwANjOnXT26SdIwFo6+DLq0qXMpUx9TqQuU7Cee+6Z2HrLbbwXZhP3iSeJm1bloJUS+6vMZWw+emtVgWNlNDb/lHSpP+vN5M6WaqFvy6oJrb0wEEM+o2hk5xuD/agZycoHwqmcop6I9ES+xpN1GByaF48+857YTr9WpxPhKMzVVfuz9YmeZvI0VnC7Mde1Hg3T4DnKaSwPRwdOjbimED3L6aezgXiuha1vExrm2s2bYsO69QgAVqZE+DgbK+u/+5pqf2OkFWxyydWXcp+CcnmIrTaHiQloWrgAIZgtPaOVNAJgBXWRGWQCl0bA30CMPEIVFZc8u1fi9XuZp/7XmM4PP7mdbVO6km4pUm/ZpAHtmiwKuwS8gwAVqFLJWXK+j7H+9QyhlojQcnXNYXwz27bviOdfejXmz2P1GIc3ZyFN+yk6nsTDHjTMb/zn36KqmsL0hQD2B37offGBD/wAtPLls35OL1MC7S+ZT7MKeZZeT2EgkCxMANjv9aea2M0USgBHrZVLaY+NfxbMDTRSC5nammvTbKQRIrSKww7V0G+mxWvQ4JZF+DG/BfDrU3os0nZkEZMw0Ir1EMbn2qtz9pArcDXyWweWCraJ72beoYl3rOP5I41DcYT+c+tqpDJ5fbs8uaC5z6RF6KdjOXCUgZf3T+1AnWAM22ziffn9V8236IMeED5OPvccvo76WHzD9dHCzKMhzNLBo0eiEYHetGhJDHBMo0QN4/muYtlM16KhPYsllr62xWylLz70ePzT1x6P40eOpEkKTsbRcqhD0FgXtw6t8JFf3cpHLSyvSivrWUcfXqAP0rVLk2tKAywXNRDfevbFuOPmG+c+gIcY70E4pZfVRE67sMOYo2hkjNbkftfbCHX5rU7Kkma3n4xt87PQlcvZkiuJxqmRXB/a1SizNa/Gxw31WqMJbUq94Q1IxCb64bWYy2qzDLyOtWaewgR8Cq8F3JP5o4FdElYuIPgkiM0lj7W0HhoCQs9/1lQygtnQV9ZD3VOepnK0rIpYiIe9ma0n8+4EWbiHMiCwEWOulzxCW2mS5QyqZUIxpKsbvGk1FF5EwVzkXSEAnujhKMEDY2imUfY7tl/s3OASdBwALGpfNfTg8eMxsmIleyW1Jx6yNWYrae5+44mnY/++/Sw00EtXCYonzZrRbWSwn3fKaHSmuyPzqI1lWfhMn0srK1S6PY4rcRoTPQKtn3vhpejqOZ1GH1QGM52mpYFlvmFM1VyTqA1bcNLwXqnjXyx34c19Ofbs3JvCHxcuWhw9XUdgcsDHWIvK25bQeZVgY4G87PgvTyVtLIDth2SmZxbdoxdawaH56XMpLc3NtAFTkEQqRSGhxhNMlFsg8ANtlwqe0KJtHYW46y30YUvWJbtgHSYmf7/+XFZPtWca0+UZE8Gb32txxnCPjbmSyOnUL7dvZR9qjGVJHQ5zp4Yc1N6XWxl5GXP9myZPzsa+U8SQQ8Mi3QR3VkyARTPpBLJvKZhLrMzpkkJFgnrUvL0HD8ZIfz/to+/EOHruTzSa2bc+jVD5o0/+QzyI4+o0VgC1pduXOawUuCUi7VRIyeqDdzLHaqYMZJLUD+bbICOHCNXEdh81p/tYJvcVYh6e2/FKLKUfPBtzhacFYJt4hJUm0/gfDKk02r17VzIb1IoVxmiPHtwfxw4fYAeC3liyciV9hOHUGBIqrRBJ4wgaJVqGnddgwhVAk0FnlPWG9ejqxLJsczsE4fV9+/axYdhItCy9GQ3KNfqhrNkCMyVhyfhupu0rnHMChALmdclnI3zH5Ui6lNXltVyTf0+8ouU4VbL2grOljcXrGELrZXsVtXEFJ5upH0Y6dnwsWlqbU8y0feZ8gfyU4Sr448ywGt5jH8EPBmbAzUnajTmhAa2r8zCBd6Ah6ucviNbNW6JxwaJoAsAVvLzHXnwptVHztZuhzdQtfbmaQgH5MQI2PvmPX45D+w5iVpVofzZTp65aBUaSjTJqIuulPjoHDhv5kVkFc7LRKEfF0s5iFZ1sl+oOhQ2OtAzUxKFjp+Kxbz0X9zAmPKcB7Hirnt5VK1fFv/+Fn8+klkTkFVet6IxaPNCbblqXQOMau53LWCMaDWSf1rBKwZYNiqMjoV3aa3gcYIJT5i/S9+hjZtOTTz2ZnGUbNmxgw+jTOM12xp69+6O+pTNKdYuC5dHgnUw6Ct46+sVjDHOVxpCOCS+YOy11OJI0jl+fMg1opsvPQOnRlNyIZG9YxEQMmKOrq5v465NIawacsSAGBhoB9hDbdXQkia6QSmPHr6/mmV8Kt8tf0zPFX/RBD5PfNaEb29ujH41WZiE/HUBI8bQToSAuMUNNU9qdCWv5uBZWbatRe1wbGuB9Mnpf9MMv8obHcTIZLnmEOo9hJjcCWue0D0Mo7DW6OixOjzRPzlLMt1qcUzplkwda7zo8aTdPq04t7eL1i5YsZaXU4wng9VggfawJ9wiTIf7VgUNs3L4hA/9F1vNisk9LAwu4VSxYJ/JOsneMGnfhwvlp4r7jtW3zmEZXwVsLsV585RUAiwcXLdTavpC8LDsL+IEsALVvqBamUQCv/c4zGplz9Tg7Ntxwd+x+6ak4ePRkWuHCeweGWKpm1dZYunIDUwqZ1YK5nGY8YZaOUYBbupTSWLLb8pRxIhVj9fKWNDtqYuP4XE0+tftMpsyacHmWRrzzRLDhqRW0jpE7RGb/OJnTmAhqCXAN0yRF8LpqWd+kDV539sr9sK69aB8ddrV4ZeugV7bBnN0cXgKNpXYbxYR2Dej6DryzrKqigHKrUWEzSPeihIWF9JrRF9F0/uinPx+79hykPnjGgaHDkq4uaVfAvrsgdqlbHVh2dRwL9t3UuslvY/vzKcEvFYRQ8v0wkaER83mI+1322FGZfYeOxVPP7ohN69dEkww+g2laADZWeMvadoA5GvtPDMfiNLG5No39zkOTKIGXLGRRMF7eXdwkJu9Np781urvYuY5xWjgVZsRr7JANUVg1gLA47khQ0rlcjoBevGQFG2GvwKYZTg3tsqTEaQJYmhtO131vKCX0SNt4lCwL8KbhKbzQ9quWL2iKWzd3flszykgKlpFk7lGGlZzBlPdxleytfoLgDtom9aFpj2QNWAf+59o7r47XnIVln2uupL7jJ2LgVFeKtrPlBDCmT5pm6nupaSFAMq9zR5eReaiuqGWtqQLv0o8zaxCrqtkZWzPI7J958JtMxn+eZxHvC9g0mU0CVfN9FF4yaMMdQAydNMKqwUhCeEQ+K2BlpDhuhZJ+GM5JN8MpF6OFd7FPkhpdvu7q7okvfePR+J5/cS/+mew56WEz8GdaALYeRko5+UBuGyvX6QogfJL+LxPee9Euo0Qn1dAvbWM52cz0IMACk/sUfcHT/QRlsHuDZagtnTSQwKzUSw2qVrbBdNczfKPDSC8nyUZzDJoj9mOCX+TnBHhNm9R+CAz5SM3G0resx/zWrQtj/vhwBVlel1zephWt0E+d7cvnIHtdpsv843XPoO65t5JXI2nCpYMzT/V6I4LGpYlkqLmSeg7jmET4Gdw/ggNH0ApkJ5qkVSnVZpxR6LpNZ+9OTOtjXQC7jpGDBsJUF6XJLg1J+3rnzKQnGdr5KH3fV3btQeP3YPtp5aBJkzfVYCEsBJmG84OMZafADZb9rTgcSbVcz0slpICxH1xyuho0am5hcT66eYuXrYoXdzxHd60PhcJOInihH/3W8/E0M/Xuvfs2eHjaMDtvg1xSyTLUps2b48DRgdh9gCEDBPDJIUE4L17YY5SKwIRB+agRNT/cBG3DcsIVAa9gzT/ZuC06F/6UR71XVvV6Hf1l7zUl6CINNdXMUyqzWByzDFy+RzM6RWJBGKctLgC0Kxc3MU53bqY3SKSdRtaUFsTpIelpV/6P72hQgP6DuZYWrGYlFjSnAf2aym2L2MkAU3kMM7IJC8yVJ+tx0jmTrB4hWWa3wma6D41sZuasHs8rpGcyKQy7evri3ttviq3rViXBYqx9GsGgfhVHBBi/lehppVP66i6BrGZNC+/DcPma4nofjGuQJ+07t+Dnaae7qILayqZ+GJCUAk/CuXVoXhdhnOlUwCn0enHvq/DSrn7hp5qunhaQbsNEvZ2tT6+Qkp7JTL96Xuk7vqb2qe1rT5XOrZqmuqt6vtoC1RaYEy1QBfCcIEO1EtUWmF4LVAE8vXar3lVtgTnRApcXwPTBZi0lr+GsPS17kO+XnFzTeM9LuXeWX/NCHmd/W8+s35OT5yafP1d+75+cf3KZV+S3oXaT30++kwem4r+pzs/QC1we16YvtGNHxHPPRmzYKDkcYItYsyZi9y7GgXBP7+QbDyWzE9iu4PaIteuCwTNmCOABJMQuuZ5ffskAYsrYEEEIZrz6SjDIFqyMTjm7I1avZi5udzCFhN97I266KWLFcsreyf249jfybAbm49VXmWfIygg+/3KmEyeCzYqDJfmJysDBR5wv07F4Dz62AQ4kRvWDgWuevTZYSpPwOiKubqSeXjt+jFVKCPm0TRhqYN5lECid1XALbWDbzUFvc96EOlN6oUvuJBvi/VsYAmonCssIuS6m5TnMpcPMpMPMqaXeY/RZDmw96q4j1U8stHmdO97DFrLGCSxmFpNlzqizjWfF889DA9pevnFsXaBu2gw9WCJKfl29JpgoHOHcXoa7HM+Oxx7NaEjgDY3AijRtEXe9Kdh5L+M1ZmOl+9dCe3na4THaYCbTpQPYF/elH36YwWEIR+RVGv8hxjQ2bcqA5NiawJXJGeqB2hl4dwM8ppnF176SNZLMLPBl+lOnMmZ/FqFw4w0ED1PG177KeZ5lm+DuTyBXcEgQAfXIIzQ+3z6PCLEkJdchKC5XUgD5rpbt+0notesjlgJYhc8xAPrWe6kLIIVhEwMwPsqAY8TRo7wD73XHHTAHBD5y2MgWBMCejDkUejLJHE5OKtHLLRj9FpBHmGG0AAHbgcAUmILcbWAHib5qon3aYHKP/WRx8kRvjQsB7xH4XsvLUxh434xGnAms666LePLJYA0clMBKeA3eJZqMDb6g4/GIb22LePrpYE3gCIXrteT3PKGSxEhmiuLwoYzH1sMDCnbeAymGEG9mnvg1AJjvxKwzR9RLB3Bet1U0AuOB6SXYeiIxudpQRk4ROQCTqJsEcsbYkjZl3DCeoZEIBEia9a67ACXgFohq0HvenAFDzXfj1gjBTGxtAoiCQ4Fh49loSkEb1gZWKh49BkiORFxOAGse+Q6stBGERMYWNDEB/UE4Ybz4YgboXa8SZwrxrJ9ArgHoSmrCCJN1oDRXcyuZFWiCXw1gvf09hzWw2jUHmuATZIbJqjn9PoXQzYcezSugc40sKBUA/lYrq3mPIfAUApajVrcMtbIgnlEA28YCU75UgCpc5aU3wTdqZk3n9Rs5fgEgrka7InC9Tr0YBM543FDQVaugGcL56W+hgNDUxDskIc3iBoknmcBB1MiMpssDYM1DJZDmr9pGEB4HdAS3s4VhxOOPAWSOlUZqToGlmZwaBaCycVmSgMncIM/EpEYmtI3Jm5jKgENgDI0z/MZNWWOrfRN4MccVDqY0xYi8lzNpOq1eE3HzzZl1oMB6DoIria/nPQU48bXxLMJEwvt+glIz7QTAt545QK1ael8OcmF0Oes6A2UJOoGoBlbrOkYp0ASzmlcA+i2QBaLXBLzHAjQ3mS1H4Hqf19XMucnsuVkJWpFW8uqbURKC+ZvfhFacUyjvALhaU+vXZZYg0Vu8TCaoef/E64JXQazyUdtKy2UoLsMpzaOgRljNdLp0AFtx5vum/psmMMRKVoOMymTt1B/V9BRYy1dkTC5G7d/aSGogf6uhnng8awi1pn3dbyHZ1K72J17agbZD6tmHVBhYJvsOx7692TnLLyJI7IM+8QSggBj2mS9HEmAC0X6PXYFcg2r2Eo0UGxFGLhejJt68CYnNc5mBQ6hOJq3tw9vfFeiWZd0Et4C2rGSO826zQPBLaQ7BKeCMwLP/60dHlkAWkLlpnAcBCUrzN0M3jwWwSYD68XfeN7bvax9ak1yA2w+e0fTSixk/2fYKZgFq+2sJ7d+PaY0pfc89Gaj11UjrNWsz5ST4paMmt3TUItPfocV101YsyIez+9To8usMJmp+GZJgvf32rC9qH/GppwDmUiQR2gipnJwDOnZWrETbHs4cOEo6kQuB4777swZ8/rmsUb1mv9ZG1mGUmL+Da01IxQ2ZKW0DKjBuv4P+9M4MDLfckgHC/iiSPNatv/SX8zlqz+3PZHVy5oz9cAXF6jVZ/0iCKsiUvjJDA8f2lxQwgtQ20VlnH8n3PXI0E3SWLVMkIHPNcuYwiNWwAksTWC27iC6QQMy16Hq6MzqkBKbmslpX7ep1f3usCS3wBavnBKvfAtn8anjzzGjSmWhX6IYbsy7Zw1/JtKZ8fBDwroBPeY946KGE29SXlX9ZVSTxs7ylZWjXTudq6hcjCJgkkbS3dJT35YkZTpc/lFJNhURO/T4rL5Pm374QxCKIOWP07MqF/7Usy8i/Z5Ph8/fIn5/XOieSdTGPkjxPE+up9k7vzXXbSLPae3NmnVh+fv9FfqsNBZlAmJwEyuUKpVTbmtSqJn9PPE4nJ5zPh5sm5vFYoPrt9Yl5NL3zvHlZl/VbWll3Px4rVBWi0sLf6RsaMTEh+00+Nakmtu+e57NS0junue2uZWi5nsu7c5dQ+fOFUp4VwFm9WOtJk7WarpoWyPuharTJSQDnGnDytervudsCWjMKt6nSlLZKLhWnurF6fu61gJpwKmIL7qmuzb03qdbIFrgQmk0JYJnhbKZYtWnnZgsITjXvVCCVnjKE39V0dbSA3aHzpSkB7I1T9afOV2j1+uy2gKAUvGcznfOa5AK5KpTzFpnb32LvXPTMa4/b7dwpHyqYOFZ37juqV2ezBdS4ObHPp129bl6/7RPPuLd3NhviDfKsnJ4XKmindGJNbg+9gg4Z5J7Dyderv2e3BSS0n+maxdJRb2+VnrNLt6meplCVlhdLz/Nq4PyBPkCp4Hc1zZ0WmO5wSw7+ufMm1ZpMh5YXDOC8eafzkPze6vfcaoEqLecWPaZTm3M6saZTYPWeagtUW2D2WqAK4Nlr6+qTqi1w2VugCuDL3qTVAqstMHstUO0Dz15bX/YnXQ6HYrUffNnJMu0Cp0PPCwKwRHbcMB9GmnYNqzde1hbQk5wHcHh8ocmhI2lZpeeFttjs5MvpeTGjPecFsGOFc21Lj9lpzrn/FGmTfwzQcAzxfEnQGpTjfdU0t1ogp6XK0mWGLkQon7MPrKSelfmZc6sdr7raXCgoZZAqeOc+eXPcXUj35pwAvlzzR+d+k139NcxN4qmI7nnzVDXv1UFrQZyvL3auGk8J4LyfdK6bq9fmVgtIM4F6NmeI16rgnVv0Ol9tFLhTCeT83nMCOM9U/b46WkCQ5iCeXOOpzk/OV/09d1pA8Eq3c6WzOrGU4Oe7cXKhrnvkMqGrXK3vPMnOuQt5+5x5rAh4tmfpkHHdJNcVPp8poSfW8sznEqffqUmCn0tin+vaxDaz3XWiSJupVmWxvW136WO/+jhrTOns9PfEJE9YRk4X18yy/E4WjcvPTcyfH0t/15fWB+PnQuue3+/3GEvgyGvyWW6VTC7H0H6aLZU/6tairHXlVreey51IWZ7Mssl4lb2CyQBKyDNetjcAtrJ7V7u3Nb9TGdSBzUxTtSzHsmtZRtjP5UhnBfDFFGzDuCDZb//2b8dzrEz/cz/3c/G+970vFWEDuMrgJz/5ydQYAsxrEvnv/u7vWA9sd2KS7//+748VK1bECy+8wIqdB5Op54Lfn/vc51it9frYunVr8rB63xYW2f7GN74Rf/M3f5MYRib77u/+7vj6178e999/f7zlLW+5mOpX805qAWn293//97F37974oR/6odTeeRavvcxuBXv27Ek0OMGibrezmKE0+MIXvhBLliyJW2+9lfX8NyUam/ef//mfWXX1mkRfeeWll15iCe/tcdttt7GRxsb0fZR1mR9mY4AHHniA9davi49//OOJ3s+yDvj3fd/3sVzzm9IwZl6P831nK2aOJBA1NtYnkOVAO6MscOi5f7GgMiVAstF8hTWhHZAbGx1LIBOmI4CwgrAqso5ZTbkrBk4fji4W929p7YjWzrVRU8/qlKNMvlcpsU60gLWtSqxhXqBtCu3z0v0CegyAu2e2ez5bNwF9KemSAKyUlBi/93u/FzfccEP81E/9VPzu7/4uO53sjF/4hV9IElY73iRg3/3udydCK4GfeeaZJOW97gqHv/Irv8JC+E+zIuwTSZMK4BdZLF3QKwRskIUsnr2U1S6V6gLeZz7FCpjbtm2Lr371q6zJ/Xz82Z/9WZLuP/qjP5qY6VIa5zvpXtvxU5/6VOzbt491zlk1k/QKu2yoSVzy9Ud+5EdYDvvmJKx3scyqNFAL72cJVumntjSvtBfQHn/xi19MdFYwK4QVwApt85tP/tm8eTNr86+Pf/zHf4w/+ZM/ie/6ru+Kz3/+83H48OG0eqX5XQXze7/3e+Ptb3/7t2n4s9Ho8cefSPVUw7vO9MqV17COdecZsFbQlCOvvBTDTzyalv+tVEoxhuYF0lFg9ckKK4iW3V2B+iXAs9Jo3e1vigoLTR7e+Xh86hN/HYf27Ylbb7853v6ufxmLNt4TNTtfjuHf+KUos+JoGQFWWbI0CqyLXmAp4fr/8J+i5i1vRzPzXFau1KIYHnbhwQrHjbTV2d7iws5NC8BKUon8kY98JAHy/e9/f3zwgx9MmvPXf/3XE6D9rTZ+5zvfGT/xEz+RtKtMoJZWgmuimZTgq1m/2eVKf/iHfzjWrl2bNIBmmeDVLPNbaW05MoqNah0ErN9f+cpXkuaVwFoDX/7yl1mm90AVwBfGAymXgBRQP/iDP3im3RSaCtEvfelLrKB6ItFX01d6+C0g3UVBGqllZUwdZdJSOq5cuTK+9rWvpW7VXey6IeAVEIJbwe393mtZv/iLv8hWWbtYyfWhuIXlgX/yJ38yPvOZz4T3qa2XAawLXSt6FG1YRpMuZl8tBfvtt5dY6nYRz818BAspq8TuCeXhwSg01EV534EYa22PWurvqpJDrFnefuddMcz2N3VLADTTaItq4aHT8fQjX4e3DrKee0u8uOPVWLXisWhbtiWa0LxlFFOJd6th65yaBYtoT3T5judj6GN/Eo033x41rEFdLKD1aVc1/9AQy+rWjrF45fTN6WkBWMLuAYRK0nvvvTcefPDBJDUFpRJPQr6ZFe+V6krtv/3bv00SV4K4qdW73vUudjxZl4TA2972tmSWSXiX0FRaK9Xf+973JuLZt9ac00T+wAc+cIYlrYMMJzNYlmabmjovz/PVdOEtYPsLMC0g21HBaBuqCXOhaWmatQpOAWXAgeaq/VotIjWeALTPa2CJQl6wW9Y32flAAPoR2Obxuma2dJTOAtoypb/ae8eOHalsn6mQ/57v+Z70nKneyudUKgoHQEnf9DjrP19zzSr4Zzfv0JVAs4LN8BYuQzsiQMq7d0UNi7NXWKt8rOv5KGMJ1CCQCtRjDF6sAYBFDOohFvMfG8Ykrx2KurGhWNTaEPVsrTLKOtEjfT2Y22jTto6o8E41997FkrK1UTndHbWsHV52czS+K7Sl/+oauJbaNnuLUUzzWQewxLZf4sfKaBILVk2gD3/4w4loEjO/JtAlqAD1/F/8xV+k/pKmkqb0z/7sz56hidrVpTQ1nQSpH6W/hD1b0ry6gw3DLEfBoRQ3VQF8ttY69znbWPqoEU22obRQO+fJbovWkUJbwF3Lwvvyg+a2gPO6WlOA69iye6OZrJ9DGhkmqLaWF+wze79CW57w+YJUE9x+uP4OQW55d955Z1IOeT2m+i6hQbduvTkJBOvv+8h7Ptd6+gzPFzdsitb3fF8UyM8J+q70fRE2NewmUkdft1CsiyLaucD5Ouo6xJY5DU2Lo3PRsuisey4OvLoj1m/eEKvWXRfFOhynqzqi7qd/Psa+/MUo9LIpAQLE9dErHQui/qc/lLYdKtDfpTgtZ57pEtOuiZ0tNU0VppWmpYF9kuAUmJ/+9KdTY2mySui//Mu/TCauRHvHO96R+i8C9FW2/NTZZH/HfL//+7+fGlIn1WTHkyDWxPIZAthjCZAnJba/JYaS2/6UIFcL249zxwCJdamphMOhq49Nu/pY+FuiUy99Dk31NbGgrT7qL5Mn8VLreTnut63VloJKgOXJdpa2eZJeakNpaLvrdJReWl9qYS2nG29kxwOSIFV7K9wFai5ktcLU4n60mPSNSGO7QtLQ5/kM79HppQmtZWcdz5fMIl9YH3lHHhWwbQAzgYQ/JbRpcd78KN1+J/vxoV1LY9HewYZqEBe7I+r27I346tfT9lplLMnC2k2pr1zf0hpb3vqBWLF6ffScOBrti9fEki33RLnQGGMsAl/8l++Lmn/xL2kPQlx5TqFInxcgW2YBkz7nZ4VMvbshknzipaRpA9iHWiEltI0lsQSW++MIHoFl8vy32OPIvtRv/uZvxnve857UL7qHfWfUmJpLmkg50WUGzSydVZbnM2QipblJ4nhtDya8z1m7dm26X+lvHoFsfpnxUlKZ5758uDf+/Gt7orsfrbGgGUnLfj7DDDXg9Hj3zcvink2YR2+QZLvbfvYZ1Yi2u4wvADSTPTZ5XjNbukl7zWeT1+WD3LyWD/QsSy+BLR847OT9+bf0y8v122uPPfZY6i7pkVaQ+Puzn/1s0sQ/8zM/k7pk6YFT/LFMzfKnnnoy8aI8pHC4j+17FAJq4yF402PN6uPHTkQ/77D1lq305+ehOFmb6qMfi/pHvsXmGfUxsm9/xL/9aRgPfqqUo33RqmhfeE0sK9PnBXv2Zwt87O/ixI4TCJyeb349amnPIgBe/K73RKlzIVZ0HXm4B6XQwDF+7+wNxtt1itc57+lLArDmyYc+9KEk6WxoTelf/uVfTkSTSBJezfvnf/7n8WM/9mPJvPrYxz4WP/7jP54YQOZYs2ZNcnr9wR/8QQKdRJTYAlEJKgHsm5lkMkF/9913J++3Divz/tIv/VIiksB/kj1ftQo08y4lScjeweE4fnoQYqDNcYDUwRzYXHF6BCce599IyXaWFvfdd19yIkkHQaVg1EMsLUyeV+D6W80pEEzm1awWPGpMu0BaQhvYhVKHpt9eU7j6rBy43muZ8oKCXm1tfq016W2XSIEizRUE50s6r5YvX5EsP+uo46rAuGx7e7YdqvdrypbUunQBLFNAN8Av1mkMXju9+9VYUAvAWltiYOcr0YAwivnyExYhIDRfGcCOoHXr6omWEqx8RtHs3Q9+IY786R/H2PFT9K+bYt5NW6NpmfXmmQiPIij3vUoleJtPXR08dQlpWgC2wQXPr/7qryapbYWUvgI4HwP2JTWnHFpyaEdJbINKSBlCh5ZOKZlASavG/sM//MM0vui9mmbm91maYTKEQ016vCWofSMlsmBVeGiK/emf/mliOO/TBLuU5LhgI8Sp0QxCatL+6Vhp3sqPDjdae4MlwSqIHK4zSQeBJQ1s34lJ81maK1BN5vV+u04em9/jP/qjP0qAlSbmvZ+xekcUPvGJTyQHmWXLC2pZRySktZpbi00PtUneUeOr7RUK50oUhwXXjJMsC/6wLn76+vpRBL0IfL5P94DNNsZxW9hAsy315b3vyKEjcdKN8TDh6/vGohmQ9/afZHM6wIivxXIctx0dcQH9CkojEw48IQp1jdH9zLYoUuaaX/vfosQWu7143NMmeNynGa1Tq4bnDGHFFUGe99slu5R01mVlbVRN0HOZoWpYQaZEzRtJ88XzeXKIYXKDm18zS2I46J9H+mja5EyRSajXyvG3ZZuSxESzyww6W2QiJbpEloFkAIXExH5cXp+L+bYNnt97Iv7wc9uje7Aca5axPSit3d2PRi6PxA/evT7uveG1vuLFlD1Tea2zgtA2npxsH+kprc6WFJCH2KfZ9rUfnCeFskM/njfKzmc4Xm87S1vLNVmu9/sM+646orTAdGLZ5/W3dFewSuvHH388ObrkgdzaMp9Alw/0fptPgekzFCoCXytrqmTdRhK4MsFvPi2xp5/eHr/9W/8lXtjxQvSxFegw5W7ZfG0ymdeuXR0f+sV/Hy1YWU8/8kT0HdwfHX/zV7HqJBuN19RGT2MlFv2PD0f9tTdEU0sDo0x4zEcYH0awqz3BMQ4rdPNgf3ThwDr82X8gsKMuRlBwIwiLdf/m56L9TW9N5rTjy5rcZTBSy5BS3TysAvK2tChszv5WWpjy91Rp2gCeqsA30vme/uHYvvtIHO8ZjM62pqhVG0M8rZ4b1+KRbJtbm79dCoDfCHSbDGC15bGjJ3Cs/n9YAv8PjrejyXT2/Aa80B30eZsI2Pit3/nfAXBNvPr8SzHI+HDrX/9VLD3UHfX0eQc7G2PNH/9xNF5/A3u318cAmnzw6LGo6e9DnoNegNfYuSBOPfZo7PqvvxUd9z+QDRuhvd1LuvfJp2LVD/9otLJndNfjT0QdQq8NAdewblMQXRLNrbm1cHYKnA/A0zKhz/6oN9bZUfo4O491xxef2xstjN2tigX0k+qij/2B+/nUNNTHmze5cfUb673fKG+j1XaI8d3nnn0xTvcANn7rHa7BhqVbnI0opHP0TdWqnB+rY+QDIV0L7VvwczT2s11NHcEeqNjaNOKAA47uVC35hrpOxtiRQzFMH7njxhuiODoc13zoF+P4V74UJayTOqzPGqzG9f/uZ2MQh+vgxk3R+FP/LvqJt+4rjUYrdVmAIyvro0+/1asAPkvbaRUd6e6PVw53xwM3rIlrFjKhAjPOYYYS5szBE72xj88rbadi03JM62qaQy2QOd803/fs3sfe2wRkAKTUdcDE1hGV1KaqczyN2OXAVC8BqhZDIO+5CzN+bzRzbuG6VSme2ezJ+sIkH1uwKI5j2g50zIvFb7k3mulPn/r0J6MOTbzsnd8VL//ar0UPvoONv/mfCb9sisXf/wMxsuKaOEBXZBRhMWo4Jd0U+8VOoKhUMgdaXp+L+a4C+Cyt1Tc4EodO9saC5oZYu4gBemzmBhwOBrOXkdDLO1tjkL7Wq0e6ADehhDi7qmmutIBOq2z4cghLCbcTABmflZTAC3zBsOa2zifhbL87eZO4cf66tTF8zdL4yoNfYmy4I97/vvdncdHkNZ+auDzMFiiax0xoGOnrjRJe5jVo11P0f2vndcbaX/wP0b93XzRtuT7qF86Pxs3XRwN1cKKG3VnrowNr2OguzQHKnm6aNuell/bRvLSOpNwZNbEi+XifjggdEuadOLxjI3qvjo/cSeX9ntcR47f5c8eY92sKmXTWeF/+246++TznfR7nZeZOrnTjef54bz8N2zc0EivntzKERAAHz/XZ/E/Pq4OI7U0N0X1yGC3dFTeuPrdn9KyPlImos7NcKvaXEAya5Q5JXOkkTXxf29Lvyck2yumpg2liHs9LE2k+OXlNmni/H4/Nm5fnPZ5Te/rt77xsaTiR57wvp/3rnyMkmRyEZtNTbH+XB/B5LZehFQnFXHK4sFJhWGv8ss+oGJQBTYpqR+pSQItaR4eOLG/3nt3JCWs9BV8/IJaGi777+6L70Yei494HYn5bawwzIafjplvPPNgyJK/VSe+SqmHF/OQ1OJP9gg6+vZUv4DYrohfSMTulinGueiRzgq9duzZ5DZ24oLdZr6SeTIcFPJYYehkdotDjmHspJZrHEs7xPwnusdE4ep1lFj2RekYdU3QMUo+pM5fs7FsH46Ide7Z8PZ96L62rEUQKGcs7V7LvO4ibv5X+bpPDSGkckeYdB7BtrQeyrak+mslzpKc/rqssTCDPy7V9gr6SQfDp48yTIcY/B4dgCHYHRDNUOFdBi3u97Hm82zU8r7icKLKVi6N28fw0jjg9suY1ufhv46AdphPE0lZvvnSQBl7TEy2N9Frn4/iek5mNzrLtpYu0MNTSUFeHHHMvtyMTClcFsLQxMs9jPdjSx2sOGckLa9asSSMKtqfBIwaOeN66GWbpvfLc61MWEOI9jrkaTCG9EmjJ+BodaVlxA2BHcUwOFqAJ9yTaQWsBlsAsLUl+CV6FxrXXbk7n5A0e4AUlAfHOER1vvjf6XtieQjQ7t94aBRSQyeGjsgKbcrMHy0eY9gqYaYLXcs/NzeY4S7IRDOIw7M3phDa6LytYBZlAVYNKNDWos4MW4HEzPtaU55WwRuz422ANweXQkMcOP1iWIJSJZBJ/SzAB6RQ3iSlRfZaRXdbJ8jznt/W0wWUO77EOxtROlSRS7+BoHKb/24o2rKV8acP0zfTB5RCQAIYuxQjv3NFczzsPxPFXDuCQwAkiMDG/K2jwitJbgJKPF+TjU2UGPtTLZP08LtAvGuvqjdHu01F+7tWUv8KQRf2qJdGw4ZqoX7sqios6Z1Q7CwqFqePrCkHbWSFpdJZCUzooJP1IG9vU+ktr21WBK6A9li6GQwoGY6Olqx+HgCzXY+kiPc3jMx1KysefM82WtY/5rJv3OCXR8hUwKgE/UyXNY7s81sVAnAQ2Mvu85DgSOJKBdzh1sisaGTcuYln5vKS1x/Om/GT0XesSGKVhliqUMcx79h9h+iXlCuABhTE4KBLwUX8agcNQVF5ey9o1UUu/2Ywa7/JWjcx1CWlaAPalBJ8EdszVQXdBKIDUhh4LbCWxs5KcSSSxzJeP4zrDSKCZJJDJciWUgLUsk5pXiSwAldRONfPYMWjLzCW8cbRKfBlGIWBey/JbLS1h8sCAVPBZ/gxgOm3bczS+8cL+uHPd0uhsaYwS71KAAQpo1HIKn0My04cx9aJVB3sHovfwsWgfZVnXxBPpD1chEZ2tHKRMa0nn/Pu6JP34KI0rvE+hHc/2go4o4zkd3v5KDH/rpWi8+6Zoffdbo5YAhZlKak81rNpWgFhv6SFt1Jq2o0IxF6jSxfZVkObdolyzCprcXLa+Wkze63nLsVxplwNefhG0+fi15fl8eclyfJZJi84yzKsG9vlTJTUuj8kSQEtdTX5RrHBMIMrkKYKX6K06gypqcFSirUe5zzr6sW4WU0CFgm9+2y4oBqyv0089HruYCz9IYIjhlHZwCwjxhuu2JGFcYtphw9prkN08D8uuubMjNv6X/zOKRIUZllkjkKmQdZpumroFzlGiDzUe2QY0QF0CCVY1sKDcg9tcaWtjuyKDDOBH4BllY1icH80iiSXALNN7NM8UDub1fgktsZTOEtB8SmGJ7/M9tpEFrQ2em2Ge814FhswjI6hZzpUk7PzmxrhhxYJoY+ioB22jg2qE/o3fTc5OAYmGzTUwlKBDo598dacw0ZDiZ+gg50BgiaxpTMUyzpni4T7Xvm+BZxfaGdSnTWowoQsQefQA0j0VLBvNXDLAwrZSwxoQY/vZXrarwk/ha/vmFpDWlXkUmtLQPApTTWfpIn3kB5MC2TzOWJKm5hXImujykfnUppblscJbenmPoM4DfKxL/nx5TPo6NdHv15JCM2synUW2fa4BUx6aUU3J3+yn17nBMqy3904Er+9o++vy8ljwpru5fWjf/hRxVQ8PYh/TFYLWALVAG86/6YYYpm6dN1xHcAgTPuCVsf0HVNEx1sy8YDSv8dMlTW/K8rnTSdMCcPYCmeljw9uIJkGsJJcRlMyawhLNEDlNMfssmsISQSKuXbv2DLhkCKW7ZrYAlrAyg4QWuF7zPgHq9dxs99vzOdFtZCW3jCAhlNbWw+Ncq6fKnuVPLY26uK0x6qIzWprqmFZWE82N2U72Oq40qUs0unXXBGoGvFFiWEHiUB4WUXJGFRicL65YHDU4ukpHTqT8Y0cJSYQpM9Yy44SUiAcjqX2XLsQUZ0I6pliZ51EBMpphmhSe8JjzHWrpaApLQ5Mg1MKSToJHv0KuZW1PaaHQlfHlA01h297fCs1cc0qfXBjn1pbnzCe9FBom6STdBJPlSXsVgvfIU9ZHwS6/+Rzzy2cTAWy9TOAi0Tz9rEAZf6d/Xs3yeGTyVwLQmXsy7WsdUp/VDBQ0SuxyLTGQ6W4LRrOPUv8O2kCHVW09FlvTSDTj5xkm2GMUvhjoI3zz1MloWrQ4SrxLNi84s8wUMIXx+lqP6aRpAdhGkkASW+kq4SWIZq3gstHt0zzyyCNx0003JS0p8dWeSlmTjZPf47EAtR+r1FXy+wylsGavMbVr1qxJ98tAanzB6H0KBiW/DCIz+JExFAA+TyLLAObXbD9XjLQe544aJnEP9kZbIYu8qhkdpP9bg0+K4HWkbFNtvbRMhGvioAkBYYhcIgTPKy5gkT6cUOVTdCWoX+1SNCn/KkyMKB3DE59QPolUcJsezrFu+u1onEIdGg0hUJjPWkpIbN9jpuFrWwoGgarQtf1tK0EqPaWtgPRYmuTWjGa3v21/LakcUIJNkFmOQlQB7XvkdJFPdGx6XZ6QjwSmTjBprJA0eY80Fcx+m+QLP9bN6xMTxaWUtC9Hdnd8hudfa8XJ98hrjnowzQ+BKdCTkKbs8eIoKbtH+nkEq0QL0VkthGSOgoUaVtooMs20dulyvNfUs5ZwSqYlDhF/XUe7De7ck6KvapxUAbCtkxac2v9S0rQA7AMF8Jo1a9I0QD3LOi3sOymxlZb2jwWeHwkiMAVWniS4xJYAEjeXtDkzCG6vKV31gOo08X6JLOEkqM83qQV8hnn95JaAGl9t4lRFn28drdvEeqQC8j8Sursnytu2YwI3Ja3aWxqNl/tZn2uYPuloKTZR5/ZSJa5rn5+GG3RSjVHPaGlP0rUMUIn0iDJ94zJghOsALdeTswJ2kCPMnyd/y11e0AmG46OCpKerleaTykIFpP5kRs1vv1zfAsp2FnS2pUnhKB2koTOMpJkmrSCzXXVu2da2pwJaYSlYZX61ak5Lf5vHc9LZd7Ec6ZZ3rwSzz1IICHKVgvfkfGD9PFYQy3uWpYWWAz1vh7ydBIiAz8CbAT/lsV0nHqQfDluW0qdDCwuUWm52v7/p8/JxETxJqVAoDQ9E0+pVcd3v/Fr0n3g59h44FnAgEySYZ8zjhvBsz5tHjEBtORqLODxRUKMNK+EFFY3zB7Q+oHlWmbz6F/192WKhJYgfwXW2JFPYuDLB5GQjqwEmXve36Wz5bVifJSi9ZyKxJLr3+jwJ7rWcqJOfO/m3WrDvBPNfDx2NThhTah3BZNt+YH8sWLooWtE0+2Hqegh8MwultaEph073xdDBY9E4SP1dZZBreqChXBQwoVOinOT5pE88drI7aeO8TmrupJ1PdcdYL+CF8LwAppugJnFv462bo+Udd6Vhpezk2f/6rgo222ZyUrDlYJh8Lf/t/aa8bpN/5/lygEubPG9Ov4mAys+Zx2Ov5deloZ+cvvn1/Fz+23vzZ1gfP3kZHufXrJu/h3AsmrQYdrzwShIoLzz/Ynz0ox+Jo8eOpHr4zI0bNiM8ED6svPFj//pH4NumNMtoyQoipJis8sjDD8FfDcyoe08sWrg4mppbU31rmxqj96nH4sgf/XEMdfdF/aLmaHzbdfEKkXlj5SJWSms0stxOf98Qcc6s4oHOKjBEtRR+PP6FZ2IMn8iiG7fE8l/6T3S9GgjPxbei72MKICuobIup0msqcaocF3g+135TZRdYUyWJMPl6Ttiz3SMBZcY8ef/E/B7nvycSOM8/5TeNWNPKePNatHQjBN13KBYxLPRdW4igQROPHjoe13YuiXI/k9MPo2U72qJ29bKoQdvWVDC1MZ3TTAe0cAKgeKDMYgfLC6WxYGKomXlSHiAAQIoB0sSUZuN3qquEVMx7nZvV3gU8o7Aqv2c2TW6ryb/zp0+mlefz9s7zTD43+Z6JYDZvfj0HZ/57Ynln2mj85Nnqp8NKIZBajz8KVP7Tfrk2VjOrMBAgfCrFcSJxR1t7K6usuKBEJ9NWfyh1vdTMronlnOH29mypoRJj/w2k59AbAABAAElEQVQvsibcvoNxkLDI/s98LeY9cG+0o3H7HvrH6O86nWhpzPwY9+k1282iEHWMSqycxxI7TGGkEtlbXCJZp0bVxJb7TjpWytO4o/sPx8lPfh7woAGJqqkgeV2OdPj5V6N8oou+zsIE9IoLlmWKKzmpKv1oYoI8MmbDDINAZYM2BDWOKRnM/IVcw3Kcg1iuyyKxMqtCEDvWWJEDL5HQ30kkVPYVURj2MSuoQE35VvrZWiZjaMJaLLeFhDi6AoeCpx4t6D2jDAW6IIDL3XhPbqqrqcF6oh3iNNGiBotmmD7zif4TUdmyKepPHYuj+3ZFB+P1PXt3EmI5GIu/+7ti5V332DlK5Ctiejd/9kGklVYoZjmC+VJTFcBna0GoWcuYXfsdNyRTvKa1hZUasnC5As6O4krmy2JSjyGxXQspaVIBivmWcNbF8ImmNLHUNXqROWnElQukwVp8PDGuU+UHnpfNSoHhHDtGaKRyBPq42Tl+5my1rZ77thbAIqOvWUy+g5rYuHl9fPDH/3U8u/1pZidtj2VLid6jH33j1jfF+g0b8Yssi2605ilmGKVItB3P0QdnFhrj7pqv72SCwhImOTSysN18gJ3o5zMRrq6n1bZufVTIP3j4SCxgOmGRec+jBPi033V3bPx5FrRTOvApYsV1bXs+8QsMwP9E5W+r/cWcqAJ4cmtBkDKe31i4KJre+eYY5bgfc3kIZjAUso5lQjXvJGwdBK5fNI9+Ld5WtGzpOMNVDtvrxUC6FnppXsEpsdI35p39Y7U8n+QYSbQlr/kdZ0b6I5uTdNYUTMBXUl86rSe/6Rvyt1jRRHbSvp5lp4DWQa9OFq3b/sy36BsfANg1OOxeTAC/Bk97F843ATV/wfzkHPv85z+LM7SYRje2b382munX/gA7iiTPtuaT9BxPZTzMjTjjBvCdFFhGZxS+qMWULhw/mSbuj7H2tMRz+Cj0dGs6c2gxanv6XAnfeXkX+10F8KQWG0GTdu1kOZ9jp6OeiKimZYuifePqaCekUQyl/hNEGIMCrjjYdQriA94GLo6NEUIJYYo6z/intzLNYNJczjjLAugvZ84X2UA9LHErmlWY44M4v14Y7YnnD+6JxXXN8aa2ZUFox6RaVn9O1QJuXTLCbKFBFmMw5NU0SlijQnfp0mVpAbvFjMnu3r0rFi5YCMBxNGEOtzAlsJ9VNZqwmlpaWvGxGOW3IN2nOe7MIfvN0iyRA5IUKL8GS6wIEEs9jAOjYQeOH43W5Svj1Cu7E1gNp3XihALfSTF5St0mmeUSUxXAExpwFOIfGq2JPY2dsYEx2IY61qjuHiCoin4SRMSapS9E2B+eYqccnugfiqN4H+cz8fsmHBbFYQhEpgLXJXUiF6ZcRvBMi6aoILS8gK7hWooxgI7SUqfKMKA/Sd9qb38P5jdmOBokeWEmEH9ClauHE1pAx2FaUkcBSTfEthZ4hxjievrpp2I+q0OOXMMkfSykG2+4lbHsTQB5D/3j9uhk0bqdu3bG7l17WPmScN2u7rQCx/33vROPNetTEy47uJkx+QzCCGfCTBl1aNpybZSMf0br1ra1xBAjCQtuuS0aKKfGURK0bgkn2Ch5anVeZVyR6qbVpQiX9tMlbxXAExjACfv6Bg8wPLByAfvq4LxyGZ06zhv6lvqqEKCeWS52bRcB1loG7WsZAhK4zjKyX6TTKXlIldJp1QXp5o/xD3mdV1xT8GkZERMVYaxWutRvbV8et920IEYIBqlnOEJtbj+7ms7dAraQ3Q5b3f6qQ5qugXXowJH40hcfJMgIhxNo0XTdwDDSw998LHVVlrJ9SmfH/Hj15V3xl5/4S8aq+1I59qFvuvFWhpS2MTzUELfceguUgKLQsQuNuvI3fiNuYPK/gT5uaibNdXQaCrv5J34yTh/czy4PdLMAbr08hDBJQt3XoLJq9DpCcmWL6aYqgCe0nGBdTCzyQsIpTw8MxzIm7guvrK+aAVjNqvQ1hvXgqd44euhkbHXG2BKipmQeAJ3m90pq+8LMNIK8ScWqIcRsEhMMV5Qhnp7IGs5XIGYBD2mxhymUjC03KxAYo6w0EqYJgfWeMng2obbVw8ktkAMhBUiMt/kYbeuMnzr7wnxK+iAEDB890A5b6dA6daoreakNlfRc6p9CZyc6WJTgNJQ2YY0ymX8XLUTdteIrKWKCc4pMPCsrOoY5N3jyOPnTHeNleDVLCuUk5PMT0/yuAnhSwzUCqiXz2lJo5BDgIwCWAI5sWEiw2a8dBkwDaNseQN4H4erXMLGj2WVzx4mTqMkFviuY5U5KSODGdE59H/tSHEPv7LfHixnSgNYOGzmWXBHgSnOfydjxZXBYTnrTN95PASEox9CGOrBcTsehIwWwnzx5SMum9vdYT3KJIaTkWKT9kya1wdN/f2d3JkuIH+kn3STN9VHuTWGweJ21wIrwSi1RV8nykh/oFycHFoAfI3+aZlrKFi7QasvLzut2sd9VAE9qMacPCkwJ2oFnqhVb2bm/SnUnNCjNGwFXCaC3Q6w+JG2JOZ/ubJdLfvs0r6XxHxPOZYxAjnEAO60s/chYIzGSfS3L0fNZY/8bxqym87dA1tVR7tLXNSKN9suG6ARLhkRJkVbikAApJYpwxG+ymC/L6UUoMZ5NoCuIK0RYtd2xMRro79SPdSXBO1YgkIcJMKUS+4Cd3MswEutC734qOhp3s6cSZjKx0d0HTkZlGZNiVi5nSxdjuxE4BRye4woiVeUi/1QBPKHBXI3jKJP53ZHhDuYDNzPA7zxRJzkk8wnCpuB4iOpQRAueyjLXDvSPxNrlTmuU0jlTZIcJiONgzJkisYu8krL6K8tlVfJzHqfS4B5jcP1U07lbIAeavgxDVI07rmFyipNKpJstmuhnRj5q3EwFqmXRmdyn+TyO8+xhiSDZ8j+1CGuJUoAnGjpZn5r+0FiJ4By2By028SxDIwHlWNceeIaZZ5Q/MHA6DWUVaoitp6wGumgVZrj19HRHmfzlEjs20k+ebqoCeELLOe93ANPIOcHJtZTROTm2EswSZRXRGd0F9xAm9t6ugbgHLVkHqJO49r4Ev/HCZRRvmnhuwnO9mpL5Xvtx5pThlFUNPN5G5/lKZjBWkgEw9kgVfG1M0+xkEXVnpRWLaGWAVM960PUMIS1lq1G90M7zRX4ns3iQUFdDJx16GmFq51BxJJaTZx5lWF6Zcf/Dn340WlbcHMUl2QLveDLQpmj7MoAuE+TDZIdjDz4VpcVMrWzFUuvqCdxqUXzwlVhw2w3R/gMNcZwQXIerrHNuHZzn9b7t8mWbzPBtJV+FJ4YB8N5jPXHkVF8sn8dYoBoYUDpPOE39AkhirES+Ifoz/RB3L8NIJU7ef9NqAtfPoyUF52tqOLXQ64Cet1meb8J3InB+b55v0reMcCmTGSYVd9X91APdx/ivYDx5/GAM9x2IjqbhaKwbY/x3IE6dZpO8Lobtx6dlO7NJUPYyB1nZ3EuM+26mAA4MjKShpiIachGbhDc2NMWa1dfElus2Yw4TYrlnJwu2P5nmgReSFxm+wPoyPFbtbP/XBQvHBil3hFEEzmek1BfCLCwWa5j31vuYXHEMIcIiFmu3JM1/tgaftckMZ3v41XZOsM5jIL+7ly0nAYMMoYmcllFJ5rFSXc8kH0wy/FMsfMfid5hE7kZ33jQRgOPHE3tbZ+7P803+PpOhenC2FkhCDtqU+/bHwsquKDYDIFacjFH8Fv8/e+8BJFl21nt+6bO891Xd1b6nu8cbmZFDQg4jBPviAY8IePCAXWDZwAQ2MBELBIELiMBFLCzm4ZYHCCQeRkLIIGnEaEZje6Z9taku701WZlW6/f2/m7cqu7uqnXpaPbw83Vl5895zj/nO5893zkHF7WlO2ZHd2KkR7eAhdZoNBfOzeLS0d3TSYt319s5Dj/GIBS279jC/y7nCBOpEWKkkD3ZmZpTwWSQxwT2N7+C4FAJvVE4OL3ZdTzsHGNbZzIsc/Ib/pKmvBynMjqusWMPWsgwnPiSJKyhusHlBkYPBj3/SBna1WqJjHw42kfftpZoKXQU3eSobWYjQKoATXSVHRx2wZemmqzgiXvdCozavb8Dtc3g74bS7UK9kd9XSlxcCropuXLTo8gnLnBlnQQHLMyX9NG8P4UnMRhsS1rS70wqxFKcJIhEVdKONCLWYv4EQWVTfGJpXnnXZeZyZinWX2hw6xUq5LJ5kJDQe7jjvyMlYyCySH7qEyEsbS1bEeZZbhPmzFLCEilzkegObF2oGg8AZ3Se4I7HBNCXa3E2w/h0BWyPgq0Cjva+6cFAUWZCg4x9FsL7uWHaobByIWupWHsSIoi4NcmpDP0EftXQPQAD7sy7GfG6JDd17UY/bB4LVXJg6cTSr4gqHfsN8pSwl45w8eHrO5v/kXzh9kJ1Q0L5K2gmFjRwizCpo/h492jvljIGrKDMNoawEDUzErClCJVed8TS7E4N7CxCxppdi0gD4raNWFpneknQGqRRcYHOEX3a8533W971HCP64gfnltVz7p0bA18LE6piH1XEqOg84iY2jAVRSGKWuWlnE0M+VvNaaB6ylewMCcvRlT4za0sc/z/lEnC74FRxINtRl83/5GUvv7WOjBhYYYN/WH91lZU7cqN/da1p+svHSqAbX8sS8p7pxVMGgSxyKVuZ4FSdkKVcQdPKBg5ZnZVoGwmtpZ23w2UtWmEWyQpCxtmZLDLP1Mbt0rJxlT3OIVjMXZZafYpJb8Y2PWh1HsqxduGRFFshE+1nR9soZizzCyrUKft0OFGsEfBXUpEanUYWqU+gh1ICESbZrimmKFMReS/cIBLBtdc5Qy9e+wdaeO2Mb4wuWG+EkQcYpd27SUof6LUHAzNrz56ztoT0sRECFPdBlkZcvsdSTbYfZlzuOYyvPnmt4wyxKfLOIL3A8Rmxjes7YcwgbuJf14mOBJO1kn2dwpsQnx/7QRbYUSrCfWZlrhWKWeS4VucyWQVmOW0nvHrD1Fexq3i9iE6cO70ca374SXSPgewT3as24ExBgF1H27lr6n39thWXUZWxbBcFIuiY53zkPQa+dgPCYGMyzECWJxzpBuGyuQqTxPvZoU/w7fpCSAi2IcS8rzl3eSiR1vIvzBDvYZlfn+qIKl7XE9PIEEViVHVZgFARV+xRWur/PNi6NYeuizvN6hPK046h2LE31dFl+ZtZSw4PW9Pa3oX7fPhne/pt3At61MmoQuMMQiHDMTbnAbin1bMDAmc5appm9PMP2vguWYGujOIEU8d42mz03bnWsGVbEnUJXReTlHnYTxSkZ79+tCWEr1k2hFrP32bveYXN/+v/5nmXRITamwwmVPnaU2HUcYBB86we+2hY/9GHLvnTColrUMLSLHQHnvL62b/8WyyONF/7H31lUDrEmdvfAcZbcM2y9/+WbLK7TSqSz32aqEfBtAq722r0JgQgrkFo/+J9t/fhzOJ2WLNaH8+rJB9xJtH5uCsm6gdo6YG2EPaI12+JTJ9hhZQCJSqhsLxIYwmUJE5IWact3aXnFsiMjFkFtTnQQ3KF5X/ZCkxdZTi1J2NyZcz7laKwZjyKlRVRFJHF5ds6PXimyNDHK8ThxrS9mSqpu6AFre997rJ6teL4U9VkjsGMghzyv2heoll4/ENC8tfZLvt1dKV8/Pb3ZluIhJnBCNqyUYMVE60fZd8LgEudRkeWaHtmhDArEkQSVl1hqrZxLSGRfXcbviJ57GXrEjASS08++Usy18kuSQjfuvZa/RF5snnk+1G0Ph6WMmHY8vUmpe1uBHKowWFdJp2rpdQMBectDj/nVjQ6fhQ65q5//x/wNwUaDJZjVSqpPE1U6HG+5d4VUOGbXG5sd3V8ehQRHr6XXDwSuN2bXe/b66eH/Wi29mTHbkYBF/VLHaun1AQENtvZd0vd2Sfe1IftOEnq7d2r3vrwQuBn625GA1XTZUtvZU1/ebtVqvxoCIkqNU3hiwtXPw996rnw1Ig4hcu9+a1HKjcZTrb+hF1pn3Yh76+SFcNf8e7fb/+u1TFI3JN4bEaaei6vruzae9yauiNZ2ckRu1+JtvdDbZsSxFe4hVCPk7SB0d+9poPURAd+IcLdrmZxZtfHcDjJfnnu3O543lMBhd4QkNRsqhMa98327XmWNZ808unfGUS25nbG8aQIOu3o7lYTv1r7vLQjUxvLeGo/bac11nVi3U2DtnRoEahC4exCoEfDdg3WtphoE7jgEagR8x0FaK7AGgbsHgRoB3z1Y12qqQeCOQ6BGwHccpLUCaxC4exC4aS+0dqCQ13LTc6nVG9ekbW9ek+tevhH2oDr4fau929/del65usls17z3er8RAu/13g+1/8s2hto4cedFKVeD9qYIWKevZYucBZRbsVyBfXfD/nknKz3lK7iq/L66Jm6zab0nfekTnBnDNQVGdxp8f6fyYvD6FX+1U6Te32xT5UL3tT+wJ77KO1QgxrR5bo7eBXhqnJ/Zy5IxAbM6be4AGublYYmbYS5/ruVoJL/rl0E7NPeqJumjfH43eOT5v+Q/FFxdXFB1pS3+FVxfXQ/dDPpd/UAFXVFYyMB1u/Lgijx6HhbAMrvN6/De6+fbx1BjtTmqN9l24YpAvA2YfTe1yvNtHvtLgmtdIm3tDa1Wn9BRPQTp3KDq6xKwCiyxq94JjooYWbxsa3n2S6ZIhscHV891fIVSmV5HIXTd2zZxu6jTuyqpWpqLthI7jTivbFemOiYAC/dUqn7rFD9PAKpUZgdAx0zaxMOo1oBWNIjqSDIRLyQcvKf3dVnBRO39XAiB6GVSm1dMXytIL6L0PaK9NUFb/BlErGdB/qBhGkS1UUUoqd/a5fK1TEHpagu17FCXN9NhtdUSf68qv8ZLcNPGcSGYN7UxvaZ9ncLxrcA5zLdV6uvkSp1nhw5FR+0Es62eOGD9p4NQeLFNql5oIrzVdrfbJdFQY6reDnfttSPd+z1azvFou8zcu24opXZh/OL0q3ZpaTwgzgpiawRDogqJ4WYIuBAOsCquGmSRfWyHjqvdVyCKblRSADqIiQs23+ecGZgJ1zqKJOKhhsT9QuJqo6SkHqoLwcJuvrlT3Y4SOLjBVrHFWCDVVZbOs1FyQtW2KwG2Uz43RaSqgbp03KRSBEYUMAV+8Kq0AOGBkudVfspQ3RxZZlvkEDz1fDwXPwty6c7NJbVNn2CYVIOS7lV/+82r/oR5qm+H94L+C2bh2UEB5KrzckcEDNyVO4CxQ/fKTK+TX85UHX803jdqdGXcNV7snXUVH9x8+QoCrozT5sOrLoQfEgoHOnbbW4Yf4dAANsdzyF6VkZ87SmAR6NmFi3YR4o1XpOy1r9+hO45xN4TUNZU5snA3xXYozZxXk+KE9WiBjcwswX5FLL6IsZFYlKMtiizazjVB6EDZkYxv/adeRzbeEOKvNyZs9r4uW+2qhxylUXCkiiQyyQmDCnUos+qlmOAoUP/FHcZRMHMkDzUR3aZOSXidaqe6grMdyMwzcVsxL5XnSFNpj2q4sfKkVl2ZxGuEcPrcWgrgUP1OyDTV7yDR+Fq6BgLiW34OE8z8anPrmsw3eUN4F43E7MzcBY6GabRH+o86/m33+rYELJTLFLJ2bukyWlEFg7d7+4b3GHwRimQNTEBblRB+zw19hMpfAlLwalkbrdOGMhKzjuMcO7KnUTk4BX29l/NwujgW5bLlyhfJs8/qsm2WWGI9bHu9RZsb2LyswMZnbHrGgdwlndsKpS7D9ZbWdJB2oI6zupbCg066Gh4SIzdL1O12Nc8FbJ2f5J31FrHlLFucdqSa2KKWk+ck2nlHBBtKXOUW8SqJSAqlgi2sLfFZ9v5EqDBgFZ7l5v6I2MQoNnNLiobEGX6HknUzU4WRbb219SS80jsaS+W5Mp8zJbDYfQZh9v/A32LQSmVMy2JpwyanOEp0o2zdXWxZG2NT+IrG5nAqfym0I4skaiemR5DEw9YIHm0nhbclYLVxIbdkWR2d+CURMD0F0XMqiyM7G9mdPsGeQWUQ2h1MIS5scnmHzc39EeGoeD456phn+6Hk+j4bbuOYTzYe08FUpXITO+Oz632JzcQ60hZvgVCSqMjsx8vrlqXeCMddxGhTHpt5qbDKWcCSopSsHfWvSuKMGhPntCFtqwF8JEuDBKGQqZlzcva391lTglMeCqqNbUnJk4KEQ6lbecGflRiJsUyDvTqxbsslju/wFm7luJkrB6cT2bVEGr4fmgzhb32rXwFxVt+tvg4IOJDKwABGdztDVl3i6/1asF5eWrDR0YuW4Swt4fRA/y7AKNy5M73TuKxx1MvM6pw1dTZQx7UFb0vA4qZZeZud627TGMoRgoVq1jY5/Fbg4CrY5PQ5O3N2xAYGdtvRow9DIEnJYUqACvTt2ODo579v6g/Z1R2ELwmiaW6zwmC/jSb64IjrGAcFdh1M4hwz6+LYihbUY71RD3E6AfG+JJw842W8TuKmG+tLNluXsZwAtclJVX6QqMWJ1Q1UuBy/tp5UfrikplvJMqc6UFMM4o2g4rtDhDwlbXZWIbKgB6qLB3xp4/iENj/TiR6c57NVfljP9b+VP2ij6guI2KvSfS52Gq8gz/Vq07sU4oRLQ1ULv2/8Hllfd0n92zk5rjoI2OidtdXa/DGfDmACeFAsZRJdv4ydS996EtAE++IhSFY3dITL9uOzLQGrmPAg5LCgamwKigoaKsSUWuEVVNXhnaBH+idiiOKlKuLRleoa5RwahGZl6kgWolLVy/77+n9UvktE6kjRuZ5Ei03NRe3/+dxJ40BYK3Cs4xz2cLK8bv/7G/vsPz8w5GtnhcRyaLliwR/VKrUnisrb0tRqzZxit8ChVcET4CCKrKTwWjaPnG6bM1MUsgVgWsaDEnQK3eK5Z39hHb9CvTpIK4m67VoNv3UqXRzVnaJgaFFj/0J4Q6AdqF1bNYctCKDkkNJDLjan5iq//cvVZjEnfunaVbkK0UlAKJM+leSELWrkgddLnlB99z56oaqLo0J4R8X6GVH+vn7oQiOip6QQrpV7Zal0/g5t4J9MHzk9VVC0qFkML0BNDS8BiEwBShS/E0NVdoeNzBBhjIwx9TGoWcWpJOGrZ1d/aG9QpPolPCOToE0eXaky1enX+hNe6Dmf7ZJgqSeRKLgMbiVTEZbZYkIhHyIAS/0SLsj34QwvyO3jq5FOcCbThjaK92YEmO+tqVTnw+BN4YayQV/SeLwjlTzV7dqRgPWyOhF2RAAIk9rmv7wOlbr1LMzj71cGKspWmql0Egmjzkv2SsRQIgW5ZNju/c2Ctr/QgInINMySwgkkXRk7tFjm3JkNvoFNc3/aDvcN2uF9rRAH59ewqwhjyi6ia5ZZXmXAQSCKL3GImZAsmwT4fCr4dkXFPh7qprrLn6DdV2QJfgg2IJrKzXFEx9zkDOWvc3phgjOFQToGQ959FSXnYB1b9+oo00gdKj8HUQfwDuHplV1RiZ6o7574jlYQzd+gkWIAgm1wZKXIUJkD5HVHWaD6cI/7YIve874pV6Va3U1yJKNUNnfaCYH0XBSib72nelQEY+oUA3OOg8Ax346VW9qfSw11hOYlIb7KJzsjRvnAyPGLvHrMR34FL5PrZMXzuu6dLVk9JpHe9LOoaI96KQau41/9BELaqnYnuCfbcR1BoUkJ4YiKFUMQU1Xb6zjYW1N960hQFyrqSqXv5NzE+wpodasqUR51loo5y26s4rvYcHxaWp61jrZuNCgcpg4bQZ46aWvgVTarr1+zfI7N4mM94GOadqu/qlz//Y/+Bv2p/Pa2V9V+9eXOBFzJqQ4rBV+6DlBCf8NnQjp1KqhTTSDxU+9srGdslQ2y1zgd3cpztrg4Z51dvT5qAriAJODx/xaT3tWgVVIkZw8ejNr/fYjd9zllLhXvZwqozhZX1627DkdSXcmm5udsLZO35iaALJf/yrp7rZ1jy93ckgBxOCcWJiPuHvQ0rOAmvxmQBP9yHLnxmX/8mJ359KcszShk2Tp4OlO0ZWxsnaOjdsf5TsWwwSGCPIjf/4aH7f5veK9FOpqoW5R2/RRDE2hr5GhTSpvDHmtKN9tQaz+bjesEvqitgGQX58ZRw8RAkFzuFwChIC5HbepX3UK0Iggvpiec6q5vs72dg2gvcZiPJAZOPoCUqIvbZGbeJpc4JAxtYrClx3rau21lZZnT5ufd+dbPgdjSsqYWZmxxI2Ps7OTEImJVXQWchlEqOtS7C22n2c5MX7K5LGcFVRiBnEN1mBEH+4YhQrNLc1PUXbB9Pbv9kPWxmcu2TECRWFMaJrO3fxgNJ2LznGu0ks1YT2uHdTW3cEj7lE2usbE67W5IpKyjpZlTC5nsg9EPtvZCTA12aXaCe+g+1D2xMkU/b7yJYxkHrDSoZc43mgefotENW+Pw8GJ+ztqa5q27mxMRgW6FClxIAVbOEmZT+PSUTU+dss52To+oGtpQSPot0YP+CSlvIt2QgENVOuAUEucMhChT5QsRxY2c0xUDghb3cf4oVQbPKoOtzalFqIVi3i5ePM+p6O1IY4gIZBGHjCE5nRndXJs3u6W2iMuLwxUKnLmamIIoXuFcnA1bmN9vp0+MWKpp2U5lW+HCrbZSeNlaO8ifG7YH+t5tkcvLnO3M6XAQb4xjOJrSA263usqmbtxOAjQ6XqM4ymFWLz5r/atj1t7eaCupJEdaEtFWwPMNYUiy5ZHM66sLOEFWbTGD91ynIj5xv3X2HPWTD7fQYLuG0A+AJuTsRPUXEdfFG6yjvt1KqGkJHHkNOCEXV5dskXNuuyGWQwN7HXHX8REIQTRUOmkgQ76R6VGbWJ5nPOLW29xt7bEWSyrqBJNiPsNB2eRtBekz2GOTMD952TsbO6w11eJ1drSAlBBIR0OLe+Tb8cCfmhixGRyYGqP6eNr290G0qQZ8AmhHyRaYV9qa+lO2Rv066f7S4rhNLM1YI4ymA2aUYUZgoL7bOjnXqDndALHg7a1vtIsLY3ZpZpLTFZqti/pTMOih5n6bXICAgEVLKmW9HGHy6thZG5mfts62dhjAoK2yUZx8k51pThak/4PtnDEJ/q7mszafW7QNpKkj6nbgrtwTzPO0d2p6DGGwavWNbOQOc5SaOzU9CW53cuBdnecOxIuQmlkS/DBLC+NMwCQ1Utep4dYeXYeAxQXgvEiTJB7VFgBej+rRzLxUnc5RpV1SgQtwpNXivGUzBTpUJOQStQKCLDNKaxsrtqCT2JAujZz0lk6mOLVilbxZzm7ljBgiu+p0TuvKtJUTnRzliQoZGnU30Q8xDgEpwWCkNlDJ8ikr5FI2eXHZZqdP8WzCWjpgEMkNO/fKc7bvkVbLzeWsoWvOXj3+Cbuv9VFLNbag0tAX1OtUvJ6yQGEGWapbtVolTS5G25w78kDfYZI01R0lydbk/Kxln3/OilNjnB3cZa3MK3dxlMeBugZLpRrZzT+OA0SqNAeFc8bsxNScnbw4YePTl238pVes7eh+JrcpFQZ3dRJ4xD+jukCSLqKm54FnKpW23e091hSvs0I8kHbrHEBeB8wza5zYl2yzllirLXFw9eTyAsRfhIBiNtDeznhyoDWIWUDaDhLG113PWbarq5ZAxU9FkrawugihJyyeTxBOuw7BFZC+4EM6ztjNw4DpDwwpHUd7wWiNA8PWVKs11bfYXEXN7ILAm9MdjH+GvudsvpxxfKoDv+rTtBkOAQ3Qnh7b3dpn7ak2pk6K1t7YRn+jNj4/4zAe6upCM0jhnExYb9ug5eG/ecugZdBXhkBgk2oag7G1NEFMS0vWnGiy9aWSrbMjZx24CJpZDmFST3s10zIyftFnIFzuCLiSflvDyxBoIBhx7kGrtrq2iCY5ST0ILV5qYVoyjjOrwOHeElZppL08kY7LeokWxujvKlpSffoADADjTXWoEk2pUkqYAptXz24u7UjAGoi+ll6A1G3NDc2W5ERzcXkRbpRnQmjvFOphd4RzYJqzSNh5uHXSZlfzqEXLluWIxrxOZwMoSQBXhwqW5US4TGbNmlt0fmoRwI/a5bHzNrDryZtr8RW5ZOvRfYcDVJjrsvjifdbb/oTteWCPPffUR+zyy5+2g2+uo352+5ss2AsfXrEjX5myXHzNPnt2ztq7uu3gsTfa0SOPM4Wk6ZslBknidxvquaLua3/Ie5+EqOKXx2z99AlrT4AkEFAZVTbCYNfjB0jXgXEMmgY6ggrYgtoeAQ4W5ZBw2jd36qTNnH3AOiBi5Pg2lQS4Jc2np6XbhjnEuoA6OzEzjdaxzCnxMB8ITLb17OIM5ssqcI7jg6izdShkZHHCLvARkncwxdUhhx/InMmtMcYx62/rdHtzBiTVyX79nDV0aNceNIIihLxg67S7EcRXvkbOBrJ0FIIs2OriEu9zQj11cDiJTYOsC8zNay5d9myBM4lGL19mnnuVskBoYLxvaI8T8Ryq7wzn7M6qTuDUtJGy+vY61OAZq+MsZrVjcnoKj2/CWpubbIWdUjua2zEfkKQITTkC5xdmgz3bgFiB41Sy6yWbmJ1GZc9bA4KnAaqVuoxscYYgDSiNIKqHgfd1dtnKDIIHQruScK8Fv+h7hSNG5ceQTyVGn8W069Ip22Bc5bAsoqHALsA5fDE4DnRPWk8s1kk+Ti28kmavreQW7mxLwOICg2292DcdFMW0BlzGz4epiKTA9hTXUNMJ00AUxhMTDM7HLZE7ZIf63mBT2CnT8xxmzInoUpEV2kisE6odSC4nAgMdj0Po8+cAKk4N7t1KkgQUYxBANb+awBHVnGywnoeeZK63zi4x+IVC1OamN2x+esF27eu1jSVU9eIk89IFa+9Hs0jg8Iqet1PnQMiDD4K44koB4TrjVBdvITlEpD4vzVskO4+tzR1sJOSCS94U6mNdE3YlNmmqQa2GAMppiLoJqTINh56y8yD+KvZz1337BN5rECpokqQB/efQ6QakUR2qbeNgizURQxsBeRTWmcQtWsIzuoxGtLi2goSAaSHxM5gaxQTqOl2NpUE+iGIN4hWBdre0+yeG5K2HcNeyOPsgWBHmambFNiCGerSxRo7IbEcTkx8hX8i79G/hyM0Ejjo1OsvBX9PAYFHlAtMU77S1dFh7ut2GYRJRmL6cTdLo5I7SgV/WkLbM5BpaVMEa0QDkaGprIfiGefo4BHxk3wGfslFsvvT5buzIdCzpAUcaoo72LmINss4YhBPLMI8lmIVit+uRxnkcVsLrONeqs6ABxrk6t7xoK/RRIy8NQCmAcXBd/VflKqkcaTCy9cUItdnjBicPylEp08XPTaKUWALzMXuZsRgif8wa6ncDQ+IggrnPoLCqvxpTfW4lbUvAKiChw5KBlSS97B91S0Wr8SIcqa7qkD7lCEgawbEAZ4zkl9EYitaC1G7CRllH5UoksflomGR4An1VyCHOXCzhyctFrb3jAFIIThUKPWcUFWhRd6ieqhVh8qkJfqhpCd6TEJNPuUxERG59wyZGXsCB9oINHkRtXlq0rr5mJGzMHvzAgNW31IEsHC25AELDDus6UMHya7j4Gy1FCGZEHQeJE9iAapJaoo/mVr3ndNptb+4p+dQBOQWXAoNYt/9+O/Rf+5lzZoCRNgJSXF547CDCxIApPnEKjCLJEiBUExw6PjFv8cMLtjvWYBv7hp04xPi8fHoWgsa1DfWaG+t4xnJrOSTuhq2iChZbi6jIy9aATajyT4+P2AJqXSMEFCN4Za24ZuvrOBNR39UmeXalRgsBYzjfIjiDsjC3jShtpIrujk7rZH5dnuU8TV9bA8EQ8ZlMxlY4FCwVy0MoK9bQ0EhxkvKc+AfsFgk+WKI9kkjCmXUk9BjSMNZCEA34s4BdLjNsT/+gLZP34tykLfCtvaqPDO23vqYu7MVFtIox60NDml1esylU9RTn9mqqZimLSj9Xtg7GawHJm8KDLyKXlqdJpizEOgsc1oFrq2ABMHIQW4I6xdgkdBR4wWDZ5OysjS9MWZ6QW0BSgXfwvd3fIjig+uSQU788qEUZwe8YzDCFrV6EHgAXMC7bcuYCGgtMqtzNO9jrDbxXxi9QYpxLEDNtQz9xQhMzuJp8b0TUOxKwIwyU68TjRCx1Fa6C6qOwyLhOauNpDFUuQuQQ8VYABSDFcXgUFnEG9cJJOeyYf0L8LIiTAgvSdL4+jeudAZPdkErstYYm1EDUnrKQiO6oXJGjviow5XdV4qY6yhC4Su9zsjRYbZakj9cnrWfwsL349Mfs8CNS3xrt3/7f85zlWraHvmKXLY6U7Mwnp6wNRpJFGuwmSquAQymOGluPfdoqG4X7NIr/fIs104eAOcImgEHJ7Xzqc+6m1gTELiYUbe2xtsH7scGwE4k+S4JEPp1AeZrDhH/DcYCdkMlhHLF+Cj8AF5+em7FXpy/aTAl1krnGUCpQQZAqoNE0SB0qrCRUnvLiMIPJxVls0owNQ1ArSD8RxTqssgOm0oitCXuzXXUQJYy1QAG9qKHyDmdQYfPrECM+i1yjAnjwIs/OWLqnz2FcRjpL4kzPzdoYanmS8S+2oz1Tfz0qrghaKmITDiZJNmfuMAaBRkShFV2LhIj2IOE7OLZzHvNqnflxwWQlu2JzcuThAY4jnS6MjlrdYNKWMsv4TiB4xmGSOseWZ6y8iOwE7aIQX2e6BY9ywfq6O8gTsVk8wgnq1xjhaKZ/9JYGyIZez+YYX+bcYRDaSrdexrLUWu6vyaEH/BzPvO0VMPsN/xNCPhh/bqXxNwj2a/RDgkmnKKRwUtbhuItiLqA4Q7vyE8lR14mfYsIaQdLOvjqbXTljq7l6a2t/hFrBM5oidV7mqZBaOH0LbiCnls0GVl+ElC9bS0gWh4M78TIwQXgltanDcJBYPMMpjpzFShtSSU5yKHB4cmQYAmlxZBdnkV2QQ1LIHomVlm157pI1t+7BJmiwRBobjNPUY0gfEYJPiKs3m+lKQIa3dTewyXmL7K7WMMCZ3Kp98RP/ZmNfGLfsNBIAoDbicUwinS98FM9hEwS+i8OcOZo9gbbw6nNEiR2dtH5sofxcxjIXADJMSGaD6LgMgFV+Ag6fQhWVXdbghIkpoKkREGgdM0COrxWQv4QkO332oo1NzNrBQwdgUgSHLC5QBlJwdcOaOF82lydaTNyX9woQrlMqsE714txrj1kJaSc6vzoJKprPbcRM6MabXw+xrmOK5JA4G/gW6qirgKe4DKybYVArTNvIkZXEM5uA6fYk+/C8QggQTwsItwHybeiQa+AtG9OlGNpXT2+v27KLSNgceXjZdnNwdY53C2g4CZjPOhqXEFkOtAhOGzFrTSktQnwiLjGrIhqISLrAQI0zV5oHRprF6GxpReWOQ/isGNNAAkd117UcdR3YNzc2obqvIsUyTowi6GBAYF6y6WlXnDancQ7WpeudsKQqzyGVcwiMBKp/M9Ns8goTpSzIoanXY0LlrK2tzfseTUE6nDAaYFjwl4wk4TYN4ZYHDNEXBfzoXgzVXQxTWofSBvAogCNJgonSddIB1nEswixwqDY37LPVhWeIyT9noxNI2CLOueZ9CBWKxjcizacgs8frEYslAR/9u5m0owTWyzEGXKpJsIP/VoFSo9VBr8jVpGVsjGUIE/UivoGKM2H1NExZMgxAEu4Ul+SGc5bzGPyodNnVaQi1ZF39fTY6foqB67benv28oy5s1aV2VCfnTtWPvbMAFyzwKS9srnx0xYqNM9Z9DOTSwK5tUN8q3J5AACYXE6tZ+pVAMqBGdsRtaF+nlVqmbJW54+XsrC1fHAGD1pxYNXeq6jSIgkUKxK+HSOogwBQqMdCB38bcMZGR8wROW2aABaEs5sP4OPOLBI7IlGjGc3v27Flr5fDnWaRZGqLqwJZbhfgSzD83gmytIIAkCaBhWSOQCEaUGgLkkaNMkWBNMBBNO43NTmKutNpQX78N9jP3zT/BsEA7S7OojlNrIE/BLixP2fzKAqol87XSlChjoKMX4kvZEtKviGiLMk6llM6xTdj09BxIhl3XO2grzOUvzq3AnZlbRpI2QrBx8omxTUAsDQ0NOOOYduIoz+50D7BptrXxDYJlVkAR2cUk2i2pqhmI3T0D1tHV6dIwiwQUPkkCtcBw9vYOARcRJV5dNJBxtIqczviFAYhBCyARebpRh9ONjTY3N4fvJWMtbTAE+hJH2OxqxuZcmLRENmWLWcYdhi6G0ATDStWlbRTVXGGQu4aGLIZjtbzCmGnAKkkgr4CduqRxAU93RMJYGRQxXQkxX9jAcy49FTEj4zj1VpdP0ps+ZjMGKKjRejsPwtgKmNxoP50cFK4pRXCklZmdOF5+RJ4zMjHKLH4HbZwhDUUwC+ih0rBtvnYk4DjIIe9fIG0pB+IMkzhmIOalLOWRLmO47+HS2BQyZIsAfo3fpy6ddjVFDKCLAdvV12mTY4t4DHPW3z/MgE7Z1PgFeFujdXUT3EGSdJBU35YDqT+VjyCscDWpSYJfhLnVMkiZl13WOGb178ransfvs+VT2ClzPbarAYCiQsmpIalZ1vRVZNxK7aMW7cauqrtI6GUfXlwYAQXKB6CBEnmq50Ia1RSD68qpV2Qg15m6KlCWVA9pGXh0ROm+sqmDE90bQMYojELeZ2kgYKDt3XvQ8kwbxYdADN5TlFpdI1oIyBhFmk6vzdsYQQF52ikeGOc9OZXUN813x5Bsmr6YXJq1GRwwdBdzBUcJCK05XQcG7VXQQobpGkUuzWFzTmNDAj0+wguYHHb4hdlLjiRiCELG5dyyvTD6CkPI7ACSOw6SrU3CnEEmdwJlBG9gg+v33MRZglOy7rACII4rakMdkklmxzLIKNUe4DhsRKSSXlneHWE+dI648wLwWsXxpLbKf7CGpD0zcR6ppAJh/hCNNJWSOzjoKO+7VKTMUeZ3L+J5X0FDIEbV4pM4QqlfUlf4tkrfi4Ajh0NNTjUxwg7mt0fXZnFczSCF12wkQyAHNjsQrUAmgJCgJLWcJnBD6nUWaX/WcN0REHLELk3No0ktMZ55h5U8/IJfDmaRXe3C68yqtsUvWHvzAdvde9Rmp5qsc/egtTFHvLw2ZpPjL1lbotcGD70LWKIJCIDASq0Q7JcxK8bnJ22Cz0JuHqZB33dIOxKw22YQR9i18PsKwqJe2QCvXhhhAn2eSXXZkiB9pNUm5s7byye/CDDldSaooLGOgIYYjpCCXb44ao8cG0KtyVpD217mFRuQjqggTOIFBErBurhB8tBAcSmSA513NJe5BiCn1iZtI5ax/jcesAeG3mF7ux8DEeURF/eGM2dm7NzM0/bi5RNELM1aK1sGDeYX8Gx2WESOCJhQhGkAEZEnOfXY7iSqwcLrG0s3ofrzDQGKaGVTRbA1S8x/C23XGJZlBQYoGowBFX1HQIZO4EEpNjOKrYcPoLGpkYHHHqSISAMeYRiGXDEdY3PWfPa8Nc4RYLCEekz5q/2dtvLoIdvo6XS70gNSGaOsiAM1zoOvhamMCaVRSoCE+iUNIrjPF+11J5zyArk4cIvQgLw0CKQxQ+iMxco5pIGCcGA2WlwhpKaYudIqU4UrXo4iqFRKsQShoZoqaXmlMwXeUTuCJql+/2VrENwKEXKu2SGgHTbklId5EgeV2id8i4HMGuOglKCtesI5jDaOBqduSvpFea/E2JaYOsKg8/qhqKCPeHzLmH9uw2dmrbQ6ywu8BE5KsscoRJ8Sgkf9dAct/VQ9qkBBPSm0sLqmBltlZgMlyWZfnXAGoL5qik4MVmmFmIfJ0XkbHjpoa7Epm5k7STUFNJMGa+tqspFLn7XxyTPAKWkDB3bDwKiDevNMcTpw1B/GooXglOaBJhvq6rNT42fAhx3JdOcnApyrLBQt21eg3y5JpatDJbw8/op17EGC4aiKJJrt/PhJiBJJg50j7jI/O2fZTtzs8WWW/2VtBnvg0HA3TqQVghhOwCmbbHj3A+RlRJ1qKvX5lzp4baK/tFHPJEFAV1cLpPIQNYQDqVRU0Eka9XXBJicvQihZnCjt2HzrNoPqV4xmsRMhohRBJHkcELDsOPPdyXqIGImYhlCT2EhaApliXlVeTM2vpnFKSTWPw+01yHIElXCOaC3vEpJunUGpZ1DTeGWZO6BLaZiHHFKaE8XuJua56wBBF/gDmnjuXDeXgXgLwAYujCe47uyYxT70CYtfvGwbFy452i7dt9dydf/JUn3d0GqAYJIQ0g1EMEXNQ0qDASKu+kmVYNw2R05ErMS39Ag5/ISosj5FhnJziSBLqIwK5ZR3XbMFKlEqrjQQqZperAgaeIs4xRyi6AElvPZ5ZYBJSYoGtal8XQW/NIOid7TTCb4x1yrUHgkM5XMCogjNgat1YjTqqohd+ZRoHuo7xM1PSfusVFz675qbyudNMjjxSXjLtNKbMV/mhRrM/Jr6KG5EU338omgbqkPeZcWoK8ijDpW8AaHUUddiG+V99mLmX+3UyFMWTS4zf0y4LDMoWo2kuWb1qasbdZgNMNrr32dte9J2/OSnbGLsErMCDUjTETTOWabOdtkDh95LCOiD4BtTp3Qu6BV/deF9ZExh2M2sL35g8BhBMU0ISvq0TdqRtN09rsIBrM+9Ubo4lKswFYCXQBitMtrdN2ijG302L45JSGBLB9E6zIMqQEEdSxLQkCYk7/jpM3Zwb69l4ks+VTG9vmonz59B32+xXsqIRAh6QFVVpwB70FwuCyqkkqRKCr2UhCLK6o4PuL5WAUUAZoKwSKxcW2OaKk8wSXcSLzmqbz6DRCmcwkaOWBMT+Ll1pFeWCLKVNeuDaOuZp21ItqLS4p3F0dRBsEISbI3MTNniq2dckqpm2a6dRNt0H9hrjUcOMug4LFDTUOYsjue3gJ2XBIFTSGQtChADlDoHeNAQULvoYrKeoBakXYZ47FQDkUK055XLY/bS6ZOEJpbt8WOHbGj/YWshQCCP/Z5hKixGzPA0Tq4s6i3AdUQWnODhDjO3cmig4wFtcdKrID1oCtT48DAFg+ngnf7UhnUwfrLYXUIDF/FAhzzfArvwxiUviA3roQyFAkriBASqZ/5RrRQuOJcgBrCcLBoTnqtNKg84+AUN1dsyIXw89YwSfeKaOooSq6pP1CWcowzZ6AnKEzMp4FkMNYo1VPXLmBPjwKdEnSkIL0U9grkWNUSZf1VdLu0px39RlqYtI2hPmlFRJ2WCab7b/T68J8mr6TW1K8p1lCmgvUNH7bmzT1lLV53HY2eIq0f7531NgW6wGV0DkncBKBft/l0PWFt51o6PncSZtWEp1qTv6n2j7dv9pLW37KZKosQZBy3GEJu9MgkgAWkm6L+EoNoh3Ls67UjAWxn1Wvi6rrd+yz7OYnDPLo5aGcN8ZPyS9aAqt8TmaaSkrRbvF9H9m6x3oN1OnjptI0iUDibtYzGijua4buuyhpaDDC5qIQjuoWVUERKp2iG1Iqw3ZCAaQN0Ne6XrGKqq4iaaou3MDaMmr160UrIRvMDZM3bCRk+/YLsGGq2pZy8eYzgubS5DZBtIx0SxgZA7PMCUobk+SVRJkSiOnDPPPGf/9Hd/Z/P1CcsgvSVdDxLw/86veb+9+fAe6oCAGUl5TDc06Di3yjhiInKASVxRvqRdlAGLMJ0R4VucewMfQ5bP+eWcPTt6xj518iQuzYy9/75dltw9ZPU9w6xj7vRO1jNPncf5klMMLsEZkkwiKQeAA0IkCkFUCDaAjQCp8eKL/CLoOPYU8tsOp4mgww8Ql6TSexBLSV5eEadTcfCevGlyQArhpR1JTkcgCscJkM+xDzxwXVaV6hrmKWkoCSdCdA+ryqBtTnhqd6Wd3j69p7wUptaIgagfmmbzqDiNBzCfm51Ho0qhGaWwsZn5QAp3oWn19e+11Q58GrkgCizoq/pOfRCX44/XB1YxDhTHfXotv0RFQksIaCGFZkBEVPJ4J2BECb4XV87ayyOfgPHCPvDtZHCarTEPrhXfZXwJ65gvawS6rKygccVW7dylj9lA0322q5Vpyg0i2yD+js634bHH+1xasUuXP2mLrIYbHnwEhkOoqPrr9Vdgzu8rUmUMr7hX+XFDAt6Uute87dW6BJ6evWjjExdRN1A9BlqZLzzPwgAC4lu5xuu5SqRLgjjc9tZGm1/KoGau2Jv2DTIfiRqCmjAHEC/MjmObtuHp1ZwpBFDpi3NvkXPlhtaPCkW8XSCLOLOiXPjDB7UPX1r9WqsdaDyCJzaDvZqyifxpa+wEiG0NzEcShFA4g10ZJcgBmyiJ7YtXdLB8yFrzHTiykKMVkSEcFP1JfR7oIKi+HlUYbt2ABO7HbGjsanV8F26E7ZVNS5guHliWsyEp93YTisrqJ6n68jKu4I1eIvMlbMtzeKLPzy7ZHFI4Rx+SdV0gFrG1WRATNTo5j7PkEjYbq3e0OUI3iJIjpncZ5rfUCNenXmmCai5//f/2wySJByenDW1I/eFk3nqiaCoQs4h2Cfvx7Pi0zaE5aBKkl7jlXoI4FrHpZKc3YPfn8OTW1ze5BFxew3mleVyYVjvTMfLOL9G2SabKFI7ZxTxzVzMOG5jdLA6ZPISSRroNdPf59NIUwROufTDV00G0VRPTRfOKiMIDK4nYQERZByvWXjw3YiOXR+3Y/oM2wGKETz/7NPgWwxSSc65g+wd32Rvuf5hFZJSBWZN325opJ/kjHChoHBCjMxMGSZqkHIH6J6IWwwNqLp3jaUljJDYMR0xIkl4rtNaZH69Pddu+4Qft9NhztsH4ra0wFdjANN5uPOkw41OnLiKty0xfFWwI/J+fe9VeOZ+1B4f3+040Ha3MCWNyTC4dt3MXPmMXL12y7rajtnfXYz5m8pCH+KO2XZ22uxfm2ZGAVcy1RQWvqfMOFCwVTY90sISrrRVJxsDOETUzfv6s3X9sr/V39xNBQ4A3yKh4WQV4N+HGZ8kAzhtc6ABtdmHaXrx4ErTptj1DChwgrE46JkQMPH1ANecmL5+4t9Qo2V4OYFqoIIF6ponKTOaJSCIQTWqZlS+dD1quec1OZp5hjvmS2zW40wAokVdIXZkGs0xzJLB5d3Xeb0P1B6w4Q6lST4XuIIDmLMswgKF3PGnDb37COXccqZ1giqMeO7aOqQtNGWmuWMAScjU2EKoHUZwfv4zKvmJD/QN0h3lgpPA5AuufGbtkL46N2YUZvLD0Vit82lmAEMMcieDVrQd+9ajsxVcv2ESUiLH5FUuzmmn57IgtP/uCTbdGLfO/vcNSb37AJZWQ0LHAR0tErN9BckeSPw9yIBetE098J2pKQsxO0pHPZaKeXpzATGAZIs1g2inmZsbIpVE2JCBck1DHIsxn765dHt00w7TXIja7tJQDw8M+F3t6csJGIUxpJ/f37XaJOUJQyvHRC068vUR0JSlnBqalqKw8CK0Ir84hgnjwFZwZGXdi2yCybH//sMdBn7xw2vr7BmyYiK2lRQV8sISPervZNun+o8dsqKXLQzsVAasxkN26UibWGsYihhUo6oJFQKgRHE6a53Z72pGL+07g4v/yzFMInzJmjqS7cDyKg2lm5SJLUResr/d+nFGr9uqZFzF78NqztHJlJeqMWTi6waxEudSIdtVo5ycmYExMEYL2RQTVhbkTdmLkeaYPxxAEh+2hY28nyEMaH82j7jC2IrDWaXGFoqUMBa0PxvTqvzsS8NUZq3+rbAHI/9Pn0dFJ5n7PsCqj25bhpEO7htG8iMuVQwvuu463bWxs3jq7621mcto5eREHzpnZKXvp3Am4/LC9/dgHmKcbcpVG5KlGCxWpBY0uQFMpgTDR4KYaJGZJjtQ6829RpC3qjDtJCBVMLbCYv+1Rs8aIja6/gk8451MLy0jlAkTbney2+2L9NpA+aHui91v9LERNQIUm1lWBJHyOgZTnOMfg1GGjKiBCE/9FkK+AE6ugzbdRtY6KlAAAQABJREFU2/JEoslB5n4DOPEsK66mCKro6ei386jVl8bHsIWm7Pj0gr24QIw4/RgkyKUfqdHEtNUBiP4QNvWllbRNEX7ZcgZJhlmbeeCYXTyA6ohnthMzoHNl0dJsolYH86sjiEPquuZiQbWAeVWgFmgroK+ImY/gKBcRfAVbTApuxpEmAjPM58og5zIzAezXlW5lnS+SlTFLAPN+COcyhCOG1ckc8BJ9mSfSq562RllJJim9d2A386qTvu42DjyKwD6eJriEuWetREuxGZtgGGPe+OLUZZtmyZ8cTor8ijD/msHDrgUvCurIINU9SEI+BfomVfk8wmCwucNV1hwwLVLuHHD46Cc/bk/c95B1P4Hvgv65iQLBiSCjTKcpUjAItgAH9U/DyrdgIyksAvWpPWCnmRTRrp7rv5DMyZ/rIipYjJVc82uftZcuvIQTiphvPNirLNFc1SLvSD3z+/WsskKVpv0rKywI6XrQRpdftNPnmUUgbnyUNfCnLn2B6dNFFggdssePfB3jfhCpjb0HZgqPqdAZMleeQlNID3wcwwdXfe9IwD7sVdw8fE8AkJ0QSuEm/OoP3n/UXh2ZIy52zSfHG3AGnTx7waYkSZiPKzN4C0ur1szStRiIKG/pyORlGznP4mYm74/sOmxt0TaQAneKyue5qzrihlQsu4Wx0ZUTicOZtpWQliLtuIgOZFRARZR7CaZyikzNpJYb7bG2t9nu5j04oFgswLTSer2ItMG6yj3WW+ywummkuxb2o07KJVkgJrbAQCzOyFYZd/VPEUeKutk9uNuamE6YmB73uN00qmVTM55uVOwGVCpN0GvB+OVpEOyZF6ylf4rACAYXjWKNKLBldi+UK6mV/jUwTYWbwHqwq3uxmfsUy0wwzAaOtzgrtqLYTwXmzqdmFtAaItaGCrneO24bTGW017FUL96KBGfKB4L34I0APJucW+PksPO/wpGKyijYSIOSsCGPCDyG2ZJMAXOu62AoXayflWDYIJMIgoz8og0sWKiHeSj4P4192sq8dREpnAU+CtJpYhECsRw4sVh2iMNwTZFhwGQN1Vwr0Pp6mOuHuBZQlduBXSve2X7uZWB+9cBQplU/qnMXEXHy/Lf0dtu/fvJThDvifMT06e7rswamfhRDXaT8tzz0BmtF/S7jt1CHotQbxtnLphRhasGB4q8lYQUK9UT9EcrI7vfk94EQGlewZY7uV+DHs6Z4J8ziXbabjdZH0ChmlydYhsi2S0jzth5FocHcWMu8sFJE22i2N93/uALHwZ9XaTtx3ASjrLFLzP7ud9rDh95DhOIg7aK9PhYwC8Ssj5eYjzew0ixd0y/5IHZKOxKwxLozpaveVJmy09yFgh01Mzdl5y6fArn7mMQGlSDQV8+xaD91HxjAvCuwENIrZG9megV7UAuzY4RSLuBK77PdIGkzCJyNED8Nd4tqa06ISZ5RSYiAhBUFBScFwbRuVeqt1Gk5m6QyJ4juKuEoUwD8KqpmhuinPAOewvYcOnKYMJF6VK297gnWNAuwtzJEsrQ4BTJhNNNGOWnKtH0Jdl5sYkqgs90OdnYzJUYIImqnIrfSaA31xHI/GLsPRqT7qNMgmnB8BakwMUn0DwjdMDlmKx/5WyT4mh3c1W6PDLVbS3ubO0cyeCu1+IDJW3RVvlDppxGIU1yfRDoVQezhtn6LtjUR1RS1h/f00F9MkZOsmmKDgiT5m3ldcTNxbGNpDIKHkpCggqcVBqv7Qkb+Ai9dF0GWdQhYOo6QpQCCywxalwaBHtqg/gDjHBJyGQ++7Pg1JGkUz34zGtQS64+lBCl8cpQF7NI8tEyvCanUgoaiKRjZhwqB6e3FJAKm5WKnDQ8MYq4gZSlzZWbOMhD2EuNbRmUW7LWuWcgqh9Ayq4gunBpFap1HbR2w/fv227Mvv2KXR0ds3759vn2S1OVkBSfUNQmcPBqUdn6RCi3c0N2Ye3Clp/FbjIj/jlOieYllXhb4tAhDamzMKYgbSnzFYLTLyxfs8uSLRFEN2aE9j9nS8c8x55yzLmYEVvENaN318DCbKaI1bMyvMs9ftAcO7kObYJkk2onCN/fsfQwaeTdMMoUpcBx8wSGX7ITpDaoaEg1C8xFslWQSaDzFHAQ3Z7bBoyv+7kzAZJObuyCdtCo5HlClV4VNm2K6pTSZsi889xJOqgGFBTEI7Jywf8AaJhbgmMvYMKwowdbNgCgLC+zSvGfY3nBgCPrGHiIq5uzUS7axMmpveui/ePy0XPpCsTAKTNJYwBfgNYUgAhBX1V7KUQhyhVjqUh/2T5aVJ030vKMHYCBR4Pajjdg2cHBXU+CYeemRTGlFUXuig8zlKnoJRECH80X9MVRIu3DRpsdGbYXdRGQviYCT5NMCdzESBfE3IInShDzqmaRbDkawQQBJY10bTqBW64eqJ149YTZDfZchCsFJSKXQQQY/R0ALTBoGEmH+mC1xiH1eQ7V/y7vfaXv2dds6W+G0febTNqCtYmjTaImpMepPospqnanC+6TqaoADRw3XjJOjqquSDjLuVMbPkVx2Ho48bqVt0eojGYIlNuxIT4cdYCsc+RlkeyWwi9WvPcyZS/PQNJkYpqZ8upjyUuSRmIbimJMQkiLcFA8sqaLY6Dhx2ktstTqA3SvNSU4uOao0LdM0lLL7h/c5o1EQvyLVcpTT34GDi/7J7mxEsg89OmRvf/wtbl+LqO/D/t7V3WWDg0PEYqNrQfxyJvrKMWCwBvHPMIW3DEOS+hnVONNPsABGxW/hMG1Re4QM+gZTqE9/dQFz41pS23Fc+ZSHMhLMrChe4fMv/42l2CFkFcdcI6ZZiW2IC0xD5gkgae9gjOPsHomWEoksECa5YQd75PhM2hCw1WYR0/Ov2OmpE6x+etny2Tq2gPpawkGHqCaAu9Dcm6f2qPn8blHYKgQcDqMeVafrEnACbq0g9K1Sw3KCTouMGRs7ct9Bwgfn7PSZ8xBxm+3ZNeRxve3tXfbK2eedC2lXDJi7Oz6iqGlZGngWIjl9eRRvcYs9fvAtDBxGPRJMxKs6g43ZKs2lN7JMxCldzZYDhnyQDTYaqt8QnsjdWpkCkiLBZV+ofctSn7CbiiCJ8itErgiiivv6xD2QksSRR1f2ZHmuZKuouMs4LVbwqsrClHdSLEX2I6QP4TJV1s4OlniiFQes8D2Fw61TdgyP7vnRcfo2brGGpI3hEFpZgPDZCWOJhQwzGdosNovKqQAQDZJcLiUYg9o1x3zmAnZmJ/Zxjo3e5575nK2gyqePPGa9hw8wbzzhtlaSQVWbFaQgWDmHpqxwsPxy85fu6w4ZGTAW9VCnWTsrZlpYOjiQkqYUvqG8SuQFRs6RNS0EjOT0ihDHHuaMAAe/Fsaj7TBg5BfUUafxTgMNZzA+pynHJAyqieg1T3rHVUPsCObEXVVTncJcbwvXFI5jmeCXentg+LDEITd0UwiNdkYWhL8T7TSSfdWJF7i65kYW/gUl8u1gClvOe2qE2qt2KHmdeJ/5Vq+rwZFI9NiRQ+/1+O9zo8d5j9M/sBVyazhhp/JsmqARjFt3Lz6F7Fn74iuj9jBLSsWwhRvrwO7U+eft5NgFQiNZhpnssWMH32oDQ4fII9wSHoADNE/yUm3TeCpevaOR7aB4pr5sl65LwKLdFJN4Oe0xU50qnaV2G58aYfua51gelbaHj+x1wmluTtlLL38BXGG7FhZ+j09M29BupkgiLCFk8e7i+qJ9/KVx3y+6s2PAHt3/HrjVm7FliJBBqkqVAoSQzpX1qhPinFJd48yzas5W6pvn5Vr7Fip+OZ/HSYLjTDtNbFBeMH3ANWp8Di0gUzmkTVvBpImSqsPRImIuILUVI6uQbu3WACtw4MvNL0calfrcpLYIKqOaYZ2gBYAwUhOFWLRFwry1s83SBIGMTE0jGZA+2BEK6igixfPMv7ojjv6pl/Kir2FqrKGyas6xrp1gEq1W6uy0uXc/Yqfec9Amzrxsdccn8JRTRu9h7C9eVOgg5Qax4JIaQkbuB390cVUS7IAp/cgjVZnN9sPq5rG9k8BJ4YhhcuiTV15sxXn5Jnz6LeBvZQM+qpM20PcCeCKCUjsUQOFBFN4W1auXVKqIiv6DqULHQC5qsYgcTeRAXdVzTeV43cBY5BQQFbVRj+rS9raIO8ZVzBp1n/ERc4am6QfaAwEdYrrunFKbKFu06rKoig5cs/On3jD+BPnUTRGx3lQw0urGmOPT3qH3sufVEXvmxY+yKwcMnm2ksmsltofSdkyYcJNZppH22DThkk8dP85a5h4mXooQLtOs+C60Wq2985gd2fsegjqOQKxML/K8iE0n6S/DlLkI76P2CO9t6mAlleaaqxrt7dr6c10CVjbFydYRHKvTD+R88qIEFAbcOW3LADsHttrx4//O+t8IW/AM4HjRCpX7rK251/LPfhbApe0cntWOHggAwz2HHddDMMeBQ6wZZi1wa107yKQykQQMgEe+XNFo1epDbxtJqV0iNsIOWcOra3GuBQIghGAJ7FTFviKWQTZUP58OQAKTVxunJbFhswTlrzEdUST+OQOB+wojGI3sddnYObzZ0Ca2C0ejUJQQTlNUCtsT7URZnKB46Ka2Ll+WplVBCxmmy1gimV+4ZP171u3/+tn32jNP9dqF0+xUMsfUBntfKboHJcT5kwbFbXgGrAdH3sBAhz3+xAF78pFjhFGu4nlexXFD5BWaQGYWT/DoZWx4YMP0SRk11d+lvVJlN4SZKlejE1z67+o/Qn7BSeq27F+haB5/w4qi39RHnuvu1uv8EnEGmOz3+UUe5RJqk4C3f/NHxOAmAnf0ikjfU5CdN4OSVTekppf5Tx5gLaelCN/zkJ94CfkkEbSBOuzlqji9oj8uTpF6lfoDhgFBi1krB3ikABqapCYGzdAPABCwTd2i7Yof2GyfLmgd2YI/Qft1dwXv+6mzn4JnZllZdIjH+HQQAsurEzaA1icpusRqrSKrsAZ3v4VdJw/a2dNP2/GzpyFANEWKam07ZLt3PW4DvY8SjEJwDr4F7faJ1PL5ZtUt4pWm1wTuanO+eoTL9YiXpl3/dEJlqE6Ak2oC8HuMKg/lucNny4ZsJzgn5rJvbJZm65RdxDWPT87aK6deRBIHkrVAcLz2xbpv7yEb7iaIP3ORSBXt5LDPyhj0rqhKojmgBUmSBoE6PVGX9nxyooUwtQ2MlpAJMXMQpBZry1ZzVUuICsFtngonBOWZVE6tcNEGA7LZhG5SubSlj+aY8SpZbnYBJxfzsdgffroE72o1jla1SEprLWo7AQidTKN44AbcfhXJPUlAy2ruLCrSkodbJtlzKo76l2A+V4ghe0vD5D1C8qp9SrIR5cmOaXoKVbB8kXWu2WaCTHB4XCYWem7eWtjV0dipcaqDaYzhfmshHroMl9Zo+DlNdFs4qrK3S0JEAOCPHEmFufqtW8JyPuGbuqWk20He4PfVf51vhC/xtpBt8+fVmSu/lUNMJ8ipmoJP0DSNkZoFcQFTt+31WIVeXbBTpm4GTGQzm5iC0tX5N2+Ghek9eS/0psgneCX4DVS940EhMaTwyuplnJRnXENLsXVTgvhkwX09T4gre8JFDecsO4T0sOmeNqossj5+bBynI9OOLc0QY30v2iG7IJQYR+qUrA0GLGi5thiWs0obA2pFlzO0YEDVvB3TdY8X3emtEFhb34ACB4Q7VKhUg6AoFhFTuNF3dVlyXkhlUH4vw4EeArY6Z3itXNUpHJ2wBXoG6Cs/q59uvuVFBOVs/g0ugiwh8nHPEYjCAvipNN30GrwOH2yIz1UwZeK/6vb+uOgI8SdsSfgdtobMVSl4yl+/4JkkIggkSaYypf/5I8FW9aluPleWEha4/d3wadiyrd9fjqvqNnrPtm9E+Kg6+/Y5X9u7MAsxFB8LrylsmH6I5MPf0kICARfggkYQiDNmgbNM+cK8/uiaP55DY3yT6bYI+CbLrmWrQaAGgdcYAgGLeI0rqRVfg0ANAq8NBGoE/NrAtVZqDQJ3BQI1Ar4rYK5VcvchsI3hLH+CfBQ7eA+8jcpzN5K35Uuv64bTSFf3JXTw6LuWahC4JyAQzmE7cVZalCc+VYQq731IlJk5Fqzg5W8iUo8pGn++6UCt4DNbLfnZKzp/Ba+wJxxTVzqf5GSq5Cc22xPz0kF5PLuCNpSv4pRSHtWnD7tzeD6mUPUdOLrk7Lp5B5bqvWkC1lSHFqFrgrxGvAJdLd0zEHAipDUhoaphxCeDrAExhvcLbEQn+mBJqxOP9nblrCrmf/QGz3h46vNmbERnTYfNli4HZXJwGsHvQZ6r/yqQSPWEBH31czGXkLG88vecrLafQPuDRPBQnuojmk3t9nPI+Mk8g++YqbDTm0k39EKLWNPMUYqAa6kGgXsKAmxO4MTBFOZmYnN6hWyyBnDzli2PB4E9zKNvEhPHidoqHxGUTsokqEeRdk5UIUGOfAbipOyBh4nmmDAbe8Hs4LuDsnTdxbtsMG9LY0GdDR3kmzZj/ysbZLG+yhl9xqyPvd6YO7bLX4Qx9HI0Y58TbdBAcRSktCS/6iKWXr9FwNq/+kYS+YZUWSPeLTyoXd1jEKgmUhetEAKbI2xKYkk4qbMNRD5JCuvjO6rz3dTNB1VaKctKqNnTrO08FhAnqraCZmzvW4Pn+ttA/kHWl0slV7kcR0q0RnAtdVgEyjZLmrN3ac2XS3a9E0pvXbNpg+Ssp8ULLLVl8QPLQzkyM7hX+SuBKdrTeU/XSztKYFG+Nv3Wp5ZqELinISAVWrYo8eabxAuRlAl3jBDVtCl11Yn15SCfEyLvicD1cUHItwj89L8YBzUHRCs1mqgrJ2gxANWl7xsmL5Dy0BJW0ABahoJ6Tn2Msh+H2BWVRVnV2gMbNxDrG0jzSvk6fUKfnczWHVuiF7SkrJZqELjnISCCktrshAXhuE1MhJTi4T0yjnssrPdVJCkkq9/HcYQULbOZvROSKFj2rAj7yNewkwvSWYSNlNVmd55WOBNY6rEkrwhz9gzXfCvNn0cqy8amHPLZ4qWgPMXVryLRQ8KXCs4OqBQeEO/SJcKhYRpKktTVzAGHm47zURTYTmlHCSxnlZbK1VINAq8rCIhQ9HHJBpF4CqVxhchDYqrumCQzEtslo4hIRFXtwVZevaek5yJqtkV26czvMu9HlF9qvRiBS/ZtCE9lcDqEE7GYy9w5bOL+gKmo7FDt17XsdOzqDNvSagug7dI2NQTZRMC1VIPA6w4CIq7NKR2Ixe1U6MmlboDTOvitsqYzIBh1UpK5ETtX70od54gbJ0RJZklT2a4iSj1z5xll4cAKNwSI8L7v8KGyxDyUn9VLVOCSuTx7tlKeMvDcI9356ti3Rbx6hDNLHmlPstFpjy/QCe5c8zfo0VW3Zf/upHNflbX2swaBexgCFTVVhCfJVpGgEc0Bh1M7IrSQYPRc+aSOtwwGKq1651NNIjoes7m+S17lYzNFJ+6KMyvCXllllq16Qv11ia58OLgirZQnoSgGI2+1G936QjtYxQMdSnecWZFwWisoyWlxJ2/0tip0zYFVgVzt6/UJAUlJV2FFdBU1WgQiQnVHl+5BWOGzsJeyhyU9kdYuWXlHJzVeky/MrzK8mEodm/e3uUCthlQD4oTIy2sElWhKydVx2qbvHdL1HFk7v7VDYbXbNQjc8xBgxxHfxkcEKltVxCsCkX3q0ph7mvcNpZ6kpJKmjjQdRF5thRtOE7lKuzwWqM7Kt4Ht684ryhdTcKkrYuYdTS9Vyi1r7jhUo6kvItVdFK8TO5qq5oJp06barPJvId1wHni7srTm8eWXX7Znn33WvuM7voM9gVbtMgvPlaR6a3uanp4ea+YMWyXNZf3zP/+zveENb7AvfvGLdv/997PncL+dOXPGT2zv5TDpMInbnD59Gm0jakePHvVF+joBXufP1tT6EEq17+tCQES6maqvK4Qq9Rkc9SQVlmNrNtXqMLIKYo9U5pm14tfnaSvzub5DC4xBx6rE+JTZhlhH3SrFcDaFNUaauthyZ52tZqELhWZekVg3DB3pREup0RGv99bJ8dbfoBGKEvnc5z5nL7zwgn3bt32bPf/88/ZjP/Zjm9FaU1NT9ou/+Iv29V//9U7Yv/zLv8w2mitOwH/xF3/h781zbMi5c+fsp3/6p9l+dIuAVfaLL75of/iHf+jPNKH9R3/0R/brv/7rbE/LfBxJDGR6etoZiA5qFrH3sWfwAw884Mzj4sWLpvIfffRRb5MYgJiCpsXEVM6fP28PP/ywX4th6HeY/+p5b5W/xvaR2m9YoaRXJ0XLiEHpxPfqpN1B9K52aVRSPTJNVEYY1aZ3db+RkxDF9MKk/mknkdDuEeMKGWONiYVQusnvatVUaizUpe2K+RsUINhK6oZJ6i2EKtVZUtFzSa12Yg4YwPMcdPcMwqsIro6Pj4NH2tyQnVfArw9+8OvZkJAZJs4u/shHPgKuP29vfvObbXjPXnvi0fvZMw0c0oeiNnc7URsVBXYb6ZYJWEj5a7/2a/Z3HPYlZPrBH/xB+77v+z776Ec/6tLyL//yL/2ZpK0IUc9EbD/7sz9rf/Znf2avvPKKn6r+jd/4jfbjP/7jToxCWBGhEFaI38W2JN/8zd9sf/VXf+XE3c35QiHxqo/K89xzz9kP/MAP2OHDhx1wY2Nj9pa3vMV+5Ed+xP7+7//eGcwf//EfO3FMsl/z7/zO73i5X/d1X2e/8iu/Yl/1VV9l3/u93+uE/Qu/8AtezhNPMHl/VVpcXPQ8qqeTjeaUdCq8mJcIW0S4xJEp0jjUBzGjQ4cO2UsvveQahjQNEbgYhAZY+xofOHCA404nOdFilB07Z+y+++7zgBk9Vx3LHF0iDUdErKRv9VnvPv74416PP6j9uUkIiPAgRZxDFbJ11Vd2rkvAaomtkySuKFW/+LhKjboMYUuDPHXqJOOas1mOkxHxSpoeZNxb2Fb20x//J3v6uZddy/w//tu32l996CNokJx6oaUHoYNKTMG90VdUdss/bpmAhaRCUBHyu9/9bvvMZz7j15ozlkotovut3/otb7ykiiTzn/7pn7qkkbQRMe7Zs8cbKqkqafkHf/AHzgxElJLekr6///u/75zrJ37iJ+xbv/VbnQno3TCJeezdu9d+8zd/04lGRCsi1fuSctXSUnkl9UQgIsSv/dqvtX/8x3+0t771rfbUU09527792799UzKqneKsIl59xByUJCn1kZRW38RUJGFD9V51CD5iSKpfMLrEQVbtnEgxPDzMjoYcXUp+EaPui4AluWWCiGhVjvLuYg9kEa2IO+xLqBmo/Fq6NQhIMAgHrkhOzAFhOyGLWWr1kfLJbpYdHBKbXnQpGWhg0hJPnz7jdCAcaOckiyybFp4fGbHHH3vMnnjybda7a5/9yX//7zbBGUnHHnjIvvIrv5KxlJQNpLjK+PCHP+yao5iycPN20i0TsBD3wQcfdGn2Ld/yLS4phOBCSBGDEE7SRcgrNfUrvuIr7JlnnnHElCoxNDRkH//4x+1f//Vf3f79/u//fkdqvf9Lv/RLLkXFDERE//Zv/+bBJJJ4P/MzP2O//du/fYWqKcT/7Gc/64gv5qG6pEqHkms7gIhI3v72t9u///u/u4ouwH3gAx+w3bt3b2YXAYrIJF1FwGfPnvW4VLVd/RsYGHCVWnW++uqrTtSPPPKIv688krjqj7izCFLEt8DJAyJw1SM1XvnEDAQjwU9IJuaiJPipz3qustQeMc1auj0IbO1lBflI6m6q1QFR+29tBB8mSdswj2xTEbX/hvhEf2II0IGYgsZNe6Px369VxAZbBB9/+SWX1GLC0k5lQmoMn3jiUYg1WBz0pje9yQWg6ENj/453vOOWQ5dvmYDFOT72sY85oUgtFEGf5Fzbf/iHf3BJInXyV3/1V02Ne+ihh7zhTz/9tH3+8593pBfB6B3ZpSpLCKxvcSoRnjqp/FJBxaEkgQcHB11iSm2VXask4Elq/c3f/I2Xp3rf8573eFme4ao/1Rx4eHjYpfBP/uRPOsP4hm/4hityS0oePHjQmZDsdDEjEZ44pZKYiwhMgydpKRNB7VUeEbjaJcKT3aznYkgqU78l2eW8kzNPzz7xiU+4DS6YqBw57kLEUDliIqpLRC9GIIagsmrp9iCwRbwVYpZ6LAKtTtEqaahn4XNRKRScZByGYOKzszOMD4e5s+igmWNljzB2Gv84+1or+ELjJvPoK9/1Lvs9NEqZhuVwn15Kknn1zne+0/76r//aifwxpLfer8bV6mZtd33LBKzCRVBSfX/u537O3v/+92/awR/60Ifc/pStqyQEF1GKaH/+53/eJcrv/u7v2k/91E+5LSxbVMQgaSfpLftR0k0e7d/4jd9wFVcAkJouu1GcLCRglS1pqzL279/vNqkIsqODzbABsOoN1c2wHSFgtMpDBCqAiYFIKm+XxD3VT+UTcR1ns+5jx4552SJQMR4RnupTH6VOiVhFePpW/eqfbGURq+qVVFYfxXE1oBpE9VvlyAmnMqVai2kor6S/8uldEbGIt0bA243WDe6J+EJCrGStJmbZuCLPzXuhFA4lsd6pXDNUbj7KVCywMfsb8Z1oPDWGSmU0rQ983de7nSzzUXghczNQowM1XPgp4SPtS5rpd3/3d2++74Xc5J9bJmCpge973/tcJZSDSg2XJJa6FxJMdd0iGn0kfU6cOOHEqbz66J6eiYClYqpc/da1VNIf/uEfdg/3n//5n9s3fdM3uWRW3jAJyUPpJEkpNUXEJIeSiECaghxb8pLLC/22t70tfNW/Vdd2ScAVE5FUHR4edueR2iqpKXV2DzZ8qGaLsPRbZYn4pA4dOXLEnVEXLlzw4sVANFAiapUnglVbpYWI2HWtwZcWoTwqT3AW4Qu+Yg4iWjGxnZjNdv2o3auCAOOzmbYhZhFnVY6AmCsvlFGjgwUFQY6nnvqcO1GlLQ3AgD/LjIw0UCVpc2L6z+PP0ZlR0kKffPJJZ9rV9CF8kcos5rwTHlaqv+7XLROwEFeS6Pd+7/dM9qtsPTX+XagJciDpeZiEuELI7/qu73KbU15hdeZ7vud7nHi/+qu/2hFXkkUeZdm8P/RDP+RlCDiaO/7Upz7lBCnvsfILmUW4+hby6z0hv4AjFVr2rKTje9/73k0bV8/1rp6FSflFlFJZrk4iKNmhktKh7SlpLy+1Bke2t7zF+shGllosv4A4rYhOA6Ky1Xd9i6mIaEWAqlft0z3VISkvpiRYyUSQY05qsxiQGIEkt8oUA9JHcFGZtfQlQKCKmK+0ibfK3JTE3PLN/TcflRnrhxAwj/oYaqzfCe6Lea+CNxqbYZi0hIVwdKckPKh2yu6U70b3bzmUUiqhVGchubzIargk5o/+6I86YUtSaipHCCnpqKkiSSJJDs0Lf/CDH0S1OOU27ac//WlXK5Rf0lmqtWxnEaikppI41Hd+53du2p+6p7LVDhFPyDAEOHl5wySiEGFJ9RWgqp1UyqPnIkQRsAjtdpPaovSlcNHbrbv23h2GgMbyCuKu9l67gn2HK7y54oTr+myHY7dMwKpSEsGNddQ8JSGxiFjELBs0tAWkioqIlFdEVN0AEZ4kqIhVz/RbkulLISZvTO1PDQJ3DAJbRHuFpHb7WOp0qHRX56sm+jvTkDtOwHemWbVSahB4vUJgi2DvRg+uR8BVk193oym1OmoQuNchIOK8UQol743yvfbPawT82sO4VsPrCgL3DnHeDNhqBHwzUKrlqUHgHoXA64uA5TzwhJpTfe2zdvcohO96s6QCXv1RI8J7d71B92iFVfDYxCWBSfdfP+keJWCAqIBykM53BNy83gJuAGc9J4JGP/TRTgyOqBC6v1M1EAV2JZx9yWzmBZ6xquQ/RBI8KjBRfx0RBYsKowvhskm8lWfe//DdyvsVeCiyaHZ22eYXVj3i7D8GmLYYf7BwXnCofLyDW9fBYfLglZYearG+YBfCswoY2s0y9+o/WWH6ZLCov+rZ3by85UCO165xAbGyHcCWdx43fbB2M6h1a0Kd+9pAm1T9nFXTQcYQqfl29782ENMODMvn+U1UTRsLAzQFpoHRGTp5dlioY6lgdQxspaR776uCUD5fKRjwW9MZvsa10trQjKua09wEqj8L+bberSTBgvyFQskWV7JMBbIraX2a7+D5Rr7AVF+Z4ISYxQhCuOcTBCpirA7IEAw2VxhVw6YKdiE+beGaeio4Ce6Va6K2SuxImefUBR1sX24f3iy3tMS+WPyLNbMhXVW5evO1SF/+kQBxgn13Aa4TrzAsRMgKgkF05VC6FtmWRCtEhHDFyq5/kj4lbVeipHfC91UmXVSRIs6GXos0sJWJdu9XKuZY3PuilS98hL17R4N79+pf9Vf9VPKY3AqcvHNbcAo1F9dGJGn1Ecz0rn8qUiUoSIX5lYhXKR6PWF0qBvEmIdYAPUS4k1NLNnJhylZWgdk9nMqhdkF/fOzVP4dXBUZqu3BF8BSuiLELB5G2WziGJufPlYU8IbwFowqcovWtFmvbZdGOvTwOBIfKyD7/l7b2zJ9YKceGd3chfdkIeFM9ATibXBL4bKrMAqAIzAlSkBCC8dEaTUkAATKqMEjdVy6+9Y52VHBEl/QFWR3gPNOgZSaIQuHsGpUr9SjLFp65BXYMRCLXba019gLviT8gjyOSkIg+hIjkHa48czhVIVzYbi0YlwTQx9e5hkMteAEbIa5goPdDxgAM8/mSrWQ2bHklx3WwK8jSyppl1nKECaYsnQq1nLCie+Db1WERJN31RfLqo/8IcEA45AQqJi/5KFhWMgifgK1wMKK9tHhQdlgrawUHQxjpO3jRSpkFK85f5HOBbAEcC+PHkS2sVhp+E6h5d1aMqcV3NwkIm0RbAbSAChBcvXEg0SRxtVgFCCCh06Faqgsvo4KcletQ9dFm3F4q931jMvYt8bLX2Q50jR3zRfQLJ620eN5K01+wSLrDoge/Ce278e7C4bq1iThDolVvKnBy2EgKQ4xOdNwXAoZ67jVlUoa/W3m/SqWLaOtUpQqz44L/iobLWSa77kf8zM7HbWl5zcbGZyHetB3uHLy3CNhhRB/UvcqeVMIPN5PUN+GZwwx4gU8VKHC7igk5UwzyOl6Ra0vN5n5FW3Mc8j1wKAVcLc6OWGlt0YrTZ6zAuUnZ05+x9XNPW3Lofj6sDQ/hq3a8humuE/BmSJoAF3L+LeqsAi4I5ZwNhAXgZRGgvoW8+RUIrsm5a0SqdbLZIpIobHfigFO5Ln2ChQqeZ22KldbLFLkO0F+00uoY5XFcahsfl/RAmffKOTb0llRu3n3XBuHa8ZWUkJwQyvFxOIXop1tcb9r7/A7NB2Ba9sOzuAdyl1GdfWM210SAGxurOSxcKkPATgDc93qwGDFNMmzCts6C9PX1DRufmGHFVBZnVsk6rfUKp9bi0qoVuN/cxIKQxF1HI9pM8x1GuqIPAo+PO0SrW564ci2t8lPjrN8i6vwye18hIDiNwTU2MX4cnb75nIivgG8EHAsEBmPhW+BUSgaeRTZqF1Hnxl+xlVeeslJ2FVjDPDakkotxBmljgg0aOZ8p3jFE3QidO5zuDuQBmBMu0iLgbkEHdU8pAjJunv8iIlrnzJoYK27YktM3yvYNv0BnX+nEuzwrSWLzrxxhQDj3piQkzQO8aNaiXEfSLGwQQsuRAXGXly/AMVGZnUgXsFE4CkMbl0Gslp0nHxx17hUrXvoE5WQt8egPWKQ92CHjDsP8OsUFHnVpEwFPE5yAkSME15K2QlYliFYEqkfldZBNB1d7dpiX4MqPCB/tFiHsdvgKHnpd25rGgTmIFU2CpBXEgm5tFfVZO0rIG51FEq+uauOFokvetTXt7RWxyZlFO/7qeXdmvemJo9bfp43K714KhIDwpgILRs+T4xNEVqVpuLnExusl7mnMi+BQqRQBqpB/GXwRbFSO4IetH9Fm7bYMDhWxPLRhIuiGhuP4pPIZg9LashU4rUG7UcLFKBf82wD/osCbBf6lNfBrfszWL71ii5/7C0v17LOO//RTFk0HmzIGjb0zf29rMcPtVR0gEpjlhOlnsoYDICSD+8mJUAa4jpxwwajv4AeiKd+mlN65duekLKBwxJb0YRB86xO4axm1uTz5BSvOYadkpgEyklYMJc7Ce3YlLHOubKSx32LD7+W4xw6LdD14l9XqKviAVJImgdoG13bCVb8FJyQGnxLMqqzDtHx9dICEctq4KSFBAbxUIoX4JwAfBBzc1BPXOsvYxw6juhYrxetZ4bVq45NLNjO/wgKVJRacrLr3OZ1OuqTNIZnb25ptoK+T3UGarLtT+3xV1HEv9bX8cxWM1Acxbl+vi/YV4pPu55ccl4pIxDywghxhXklgIlwSnLCWmYnYYJWPlnRqKrKzq5MlgmkncjpNIWKGvKkPMI1H8hbXqQrAtHDpWcuNfME2Jk9bfglVGmYnOEZTnMKA/Zufn7C6/W+09J6HLN4+YMldD/D89uTl9WKhX1sCdo4INB2wAF9HUIgow8TzMuowugqqrdQbAMCu+NffDT98+UbfUiHxLMqphQQWOvvev/MnrTDyP1Gjn3dC0ACVUa1irYct+fD3WqQb++Vup2o4OdKAPL45uSiRpBPuQNQyzKmYQVtAAsi2k1QNbH/yYZ9tel3FACqS2jUO0FcEHHj55TtQof6Hv0gkkFd8UwgWTaPdxJttZmHdzl0Yt6npBVaMFRA0BVeruzpa7LGHDrAbCkyuimBU4mudRKybMxWCk1K1tEUrEWNbXxeT4xoYlKQyb2ouzr38Na3H1RLWZ599BqaFQwpzQJsmvPWtb/M14HquFDA8fVMfWp/2gZZzPlFXj58gYevnn7bMi//MfPAFaB5YMt1WRJ2u3/8Ga3v//2lRn04KYO0F3safLwMBAyj1/IoBhqCQsJHQBhHhAJBiFmSEaCUFr5x7u42e7vQKyC7bV8QcZf44UkTlGX/a8qf+hxUXTzvxJh78HosOPlkpQe3nMhBbO5V6B+5vU4+IWR8hppwm+o+KnB87h9Nt0qL17HzSzh7UbMIWcaKtagbtDVCFZ07A+hWYLwGB63cggTb7plu8J/LXmJVUN6p1LFVnOUvbhfFlO31mlLXdS9ba0miPPnzABvu7HI7BGKt+FfIaJselq+qoJuDKdQlT6tL5szY+PWd7Dx5laWojTdRAXpmkEmsHl1kkrzZsaGcJrCSy1pd/6lOf9I0c9u3bTx9DIg7LCNogvI2V1jn6k+2UkqjmeOvXXv4XJ+T84pSlho5Z+1f9INNM/YBGZVz5/pWtufGvu0/AIIE7GISEAq7mIcO5Vz2RGoj6V0Zli2nH+ttULW7c9StzuDTa0Nwx0kue27kTVrj8GYt1HLXo7nc6AstRJsQElRlU8rymSdTJR4MMUjjhqv4K4yhjj+XHR2zjzGkrnR7BcbJgiWOHLfXYQxZhRw9e8KybqF25EDIWSzFbL0Wt4LgTIhCvUJcTt+rgfyxSshT6oVTEzcT4aQQj2GwRVMKpuYxdvDxvPd3tNtTf5jahMxgRu5K3t7qA4PYd++sw8oqAE7jkbZc6GtQpP8bGetY2CkjcWBpFDnV5G8JVCSJKbQF1YWTEjh47aql0nUtOPRNha1ujv/3Q37Cjy/usm62Zdk4wPQRSDO0tDVON48jbOP+cZU581hrf+I2W6IB4JazU1k04BQxh5zK3f3IXCbgKIavbUhkAqapSo0uoK1JnozpP9a4niBOGUsJpIYkf1bGSmxKkCtH9nvqjx3caObcrN7xHfXK6IU3yU2NWGD2PzQ7Tgcuz3SHMps3ivWyOgBPKPVI0LYLzpLqFEhxj2Zh9eiFtoxsphLUkrCS7FOYgp3eJKvfX5e0t7WymL6f05lgEklwqq1TrqOy+lI62EQIql8oIv3XJtRcblM2dO5O2K9fvVerHb6LTEdbZgqhQhqCd+V2/6gSbS3zso/8MM+rxjdi17U01sWurow//3d+yaUXWvvprvsY3E6x+vl3pETS7hGU5WolYApmI1XDabC9vipAd8LcGp+sR8O2xhO16UbkXepa9sYo/VnIuxHcB4sVzF+W4xi8P8XpjEB44yEBIoI37Hy80Xm9HQvDQo3EkDZUAviN+8OvO/dWghuSiujQFFg40j0q5DM62UVrHuTrDu+z/Z++9gyy9rsPO0znHmZ6cEwaZIAgCjCAokiIVSFMSlUOVbWnX9lr22rV/uNZbtter9dZWee21XSt5LVdpdynJ2ZIoySIpgpkUCAIkBJCIM4PBYPJ0T+cc9vc73/tev+7pCd0zAINxZ/p96cZzT7rnnntv2123R/t990T7PXdFy44dECSMx9rkvKSVvrJqjJhjAnwZX6gv/uYb8jq5UBeT8IIp/iYh6Fn+EkHV2FXL8w8EwyOrrglVWiMXU3h1UzjAzONyKhJaV+0ZJZysQLbpynrczJuC6VQapxZnmWWgvPkZTsaYmox5ZyKcQrwOXaiZjLELzDfYnLC1Fca2hqR2qyU3onvssT/LPd6uRrzmVYYlBNFMPfuhjbHF09QgzJZZgTIotGSehCpt5NOt+dmYWWytspO7gAClxVQulGozHYCv8aKnn9dzokE73Lym8Wtl9Xq8U/rWcYyGGtkCqpATTkqYOpEhA/X2ubzP63KnFXE28lvkW02Z8LIbeM+0mUaqhbHBqJ8VXo1oC8ZHoc3xLkRVwk4rafqDW6dCMspuMkCUdfwZchoJZPdJueprr/VIbWObxRzTJ986i9HqckEgQCa7SEluXI0zLQ3DcdvuLbFjK/OlJqoaI61fspOCiMv6WfhNhhVDmLI88YwZg1kMVTPztKeeIdgNlulOn+7HNjh4KSWrRsDVBOrz1m3bY4rps2+xeaPb/q6W0jarTGd/eC/ezwHcxcmxaOsEz0sNv2boWKWNhLw9cvPhlhFwMTdXIFKeTq56bMfSOHENdl6ZB6upuBhU83jzzVlnDtQvp5Ack8M50/qtZKbOOZVFp4hE2TYreoOIcvVakK8ImATHVQkmAaetgD20lbwjSDqniGAw1qMO4s34FC+4DBJVBuvp+8yzrF7lG7FFLEezCxI0zyJbCm3bUSFw008jjb9yajz+83PYJciyFSncQJxctMDVfOpJeM/pqfjoPRNx264twE3PNfOhDdY/iZi6JoeoEHRRy/X/Wglbm2VTORAokb/CKObYR60g3soY8wZLcIzraRoy6uZm5sIrbatNbluVzgNbBthY8cl4N6d4uKeb79cKy++Fb30sNPVwIuFktCGF65maq5OATaskTmIGnjntdWtI79bkQsuWuQudilXZsKQjBtxysQ6OxNmrRWNrAFFzmwlAiKqEKV689r90Yh2ODdZNSdxgnUQUjCG0JMMKSVB5t7ELOVYNYyA9CJWIWkrekUtIF51RZHz5vyhf4kNKAhzow1pJiPzxL+Uor4hRvM8U/ohQRR47Ohrivk2tMdCqmrkUZ3DWeGqQjePV3KG5JiSq87l7tzfFxDgrkTJtJTH3RW5L8fLYUrx4YTJ2bZ6LLhUV4VTVWHy2PbcgVNpoTumfXGaLCj+H08RGiFe8cizpbqf7GZa0QKRXD3Wxd9+++PSffiZ3LnUP8xsNVn0BD68pzhBub6YPpDDhhMG2DMu0Ur7Z+PXmCRgMEInkPjl+pC45VZQdL/fG8IIlM7nQWvUs8KP6xcfXn4iRxBjVFueQWEhi70PfaKUL3LJwz7RmYPtGkTSlJHnYmeXYUaMLhLfonCVqczBdZOcuQZwFWAoilAwLASDJkp7/fq+vxFNGJ7VySYL2mUglkbdh/NrR1RI7uxpjDC+racbFPc31MThj30nAS7G7vy12T3Cu1YWmaFbigYnmxarCmId5zLDMcGtva+zox6EDl9QlmEBdq9NZMOtsDzll3cs6k3AjIaeESAsh5Jg3NZQir2kMS5NTFRuKcMza31ghWp/dXP8400cPPfjW3NN5WXqSEwCuxTtPHzl3/lyejrF6R9XrlWg+i42dMc18fRtMp66tH9hgLENA2LAk4Gwnjcx2XC/Hq3+/eQKmAsLaoEtkAlVk1deU8VtDC+5jDgh8J3sSE8trkYiOkkhksyCNBLNRIjG/SnBLW/eu9up+0apP1wy2IyUx89MC2ciyzzKddUY2bTjUdpRIKeXQoUsz+GcPX0jnDNtdIBKfE0aCy4iUzXOOa5GgCcKsCDVNSey7Sr2zngXxSYBFW0Ao4H+WpYD6LzfTpnrbm9miKlNET/1C9LXWx+W2prh3U0s8sLsHCdIQU1i/n7k4GU8hrvs766MXQcJoj/WwEFIThC4Gqe4XECPPhFzWbkM/tX1fWpUX8TzDYDUyMhoTc3XR0wReZVfQzoTP2iUlE6p8d/zrmVQTE2OMcT3Kxoovh9p6O+bfxkb+qsKnT5/J841kAGuVVVvGcm7cAd85NM96bD8t7QU+FZK3Ap/adq5IuL6Hla1YX9pEGiVvdp6W1DQ02NDFmJ6YRI3AFwY14ktf+iJ7P2+NA/sPgJGL7PZwOTpQS1oZWyzw3NXZFd/ilD+9fe5705tRb9ZHKALc+bvTp19lgv4E5wkdyxMUPPlAB/0dO3bG3j174+Chg3Hw4IE826mnp7s6UV82OwGMqrOE+lO3NIpoUu2hfdVxngijdKq0uUx4zSvUUSVC75WXpDcP3i9OjcXS+FASooYqXha5maZKjAlh3iMxIdikFfGgEjUTeF+lnQrhkh5jMq+XYhIPoS1trPP1fKap+TRe2YqsG+PsBhFtEasz9epgyeBAV2uMTqMZUI92nrs6FqOnfSnaGnArBJkXYT5a8JlpxryBhiVCKlVsl/WuqX/W77o/NKBM41U4JZKbF/7XTKfp5ql3VSOWx4ZNjMOdSltH8GzqpibGt5yocTWCNDvxafPmgWT6J0++nELgugJgdT3EExjQLNNcDfRvEy6aod+5naZFvbJaScZ7M0O0myLgCl+pVL2CPZj6x0YG49Of/HQ8d+xU/Mov/6UYGhzC+vdC/PbHP84ByL2xY9vWeI7nTgh3+/ZtHAT14Tj1ysl4FRXnrW99aDUoVjyXxOqRLidOvAzBHi+I9cxZGMMwbn/OM3OgWnMjgl+J5oHcl6snPbRgvOjlTN6dO3fEvn0Q9cGDeZyJx31K1Fqn9UTSc6ue3SeKIKrbPltc3lc+XfdCuiREKlIN3EMAC5MjsTCK8YxOTj9ZK6uaThklZy/p1X5XKlegnDktQXhK4FSl+eYwWdK1vOIfeEJ1LzBn9MT5GdRm3tZNxix0NjINKSStSSjstAEhdiBOW/HosIXnR7GIU5/tiNxBLOLtzXPR0zAfQEYwACdU/Tn81yEIhxs2UT/jQpIZwSrmT9b1+j+1aYSDwQbNxRDOLM9++VNx/vSpdOfce+f9cde7fyTauvqK9haRr/gtJaZ18gABT9Hs7++l//uvScCm6+SYHE8T8XA50zo/XOZXW9Ba7/K7ALH+TjGhZTU04/dQfKAftfMXoRAGlYcNXDZOwCJbSiJKlVum9AV9QMwpVMIdu/fFnoOHox0n+NtuO4xVb1PcefuRPIVBwEg4rTjBuwKkGSy7/eiROHzkEMBiQrz16kedKGl/8zf/Nczgd/LwqCZUo1a4mxP0DXC89jatK3I/fuWC4gD6loQr8RvGx8eSobzw/Itof49GN4zk4fe8O/4yzEZVK7kjcV2a51xoWoptb7a50jGZU9kN+bD2T6bxUyVu6pzAyRVUo5wlpSupiE952ZnEX6q3nhUi5k7wFsmpg7c8u6ooiYafbKPVE2EIGR+46l21ua0+unHeneH5DERrdVoRy928b2BI1kQckbCFcXAbanQr7R+ZmY+hqbno70AKQ+0jqNFusSNxK9GzGAohSbZjCZuBy/BSklh4NjUzLiqZtbrWT1HvIiH3KcVFd+7RDMYvc4wnBig9rDy6U5/woi/LdGvnXTJBrx7zc/z48TgA0/YMq/LbWimFR3t7Gy6W/XlGlWdVrceQtTrPBRbMaEBrZa7aYVpqeqmtKCDWA6fVOTuc2WBYFv0AMU3khZVNp/CW9u544K2HUD3YYoQF4g++7UHiiJjs+EBD7Jhdu3biS9oU45P4+aLeHeUYUTFSKXKtYMfprO7Jfp4MaG6TTOY36b8LE2mBkDs6OVAMK6PTDRKk4x33LprTiYQ6FOqQ0ojyKFC11PWvJTdNKayEwVhTV48xywGXarQBAkw1Wn6aiFq8XvNXaklqEhkRe9lpWoK5BTFVn8lMDbGaFVXKUIKhtgilam0we/2hlcwSk5+l9WwH76UDp5FnK0C1HNgEspYrEWf4loyAZy3R9RAGJBLHL8/G85eYQUBE10Ox7YyLB7pbooNCaD2JyCjLA31cUqczjON6pw4TTrZXmFkb4paMnqc1gzDgXzKw0lkDZmzSeRxPNJTZj806mSw24n3lqjXzvnYo+9P+VmO7ePFCvPc9D0cbeHOtYDrnfnfu3MXw78s5PPPIoI0GCXYejc4hRwOL/1P1UY2GmG1kMSwrtb31lbJhAk4ukmUJYIkXz5jpwfjcpz8dv/W7v8fBxY/E+XPnIYw5zkZ9bzz/3PMgD4TL2biTjI+ff+FFTjC/M77wxS9z2ts98bM//TE6hU6EEK8VJDo7Ors8EQQkxUI6j5RYWpoKfIVikDWrMof29o7kouBmjq/rVV1APonWYF6JJZU8i+f8BP6BQKiGyLEiXhroim83PGYx/xzHmY4O8h4iXppCdXbzM/x3s8yshnXyD+TP+lTqZgfTAJ8KQudOyuUvBZUfMh3JiJCpKGZ6nKmir07F1083RG+L87oouORDKqbLCqIfxVH63fsj3vxQY3Sj9PRilNqKUXmyGcdA/IqTMUA0m7qboxcDV3cjBCwwE26WW5RpN1ilLF3/3zJU216+uMqVhmQz/Fx12MCXjCWfC1jMrfMiwmCe+XGX/6mlZZuthwVfJ0jAGrAmcc7oY/jkMsKSuK+WVIbviZRDQ4Npid6/f3/RV1dLcM332DpwYpqHuWljyJBzwsVtCoxrpr/6xw0RsGpyzs+pu8FZygnqhWiLU6fPJ+NtZcywhfWVDRDC888/F5cYBxt6OEp06PJQnD57JpyP05dVr5oLHE261UPOKkRZ7dA16p5dRset7AS6uSaR+zlNTi5FHyfad3R2pMTOvlYy1eTpveijUaM25AJ43qUUXoJjMy1QLGcjRYUQ81pbaG0GEhVtsTTJJoGi+kzaJbSUxQnW8oqIliFDIp8kAPOr+ZPAs8a+I0Z+Qzpo8RdUvi6NX3WI0yIPfUEWUf+wHj+/GPf11wcbj0DwBSGrro+z0OG5kcXYB8Ocva8jGrt1z0RLIM4C+YxhS5gnc81EDmimlHgAMBc9lBRre60/02BuilBXx3SJUhj8KKSuDKtSyRJxTVMb7JRSnfRqgHjUdOaXmmKMA+8WMZJtOfTm6N0zjaBvjk4MWLqAqto2JyyEzZUhYUf+zkQ4lhVfuhm+Zd9eGX3FG9Pu3r0ntcOzZ2G2pL2W4WtF4jUeFHiz+kyzJ1s9682dVnJtt/YWOrDALd+tM2yIgFMCVRBqiYqJYjpt1DPn9ch7H4n73vJAbEbl6ODIz3FU3Z6ermy86SbpEIn1oQfuZwH1pnjwrffntw7GHO6yYeet3R3LLXMKJOdKaXgRCjJZjlHc1VPHnq7O0Fj1zDPfrn5WUol4BpmBf1cG4kioSBR3/bBDGQEW0bLtItmVqZbfmL4iWSxABIZ5aPiZefLrMfLx34rFi8w5i6z5me8is+RqupR0ekAVhSR5Z32oxW37o+V9D0fD7r055EgGoeQ2H/Kow8XQZW77DnXF3e2cg4warEHK+Vyzc0TQQhm3A+79exn/Ytxq5MOlC2Px1KtjcXqsIXAnEkwAAEAASURBVIZGFmg6yIU0Prh7NjZ1MZe8g/qkjw61IZ+Em+U59QeRcAtI+JCMqqh3tvtagMpowiZrn21Ioge5HYINDY3EN556OuZg9K7XVYuYvHgSH+hn80xmz1NOu0WRcsWvRGe/eZrmyZdfTjzr7u5JK/qKiGs8aH3vR1pLtCcxsHry5nos0SXzqM16EabrTEuz/WhQy0uNy+ZX3uWHG//ZEAEXnUIhAii5BlfHLnDivRxIvQ8McYwiAHt7uyFMuHAltGHUGmBFDZCB8WpCl/ugYhDH7U4auL/RUEERoi/fmVcZVJUHWTo28TScjmBZZVB5MCQP4HXtt+IL7yCuJYGsRHG1i4DP/MVU81ouq0yz8lopLy8SGJIXlWz21MmIbfuiYe/tTCHhvIGHVD1OCk6LaHCrg5nJpOoRd3MvvpQGriWHCOcvRt3wSMyz0VwjTKl+5+5KvYu6pCS2QYC7pb0p7rwPS+q9bYH/BoZCUESmQJUlZsfCzCbF3oZJbAk43yMpZ8cmYuyijh5ddKWkCMEySTw9sxAXMWpNdlOnRD7z4U+6S1AwrWT/O5XouE5mJZyIUvlZCZYVT0Qq+6VEbCTxAoxuHnzYihr7Icairt31AHnPgXY8qlXYcepqzWlF1jz4/dKlS/HKqVdyyZ/H114vjXmIv9uYLWmjnBPHTyCJ59LmUotfq8uqfb4yHjQCLs0DpybgpDGrwCc1FAEpfohPCbTarK55v24CTuOVhQh0pG6qTBSeOx/wfpE9gmBX1Yogc6r31sSnhTSjFHIj8YDOpnlZd7/fSBBAVwJpjZQlcqz6lIRb864g4FXAo1053nZeWImNe2UOH1JqyjErwF8L6KqO2VovwKOiPi+wMH72FAvzXZTfvwmPJvIGKeFeji/IiTog0ZYw7OVkLdIDzIn6LZvZEgir9aNfKHg17S/dK7P4ihVLo1ZSFVBeoC9m2CZWidwMIWLApUYF3OZRk51OWmzxuWj31h09cWdHW+xnc4URHKQdeze1Ncb2vrZoAYG3d09SpeV25W0WTnqMMjql5H5bznG6i0iavLJFBb5kXF7XBtqRr7UNQDRpW4GQF1GfaWAyMpl7eVi7fa5F2JkMw/VwQKn5MtL3woWLqRF2C2Nw4nrpLLOP6SYt0RrAlOI3Y4kumqz9gTq7aWLHVl7xkEwPtUY4iC9Xwdci/ZW/6ybgFQacdHSgUBy3l7REUjhy9MpSrvWG5KKEIaViIn7xfLXfRDfbe51glDSMcbOaYGuTmp9wWxN2WlcZgy3pGy1BVybgi/TXUHuSo1ZKSclCJZQqZ1+O8a8+HvMXh9hdQ8JFC7F8/5CSqQLzVL5Dd8x61TPcqGduO0Zw/MDWoPaSgY73Xw4LaIBtNm3RIC+FtHUJoV2T3/itCGNg7zjdDxBGa2P0zjXk3ldOgTsGbutojM0dTdEG5nW1kNoMLKQafLB88tHQl4xKiQIRE4ry8nbtnxLopCsEMPlh/V9gvMgEIxmgKUA8Tv0cOXIkfZOVhs7NusjgekFpe+LEibSBbMMm08YC/hsJErhlDgwMxMsnX8ndOry/uUBfgE8LaK3oMtm2wn5ErgmH60LriuLXTcBVTyQNDnINEVzJVHaq0uMq9UgCpQq135ffmcFVEq6otshNvBuIapRKbPFzRblllkX5Rczy3cor32wrSFV40lSeHTok8Qh709eGQsrl+5IhKVVQ6Rc6G6LpwV3RMIU3kEQOgskUZQ5SVTKJfIaClPpiNfkXbSbuA7enij23dyc2B6fJGJ8LULmgjSEJN9SNbuHSC9H18Sfnn6e+jZQj8TrGG8VTTpab0sikpJ2ijpPMPc3yPGt8ruM8LyLJF/Gqu2qgjkt5TI3LDd0koRIoz/zX1HB4b1WL+qq12V7iI7mtGalyvDo+Ph7dGD8lWK3I+jRrmLqRYDwlqAYvt85RBZeoa4d1a+Vjnds72tMS/cST30CCX4hDh4ptdhJeayW6kXcSMBpdo1NirOgqNi4s+nl5avZGMirirJuAEzNMK/D9y3vVHwCqammfVF4XH6/8Xeu7kkc89HqtkLQiplnQdYKSqUCQ60Tkc2ksWh0z1a0SCZM6zFOss3z/EgNXJ1v5LBGTRx1qZduu7mj7iXdAl4x3MZC5b3PaEZw+gRiXkPC5GMT3/PlsPP3JjYd5iryxaDINNXvhZHpxScSCLeVvbqHhg5IVoU/R00yzOR+cRizeORYuppSIJuFlE5j7TPhDuKQZZ2HHJH1ajwrdQeIOmFhDOpisbFr5ZD51GCGL/ivhU/1a3qy4Wr8q9IoGAFKYhep0wYkKSzOEqwOPxKjk1WjlvX/XGs9apymMphKw008DzHI4dr6RIJE24cSjh57+BKrwEv3q8hJ+1v0GgwxaUhEfDMmYSyisAEh+vu7Pugm4qkIreQ0Ce+YycKfX9Qq4AqnLxq3u1Exd82M8kbyMX/Np1W2O81a9W/2ohClySrQumMPqSDyLvMZzGqcGnWpiAmIIZ4lpl4JwjVcA32efrgy8z/z4khJUxjbPvgZDcfzzj8Uzn/ijmJ1mKo5/hZRpjDY8xdpxS+yAGLvz2hKdXH3XpPcO+SVo2E6n4ZH3xNKuzSAwUtH6uxrBitCYrE8Fhs73TkN8jUoc3vmsVHa4LBJJpNiqgLlpIRmaRczMQwOa2UjosgK/aakmIn9XC2amxlCBTyVaCYrVqaow8oMajYExoV5qS06JMX4dGsILC+mpFdilgDrvaB12XLtv3z4MTduuIKoiI+vO4gz87s8wDWQdXMSgx96NhzocjnbnvHEp9VdbvNcvjYUnxlGZt5Au6YhKbWQ+eH0E7DiHvzQ0uNZXaWGHcTLCkjvTJ2uRcKhYTRBNy3feLwfiGZVXiXPciyzkeM0gUtWWUALRnCvZZT0zY14UEuZqWVIz4iiBvV4R8iU5M0WWvse5fA4DjVIxS1O6rqqxKncGiQCpJMHTUZfPjcYzn/0mFlUcWu67P6ZZLTWF/7bF1reiTrnCh6WXLQNbcYAvNgufwRA138TiA6Zz6hj71X358WiZxBPpp38IJAAZEnAlTIGzjaVKfEigasmdglCN4R9kkURc2w9latAKYjYxybnMQ/zmp+QWxgUozGsl/DOBrTCR2xPBhIolmBrvStjwfRVhp3EvmSF5Kr1FZjUOhmTJYShTY5W7RSqBXQAjflweHYn+3r5Up1dLxKIuxa/fnMMdwo3S+23stCEBlvhSxi3aZi+sDL6X6FXdlcAykRuV4CtzWv1EWW5R1I4hC5ikYdR2CwNhtBpOq5PXPK+PgBPJKx2SxGunKYHdKwmkrVBALXKUZa31LlGqgj2Cz9sbkcCWY9zEXRIW9wXRVLLLYu2AtGzycpmIi7SWtxwkXlB75cuaz7SZCdA6Pc4EruKoGpn71SGR1pqI6BXJAiE3NS5gIFqKkdOv5BrgeQgS6mCFD+qxK2sglHkMJ/Nspt6CHqtrRSPfcv6xWj/qiUErkNg5ULX1We+yXT5IYgbW8ao7ExhyJZx8dLQpfc8BH+Fd9o27bgjUNnTprd2tpOHkBqa4LsMAGMGXs+AZp3A8MU/zXyZojyvJIYFwSu+1oj6VSlqV5ZBwqtRXCSxMtWYrhV1Hzk6PTh39/X/wD+Oxxx/HqNSZfgSXmRb64Ac/GL/2a/9LHDp48AqCLAuQ2E6dOsXm9CM55bR167YkwJKIS0JeoQmUiblK9K4LdtysxFd9l6GU6WqicltpRwUvJPY14xFNiC2x93YOOYWdwydzyNkN87nxsD4CzkpWMs+KFpVeYnmX3MMOoP+rwSi1z34oUlSjLD+Trtg+ppAAyzFW3glsl7OpCTjoN6wGVLVDoNoEVsKkqFi1PmoSIFmRVhXRSBkx81z5A5paltJJxDSYUcKgeLzqb5klFNOzpTve/Yvvi9sf2hszTMLmRuqMhRthhs2oys2oyvp0t3BtYYFAk0zSzk3kplw7WJ/cvXuRxjDN8ULdpTJFdax/xcAggWq0cm7YbWN1p3TRiNV2HngMBjGMpUpoV6BEc9QVlmJnR33cvbMzukinUevZkdnYSj27W5H8CVHKMe9qo4v7NMKIBxbiV69l+6txr3KTsDSy9hRrpaAwH9uEYq8mgTV6UaZHvmdefja+8Zl/jS3gQ9HcsTkls91TTxtthzufyvyeYON2VXAdhabREk++fIL8rD8loKI3smJNH/lFGKnlqGUtNwznFuaftUarQn/zySdj//59CbPUAsknUaLSxgVmDCbwy1cr0sHE1XbWZQV+Uq5gSXpJ+FgXy64IxrLNtPxGwroIOAsl11KF1vosUi3pMzwxSOMryF0p2foVwRYWD9VXlS/V57wxffVNJcaVl1JtSrRZI3oVYBSbJVMRkTTr4wsDMMN7v3hHHlWiz4+rfgBwnWcRgztpidZpIbmlQBf4q8BYVaGLjkrOChG6T93EheEcS7Z0uwTPsRB58Kfn1Rz1maufDTZLpTycIhaRSuwmmd+Jm3tZn2X54fmXOA61kTlajvtsw9Ex22edBUbRQNsrnjaTbxMMT0k8jVTwq/7MThPp3GG8VH2NT1t6ORt4M7t1zI/NsDUtTgd4dB3uaI6tLezEsciwSRFOJoXMtbwy8JLHtEQvsACknnrpAJNjPEslJH5U7rNcmX4Bw2KfKNqLBF9qANbJm6kRhDs5PhbjLOa33Oxzr2ys/tQTX4s//sTnIVCYOoQ4xQkS1kjrfmHgqouzI5PR18MSwta6+Piv/7P4dw5FAMwMrqLWp5VnvbwcWjjXrytv+nsD0xkI0qNkGnDiaUEb+D/+4d/DVkE/ykSAoVqItffdAn3uyjjzfPmV0/E3/8e/Fx/9iY9Z5SsDceocarB5fg7F3L3VHWBkXCaoEvOVSVe/WYV5qz+vfE7CLV+Ve/zoF+3JgZacnLOMsP6rwC94+dXTCnwJWARKJLIzkzKvTON7ESA5Oun4v0agVN6b71WJWEITwG7kZiYgy3JYybTyfU0HJNH5Egv09Ktn4tj/+9kY+tzjEB5GDDsy/yQeQlkPWwYipUrr++JDtlPEbNzeF1t/8kOx/QffjxRRZgo5Axlw65NSQCksvU0yjvbeMhzrGx/aLd5lmaalDqRpAbZzeF6dn2BdNfjU0co7qL2OKSTBbB4WUPhf51PxzvcGNgVcYt48bSNIuKsH0qpZZAAOSMsMnApYL/NaYuUxFXCN9i/+ws/Fex95JCanOTYFLvjYn32FNcKvxGNPnI0e/NxbYC4SXwdXK+m43w3tuzqb4rmTl5CK87Hn9r1obnzGldFWuM2Qm0nMsweZMGkCIJ6yKI67MEZLeDuE2YtH2zMnXo0THLH6yP1HM55nADdgCazLDDNTtJwG5phZsABxT0yOp9U7meNK6BRtlOm3MaeMhpUQ9RREQwqF4vZGf9dFwDQ/ASSXQeegbK4ga507DUxhjAEgy4G4V1TedytDGav4wq9Ycp2Q86fiToE/1dglAS4TtEhX/CXhGZPnMl6ZsChyVWblx7ySxvaWEsV2SqQkMX+JcGWwHbwxyyLzjN/c1sWxJNtj9zveHK3sCrHA/GYSFsi0hEQwF5FJH+Q6/H4XdeSvENySXJ/7eSTRwtJs9HV1s9YaFdsi+CtD7b1EPA3xNjEAdrlgYfCyDKeXltgbGmRnBVJWsZJwGOt4X09d3L69hwmrOvaWRhTKMNPtqgJLC8v4RaKyTK/1wCmNmaQpVENrSMjLKjhZcNkAtRZhKlI7bGAZYfYdSe9/6G1xN1JyBIvyOJ5riwwLPv1759PTzDnwTuDl3LX7fW1iDXMa5YGVLqCtGAcbWxbZVYTxPMTZDDPSieL88GQuT+xub45RNs5vYAhjmy5xmHk/ZyF34PI7iataC/aATpan7mYs7JpyUzdgVOxB+xniKNYmGM/Wvk7sCgxRaPMFDJOtnd2xd/+BbPQyLgqEIgiFOjSIWNKmwoO4JTNL+uEFdb/RsD4CBuD+S5gD8CQECdhpDnuPTi5GZUgP61X0WtZFbpRxamuW9eSHTlB9M4vipzbSGvclUifmVb7nO9NnLlUgzLN2dIIdzrtwBChDVrV84Cq8VhN1zedKnqYqGZRXWpj1rpS3IoHNqMApoWBD6Xp2ZWhhLrIeD7aWXTs5FwplmW1rFiBgiQoyQaK6dpkH/HyVQEpcva7UOmRccydP4op5IlU3czUoOUuJWIxiK++5uAC/HZW4DQmjI0kyCN45vaSkElxlC+yzURbzj4/MINVwOAEwHRixdmPQagO5ltD0yjKLEmp/zcWvZW5ehdPVpXABozKN8fnTI8shhVNkXDcxZdQzwlTSt56MLRfP5pTOngNb48KugXj21Kts+8ORKsCnkzFuD3W9hPW+CWnoGPjC8Gj0skeze4BNsvi5FS3CBRL2TFdHS0yhHo/CsPbu24mVeyKGsXT3tbekZB7Bda0BmA2OcyIhPbOjrylG8FcXU8Xj8yNTSP+2nNYaY/zsMMU92F569Xzsv/2uuItN+MWrEh1pXE2wBo4RyAgcWo4kDAzC5MbC+ggYBCqzrroUyjnzhEG6C0CWhReoXlTINN6V1VtZNbvRQKMyYkkkK2OVTxKaK3jqc9xZ5mzyVbmL1Pw5vlnEyKYnz6oYZZZc6RSJhuDEvxuZOce6d+8edvsoLISOzXLMbyRWJy2HtRCU/LIxRK1KZ4iQNbUedTn62S9ER18vZVbgScWWqGfhHskDVVFK1EPYdah1Ep2V13A3g4V6CdWwti0ilH+LqHUJTZCimJcvCHYGfXJWndJERFyh2sn1868waPWh2m/f1BG3be5CckPAPKtaLrGGu+yp5bZ7Z6aVQHtymFGxqqaGVn5b41qFje0r4YT6rHQSv+ZfPR5j//n/i/HHvhhz504zVYnLrt5nnb3xV7t647Nbu+KLY7MxzKYRrvFVYLijiLCfRXPoQkpu3sTeZzDFy0jWOd65zNSy+vD5bkWydvd3Y3DaCfFNMF/MDiTDYxi7OCMZouzAzuA4uAtCHdjUiRcrzAKpjgymPLNBs6GPJhl7z8CML1y8FJdgAm/fwXGiMGti8FcDn4RB8bzU6oFqFdypwmstXFoDcDWv1kfAVkcVCVUkr3a8hVOZcFtU1zeWHVFTCDUl4eqG1EYo7pUiayPJclw7x1UoBXCW36++S9XFIrPcNXIVZ8jLeFq1ZxhfPf30M/HUU0/F1772OBRUFx943w/ED/3Qh5AGbKHquMztdQyqlVhlzdsiqoiYH/mplFm0m7g+oyLVd+E+2b+F7V2G4tLZi0mk+jg2Yp3uuPtQdN5xOJo3s8gBKTF79kJMPnssZp8/GXXu1czGco6n65CcLe39BZzM1zrIfMSVDPSJ8CZ3f+2imRzTZU2r0WQKjgYzIXEcLHcx3nv7IfyFma7RyCVyKllcs73AFEqDfZ+al+NuAj9ZlLWhoJwCdHeWpcKwZpQ0YlkJ6lOJnK/zJ+HEnZk4PKmo0PVtvbHwzBMx9Jv/LMa+8vmo33M4un/sF5MQG7p7UzNpe+Hb8dE//3oMMDz4HMuRT8Ng5hAgO1l84Ly1qnIvrpDnIEj7dwsnK05gjXaLJ5n1pbFx1GA0IoYxp06eY4poJiZHxuMikribOFvYC2wCQt7OWcgTSOqXz7FqDHi0MzXW3MS2vBj2plCxB0cnYgACH2SF2DzDoDYYyGYWnqgFrBXEt3rsIXUKPQ8RwCCaU3LgR0Fbpqt25lpZrHi3bgIukTW5R4VYVX9dCjfPIvK1ii77aUXJaz2Iew4KrxNUJSU+JXExnWRCSq4pyO9WpiTdJGjyzffEM6q7hdi5Lk9zc7znX3wR54BejIMdceb0qfjS5x6N2w+wkyXrb9NanEhIJimtzR9JW6DyyhrzKVUjK5BctmhTA2OrFjypGilj7vSlwEk5+h55IHb81Iej+647kkjrRWTVPJDe5X0jTz4dF//Tn8TM15/jJLximCGIrL9SN3PmwZqUxfre4LMxTCWxqq0V3/RxFgaFWp25ok53MQ5sQOJeYonjGJsuOCfbzAIKGWY7mxdtamFNLmPCnFvPvDP7vEs1noOt3RurYOJF6VmLxJPyuUzItfaVGlXlWSYx8dXPxjhTQHV926P7IbbBOXB7TmbPsxyzCek5i+CYYWXXWxi2XWKcOwbBTkPAl1js0ci9/W52XWksZDyMLUDVXFaiptiD/SCn09hqV/XZIIMc6GZvL+DncKOlMozRKt3KXPA0Jz4Os/nEJgbZwxMzDopYqtmYmymOoBnNOh1F2l24XyqdrwjiJMy/gXzzxAZriDAseo7yqV8VCFckXvvFugm46BzLofAKolipegBqJ9a6OWYUWqTxpCScTEdyCSrfVeqVq2ZEqgTx2pUt3tJcM7aLkrNXKkFaQ0moRTnGk8SKb2W6GaTJhfMX6LjhOHT4ULSjSml5nMCY4eZpE8w3jqE6vXT6Ynzp038ae/b+AjvMMobOBpFXlp+lZf7erQyUa9EZyns4L1bNZgi4eaCfvdqmY9svfiR2/9yPRzOW1sXpMaZuOERMWNqlGlwY1w285+3RcWh/nPud34+RP/wCh4yBJBCy0x1F+2kz9UkZZzOlUi2kfE+JyDsHNs4Jk6CoEVFENMfHm5kf7uBGIvarftJ9XR1sescSQojX9dvpVsmZTfUTeA/JYNYImbO7cTi1mIzONxSQobxWHquXmveVPvWTt409/dQJjQPCm2MZpQ10iOHWOvVsYjjx/HMxg0GvAcZzdKA5nkDlHadc56JncQDXci4uMMSlTWj2VodnHUSU0HMMqzowfml4mgZWTRXiUR1Wv2jDAcctiRfxVXVr2KkZpp6ELe/cp0vnm3nqdh4vsVkPFUf6OhYXjv19xXnD1WaWN9RBY6g7VOb0Ub4nzyo+1cCjTHOd6/oJWMQh0yQG50btMNwL69oHYoxDqGfYyVEJKa5oQOru7mKgz7YtAIZU2WiXr7Wjvsygglhlv9kGV39kwmtU2nIbKyp0EmtV3JBBBUEtJyuZ+Szfp7Sm85zYv3jpPHUB8BhBThw/AZIyrqGnpzBUmE0bCDBXNx3PD55gp4rTsX2viMmiARC44JRySyW/nJYyrggSGITk+7QyAmr2RWretjs633RntL/lSOz62Q/zfS4uff5zMXX2PJ/dzpZpIrh9M9uf9hzYG02os+07t8f2n/kIHm9zMfx7X0if5oJ4JVtK1yFamFsYf+X6Xom0JFxMYWlOska+M+rd/a3xwAD7YS1MUK79KoFA7ixayCks8/LPQkwjYAh5zffmYuC9EqfO/nTIAGxcD5zah3DieyJpGT8TFT8QHIn5Kxw4cqqyoT3a735L9Dzy/hh74cUYR+ra5/p0z2KYmuNZlb/+6J2cn3wmBsCjTcDgFNdzo8yzQ+Dd7Y1x18GtcezVyzHCfDYomHVUBvtvFgY9gYeZu1xqzFMTs4qOeRuoNyUBUrU8hhAAcnKa93h2OS98HpV9tHmR1aEesjYVvUh5ucQccd3NcmBgS7atKkzyqfipwyMvtawlpiTtEYdmMj5hJHgTTkXcG/ldPwGDKNVuKOeCKXmJqY1nj5+Oz3/xizQCn1UQYQh15kPvfVscObgrPvulr8e+PTvTSDR0eSy2DfTFsZNn4+47D8eLx17OzvnhH3zYnK5ab62yE0wjXL5MBxatLS6mqCBXkbjMw3qBmGJyJYpGLQ1V7v5hBzkt8fTTf45Rgq1j9h9ICeyEfBtnOTXAaTd3bY/O/m10vkAWJ527K4PIebVQIER+rY6HOBWBM4i2fvQD4DiGF5BgfoR11M2oVRw21NgKAwOfNVw1gnFKk1zlBSNs3bkt+j7wrph44eVYGBrO5ib5KmmrVSjusrXAw3nOadrplrEHWNd7J8enOKZ9bhhrKtd3sTJqWyPEi0+B4GyoY0iBj+7I8MUYd6khcTRgdaE2d7MnNLKrQtCl0mc6EgpjfLjrtYWkBOZ9ZT1wUbXlGhbPNb9J5D6jSpbgJL+WPbujDWvuBLhi/7n39TxDiknGrI14OCmh54eHcs7avcW2wOiaIT730KrHkj4/zbj3gZ0QaH9869glrNAMB2DK0+SlZb+Ndi0gTWeR6I6L5934gH5qRyrPIFByKSXElJIV1di1znp21dfN5tpihr7RBaPrxvI9zkzCHAxQw1drB5sNMEQqgwKnJGT7swlCr8NzrNrYJF5jA6NrgKnMb/V1/QRMDukyl5KHB8ZJzt01sPft3fc9yKFXqCMuPJfQqXwH82ytcM+33HMb7xhLbNsUY5snWJvZi4WQ4ztQ1fredLRiLXbsVxBbWVEXb1/Enc1F2ceOHculYc8880wy/MS6MmLWq0ibQJMViFuZX94kU3F/XrekzYX+Si3SaaF2zOPewUXaYBH3ydi9c2vcdfQArnQYZcyPDk8Yo26Zb6IxbVo7mLN1MJblS5kYhfoGoufOu2Pm8otMIQ0lvncf2QWD0PdXAwuwcw5UKcCYFBlgI3jPfOTRg9H1lrti+NGv8koJr9QsiCmNS67g8R+Ep46s5HCctwtp9PCOjtgBIfpvD66BGqi2c14SFEH+6qfkRPz2Oo11UBKWdheed6Jed9dNRRNtNxRSXqS0VbbRl1wtkzryQNm2lecK8gpTHoy5RhBGEI/xZVjE8L6xsx9E78LwNJNTbUtQzIKSmAjT5qv6y44Zjfc9EPMvPR91rGCqp9we2tjKyR5tfO92Soj+dvfPKca6i+Ch0tY6NiNNhY/37tPG4kRwADZCP6gyz0HETRir5rDe57CQA/vQEzFUoXozBrYshyBK0WkYh9NTbo/cB3PR9bIMy/hMZDSxRk62KDWYlL4pECq4Zd+vM6w/hQUklL0R0UQa7uBOm7ftiq6622gk3jR0aHohoeooOXfvHMhxmwi0FdO+wOvtYmpGINrBqMKLqBcyB5eA6YTuOs6TEJIE7KJuidk/JajIY15rhWWg+bUYHzoO18HcPaXnsDhmp5BcQnaJmkhj3u6ZpFT2/NydOzzF/TBZgFzmlIiYt1cpufhW/RVO1ZBQAsmxRmPomR9Djf/mkzHDddPR/TneHf32Sb07o/fOQ4ztmNJ6GtUedbr1nsOJXIsgYZM7c2zG2wluL8H5T5S0brYpewOCEBnnQTLNOQPM6c4Mjsczl7SUMmeKJN65jzGmu20arKf9gETxAithDMkJSEiHJiqEZpz9Iiyx5mXbE/I++g/txUPb83hWv64HTpRXjoLMP/P1l4UUPXfcFdv+6I9j6oWXaAwEBjEaVyPaEvVraDmbjG2GY1mHaOsCxLdrC+3CRqDmgI0LKzQqKxrVNqaLJhmn9jj8on5DTAnpxOGxMdMQq8f8aFc4z/EtnQzv2nvYWheC7FQTAqovnj4XE+wr3UJePZSxCSKdRPJeuMxmA8Sfw5o8xBSTyxvbWTWVDaGutaGBYUUDZ1JXGlmlnYxTA7PaNNe73xABF2PAIutceZIYwLPTLc19AJpT5FhoKmC0FGvV7e1h61KgP+O4Aa4vsOrY83c50FqIXsPByPhobgP6wgsvpFRUakp8rgZx/DrhnCQE6b+SqGqJVrgViJB9lffmO4cqOs2Y143FJGjH6na2C7bzJHqA2MC0xD333Il1fyaOHt4few6oOTiAItck5ErO1wU48YhTxPbetpIHDKqeKajZcaYynn01xl45G8PPvRLb7tgf0yfYKwvXv6UnX4q2o3uZRjoeo2cuRvMzz0ffvdQJz58kMDcKhGiWUNcUifkv6wOzqhSlBF8cZh4T0wMHMuBqiz/zVtoLIUCdqQ5m3TwKluktpWZKQV7KPOqw/qQLqh5MrZsr7ZBVFND1twAs6ViAUdfG9BdEl9+rurBxshRjrx38Xo1f6tBEBU7tu3fG1o99LMZuf1PUMe3j5OEiau4ixr4lnCaanngiml4+HWM4XLRwcqKKwCT11pYxB6N6/Ck2skMraAZWjnFxOktbhzjTi+HSIcYE8RwHz8AUrOlmfNR14GgAb9voM/HCvZyP7NoOPpM3kdTEhpnaU+J6AJwSVUHgsGwrRwWlaye5iZ9lWNKiD/HXt2gMLXChoB1j0INVGJQpbuy6IQI26+U5KyqZ+9vCWVp6Y769If75P/+X8X//P/+WZVwMFKhsF8A6fOhAPPLwQ/HhD70n7jq8O2bGL2NAwrUnEbCorEQooPex2sbdLZW6qs7OzfrntiauDR1mZ0YbbSgJN0FlD1ZCqnr5XCC48WQC8wBd66EbvtXrtI9RSv/aFiyD+w7si/d/4L1x6MCBnKvb0t8JT6HX6ehi7SqZO18HcqVqmx1RlrjWlS6UUakGO7il401fx/xf/70Pshy0Nc49+pkYefqV6Nq3PTbt2hYTY49H40BvtL3zzpjqZy7yk1+N1i0YtB64g6TNcfmb34qRp2h7S3s09LCeNPMmf+pSECDyE+Sra8SB5dI4DgqzcXK8PvYw9bKrk83xgEM9qmEj7ZrRMQKkau7ckkgoSIWq+0Y31zE2hrE1oi3UM8xJRpnwFBZlW2mfx8/UqVz6kj9dBHNKCGIETlm/68GJfNUjsv6llds8OgbSUBVfeSxmvv0szhnGIVscN7ROzzMUmoP4JhAMC5ShH3cq4Wh9jQ4XyAtFhZxdlklNiOP41xMaZeCuzvKdRtQWmJqEig6IlqbBFQ8svvMpNUj7EFqFSNkoEEFgWx3PLsAgnGeftT6MlT13q7Fq8yBaJTRgI7IOiUuUkxtCai+gQQUtyZ7WHzZMwDlWy/KAaI0xi5mSuP/N98XgP/4Njk3BSk1QJX7l1Ol49HNfin/8T/9V/MxPfjj+h7/2c7FrgDHOKMeQihjqRsyzlUGEcSxxzz33cILD3fGRj3wknn322fjCF74Qjz76aAxeGkLF0TCBNAEJrwjik9hYE+Sc83BCVWW5ZYvAozP1umoAqT1x7/Nf+Hx8DWf5D3KaxIPveBd5WCcyqvG+yk3ta/K9+m0tZ6WOcPMigGBYSpeQwvMnL0fvzs3RygKFmaeOMzYGHqjI8xhdptgTeYypkg6GFmJPA2M6nexlQG4A0OD5vKi0VSIuKwJSLTBuFXmP9LTEhw9uikM9zWggqKHApQvDyxKGn1EMaF2MM1tc9qYiLswMIJiSx/Ha6oUjKtgyR9miUgVKATRIldKbqGLsK/Ip25tPV/+hH4p1PURJKV5GZS5260BMDHSgkf15zHBeb8EcrCJpYGLTPRwFA8N6Fi1tirro+jkDo3bvZRcbqCr3Mv/ejko9zXi2BSY4DxGfwRDoYoU28EeXSq0hnFwalxmm9OJP3QlBz4IXLcBhEY3pLPq4cGuD6WuxN+0Umpzulf1uVUuV9ZXetm0HdavdNEA44TPNt7p2jFsSr6FKM77aGPGaTcPf+Tt/5+97szpIFGsSRm1EOSzAz6A5nIrXU5ntu/biCHApvvq1J/KT6y537diGJO5g+mYwnvzmM/Gnn/9a3HbkSBzZuw0OqI9pQXENeBk1eSByTZCYXZzt4uq3v/3t8SM/8iPxwAMP5Lm/40ygDw1dTkOEaJAIJ2HCFFT1WxmfyN/buE4z9h3F1W0CyW68VnYo1Ekh9xemGdaglwXbb73/nnj/e9/NWKZSD6eBbKZtVRr7ULa7pp5XvZVBZeCaUon0SmJW3HDOTNRNXI6lSyNIvAX2ap6L80+9kEhYh+bijh1TIM+2NxeOHoNPPhPjx5k6efu7mB++o0J01svWF9W0qDmkUF9zXbwZZ58DnOvbwxRdN66FXS0sjUMUOBxxKsXdJnRYyNS2qdKuedqs7cIjajTsmHcGvispbdEiy+DqsBXU4wufTERGYzCPZMr5kK+u/yNs+LOg1HiU3pTFuujO7buiG6t4T/umGNh/JLYeOhqbd++Pnst4QQ0yo4HEfIl2Qd7Aj3qTj+NXDXguSrCyuUIJgtRaPE18N5VTI9M6rdanV9UMjF1YGFf3Uz275rBO+15C96rF2TXHjqdTigNLbQ0OF6f5/hd+4ifj8G1HkewViFGHxgX23gb/6kqLs4yvNFjZ1jLuVYCk1uBfakGr4twkAQtwK1ohP6UVz24GdvvhPXH54vlcyaEldwcODFZi944t8eqZ80nIX/jKk3HHHXfEkX0DTAegFoEYjXSSf1cLNkKj04ED++ORRx6JH/vxj8ZDDz2UxDzKOElLsuNk6+Ti+La2dhCxMI5JtNt3FNuqTDEWXpAwCb29PfG2tz8UP/ezPxM/81Mfi3e87a0YMRgXyldtX/aF9xmdH99VH8qXV7kCo0T3Mo3pvEfKwbmRhbHwEvPnwGToW8djnOFB78P3McZlXemnv5qeUYd+9JHoO7QXYuYMZC3QjPO2vPfhqO/heE2sn2WQUbkg3RI7mQnYwdTU/ORoXB4ZKggVKZC1kVAIjvWcMmuwLSCtTK/80ygzR97NEK8Ibt7pPIKkdmy86EkcIHK9Y2iRMeFRtCszt5kJsLzJVzf0U83HvEwLnGCqDft2xSy2j0XOu2rctRsjVmvMnn6V5UOcn4Rm8W0OdzoHE3MDv3Y1DP65Cb1MS0Icn+J0QNo/jlXbxSJdaXiSeOrTaGXdtNf0MI/rSi0J1BVMppOR+V7V2XO4ZAqqzI6HOxAsl1XlgZUrmn7ml34pdmzfUWkqDAg4tSmhSziVuEO5RaAvsp2VxzUu1yLgutHR0aI3axLaiUq8G9//xyxoTUqnokLzVPzxL34hfvaX/jKqNGfYwKn27dySc2wnXj2HYzhO+US9Ayvv7/7634/9eNPgIsF47w6W2h2pqc2N3ZqXxi3ndD/76OfyUPGTJ09xfMvmuOuu2+PBBx/k7yF2GdwVx48fj09+8lPsl3SG40J2xLve9a540333YnGlDe5xrXT00GraU4zNKqqghVwH2NeuLemrcDImz/gOz4yeiunBZxlmax2HoNxTShWQfy6B0xlfm/urX/lGHP+tP4jdDz4Qu37x51Eh2UjBPIirK2tyaBDDGYE0NNIeHVSss9Nkli1JZOBGhqlNOeWr3QdxVvSLZLbO5Tsl5TjRzqr+Q9tqYNzbiEpYwqnIs5o7j7X3RZE39luBEZGrtgZHtthLXvmtfxnHfvu3Y5JN2q2TarTWiFf4+wOk6hDtdk7XfcTakMi2exjvOqeU2mH6qtZanfXEGpmYhihbIWpXKs1mHKfGBtHoWlG3Xeg/iZbi1SHLMAbETvJUFc/3SGQZwyCLJNCqc7qre9PW+M2Pfzz27dtP5Wk/tqFWNmho1lbhmL7UvoSn/Zbh+nDSiOvfWhK4gpmVvDZyoVJpqAHpvcLKKQinBOaF73/7e+LX/8mvxR/9l0/neUh3YKgZA6DvuP/u+Dd/9GhcgHsee/lk/O+//m/iX/yDX0aFLHxSN1IN+iql/dve9lD4NzX1N+IVCLgJgO/lGJLcV6qS8V13sdyLv9qgIWFRg4z/1CQyQDa2SRhLvIne5bcixg3/ZueRhx1pPman5AJOTR07Y3FyhP3gjvO6WEgP5VEPOpo5R8dygyfPxrFPfJYhZ3NsevjtzJGy2Twqm5VzbO/RJhKYal3yGckS4ss5YSspgPgzTj7aziRO3xdtKr74tcjDqDZdCaTtwNMB+UGiMPRgU7nlsZv9bmqRlIv2jAymXmdIHKLd1LWAvfWDIbV14432CzGNEfPMH/0JFnm0LFYALUmsFNogs6Vc/1SPrYEzDMKiGcJ2wb6b9AFKAkyLbGXP+S4ZlN+dIWBoBZG7ywZcAqJFsPB+ypkK4skQW/wm/Kij2ovGLP9tZwqph1VSfIFW5yiXIUjNWdcFfZiOSmQ7bdsGYGQTKuHmCVhJUUGAqmErkV4vnoZ45Ad/OC4ODsc//xe/kf7HwBTujopSMXA5p/unn/tKfPUbPxDvuHt7WvnKyt3M1YOwbjt6Y5JcAliSeVDvnA6x+xPAABpCypCA3iDxmkGVKXgP2LPfCkTXYaO5b3+qqHMjJ7iyuB/Mk0Ak3osnTsVT//o/x/Qzx+P+v/7L0XPPvTgfFaqdkrbkzEola6gGlRIXpqGDRwbml7I0iZ22Gcd0iUwQMg0t4vGbKjLxHHKohiqZXTVTjw2hCd/pVlR3bRVU0MIqbasgYl5uAilr4UT7KcAKUQbTQWyNs/+X/0q07jsSg098M0Y+/ZlofeVEbIVot2IEHAJWbqtjc2ZxhrF9+jtPIb2mYT7iqa6+vlcSO7U46RCENqgCS3j92h1gjDMwCG0jo6jctmYANX6K9jvO1ffcqUcySE+sMcbFGsK27dwRbczbi0+NixPR0oEzivO+5iBuZXt4NNS2s3izod+bJ+BKsYWPcAXgGrT0MMGi2NK5OT78Ez8bzz73fPyjf/Iba1ZyDKPSJz795XjnvT+NFAQwr2NI4qVT7UQn/LnJeyVySkERW4S3e0XYmwoVZEyUsBgNE+QJnDz4uVWJrKSbxEEBZHRxxYnHHo/nfudPouHUYDzwVxhf/eiPwAAx0MzgLFOx/LpDRWHFldgM/CqN8kL+4o/yJttRfFOaFIRftKmQzaZBjVaag4SqlIvEk9idAmtB8rb14v2kyyc5pkTBcJVlZzy1L9H9JuFkeQbyyjIoO4VDXSuuqLti23veHeMvPBsLOAJd7GmPIdYIn4eI6jgCpoOxv3t/uazPceowU2VuteOJFO5b5Xph319kRw7ngj3F0fOjUlVGupzDOt1DO5W8zlQ0I22Friq0eSuZHRd7r0ruDh6tDA/pLlYh7cFyD6PBj7rZOXpfGhJ+rqpgaEReRb/fhDDITIufW0bAy9yFDiwPLwYZ7IQeHA/+p7/3P8fBAwfjK1/+Qvo+NztPx7czF4fjVTZq+zrzm8PMWXZ3qBa+TkHjFquAnEKp0/KdyCfyULdyWsSqwC1Fy5sP5FLDeQuGQHkJJ3ke+zthAxj6c475/A//No5/5msx//Tp2HvXgXjz3/2bsfujfwHPrM5YGL4U0xNsrYMUaGRjtAaW8blEzbFyqQUl0VHhJAXHY3lXKcsnCNx2qkgWoSAWCVdi1nBlSLc/3jWC6G19m9H4hRPIR52TWFdMr90apCz6oVIry3Icn0Rt/bHPbMFD7r//W7GNrXaeQZ0efOLrMXP2bKq6HuSmg4XNc9pMOGgRVvo6fdjEkKTQTpzv5QhTNg50GtH4zg+79tn0M7zQjbMj58BxDEGKT+J45OZ5Eq4+SM7/lnBWG9nJTEvL0gQWZ4ywHBCX8M2+JXK6TNa0qbi96d9bRsBFTeDKcK00oFhxJbHEzNxgW09r/MW/+tfjwz/4zvi/fuNfxsP37QNgrPrB2vvbn/hy/OF/eTTOMV3Ssw2gkNmtIZirw8c5zEWnr5jj81Cx7EGjVyzTWGcSSWlRdv7Vc9rAF2FjoNOTeFPNpTxWKzWyqmvzwTfHgSPHouWlwRj4oQ/G/o99NLqPskVLagN4KPVwvGZHD84wozGJV9IMrp+LozA+AOcYzT/7QIL2QOxyLCxhOp4VuDLcjJdMq6iORpaUeGZkJ/Djc4tzxb0c1s68aybO76qe1F+tobY9laxuxaUwYmVlKcPyLJ7yWK3UxLrd/ne9Mx5GGh/5nX8bz/2rfxVfOnOORRi4w2JsGkIy6g7ai/V4glVcahVtSNUhFt5rF+nHv32YOWIXP/Qx73uJxfz6h/djzR5DfR5SmGDkusSGAPKOATYEGMOBZBw49yP5R5DIjtEHutrj/OAozke748148LV2w+BkOGUAz1LyqqHgZ5A+BLUwL+Nt8HqLCRhOV+Hc3NRIYoCvIQIE7N97d/z8X/xrcemlx3K3+2MXzuDoMQoxo46wU8URriJZKQE22K6rJwPoGqs8KTAR2F0RMoDY9tSKcQpqZoHJV89vI1+ETZmvEsa/JAqJi7WmnMxwx1/6lTj68z/Ha+cdGY6kFbkyniW2W8i0IxHb+wey3lqMF5Aw7rI4j0qpdNYzaNGpD3x0Ha+VY1ulRkHI9Ah1qQrj5JoqjBAu0kip3s3SuNZN7OOlC2BlOFHASXWwEhIhM3H55pZcCw2lkm/ZL8kskpLTCu+At/nOO3LJZfOF865pou7sLsL0kQ1zzGp9RcucFqNNDifGsMG4ZlirtSvU9HnWADgOYeoW6ayJc8aoKpl+iFkTNY5OpqgmIGTVZo1k5vPII++I/+5v/NU4+qYHoNVyzAvMkwYq/uZApNCObi2cbjEB22822DFjKbkAglINaSBxNDCGOHjHm2Lv7m3Ryzhm7Gtfj/OXLpGuQCqBZ/fc+kC+IPYihCti1Ou7m5hrSZQoYkjAAp2rnVwY524twJfbJZwqBCkBZ/kSsF3CM3tw6ZS0iAPDAq6e1iK1hZJ7C6RE5iJH1UR3s2xi+o+Y+T8TZX8UEM1f26YU9prt5G3xuciIB7UT47i1TUOrm5PLcCpwsMxKHYqxnO/9/lqEoky1gGJsLWvRMEd51qmilm66//741f/tf42D//7fx6f++L/EKebUnQuW5w3hs9yDhFUaTyGJ3cnT1UOX2XWkH9dSiXhurtjbyjnei0hu4+vR5fRSS5sriOviArt26InVQT6TgKCevtvH3PQP/9iPx4/+1C9EV69rgPlQwolhR5q6E/6+99Oth9NrQMBFRZcll4CWCwHNVCfkjOyI370zjrx5G5uKbY0XX2b8wnikB3UEG2JKBdt7a4IIiQo1JxGAlI4TJRhVP+uEaib+FqpNpUQQtDAK3ZoaXDWXUvIawXv/JOokEu7x3KkHdklQbAS+yLyidc953qshA0RZtGt1qRWi5rXW5SuCxCycKLu+pSvhZPmFRkKeMmHLTLgVqQsGd0VOt/xFwUDKMjWU0kL3lbKp1odjb3YdvCd+5W8fjnc+8p74vf/wH+OLX/oyq9iG0tpMhNylQybgtjdqgn14pgkqd+Dw6npgmXZfFzAnnuNbgJ37S1teH6r4NIx0mHGfq9Q+9KEPxo9+7Kdjx/69wKocWtBnzOsnY1lhQ1kD3mZ6C8ItcuS4Sk0SGYFOpdMLp20Anghqo/gGUS/AUQfPHIvGmQvp6N+3iznacvrmKllf77VlKXH1Q9UQ477GdaqBpa9t1gGktvcMIif3y5K3eP26/KYkph4pfblaJ5CnGvwuR+e9c+WLOJuI1DmFJJyMi6q3zDSrKa99Y3vJW28uFeeU8DqE6MSS0q2mLtU6WVYpUaxjTT2vXdpNfy3GxPRTtremDlSzeCeTQWLS7y8+/Xh89lOfjM88+nn8AU6nYWpRxxZaqnFrDvXXzQ2EmUYr53/V/lS5U5vhm8OMnEoj+27cgN90z+3xyPvfFw//wPtiGzuW1jdVhhW2rILTVRwv35F/MmafNxiu5cjx2hJwtcIlIlSIFi+tRBAlTgZ7gLEKYxfn5lgkS6PhtGlgksMSDyZQqlGVRMuXGkQEu4GlVkhQMvuaH1ZJFQCuIJzAVk1MaawkJlQ6oHj4Tv0KJ8pOBIWwbIcwqko9PqrFJNExnzsLnJSMoKVJkqiNnw+2oSQu8y3+Um02vc8GGJpTVnW4+iXhFm/5Ja0wYe+oZCzWwTSZZZlvNfLre1PTVxK1MMhZEDu8GjCgMiK+zHZIZ5krnmDqR20i98MCz6DfVLElUk9TyO2HsSOIf77TQKXm4/om/Rl27NoTtx3ah81hF2XVCiGKsT5K3px9ETYV2FbhX63Uhm6+8wRMx18p2XhXIbS00pVNExgSOBbZJZzldbBY0o80EVXgOC9ZIi3PIpWc1O8Qulve5K73GqcqUjWv5p+dDaNI6VKLhOSRyFmLAGWFXs8rSEM9rlBNYUoZSkOOD8LANkOwnke0xBAhz6ZCDU6EMorMUCSCoJP5lQyT9mudBpQkV02uMLES4RLW9EO+r4FJEo6F17zz8fUOa9aDPpS5CaMVhCwMJCgY2+wwV+pud8vAxaW0ufCCNGppLsVMgeGeXp44knkBC2Z3eeDPvCq4Yx7CNuFUg0/WrwJ3bm46fOcJuNqECtFWEVFI+pEfOf0VhAUg4IYJRA+AUsUEoEuezOd5MonEjAubeukIxjZKnlJFXlGmXtZ+o3Oz8ysIqCQi3hUEU037HbpJBKBmiTwiRgKJC8jotysISyQl2H6n7nLeF+UwYaolTElOHkoI4ZmwKIk2U/LD92QUwCbzt0zLJliu91mffPPd8ZNwsmplf1ZwRS0sX9vGShuscYXJZ1sxZuYYX6L3vbDJd8BLpuaGjS6NzLxrYGE+6agkLgkTXxRl5By6DOAWh+8iArZlFWAkUgB4kS6RBySh8TlXJkCS2Iib39cBESVpBq4lUyjflZ2RHU8Z5XNtJ6+jqNc2agknkVIYVeBUhR9IZ5QqM1xPbUxYyV+CTqag6m0eNWWlVpIvK+/9/t0YaEvWtYaQrWbJ0GTqVTwq23OD7RA24InaonDKbYPyXQ2hisuldnOD2a4n2rUIeDUbXk++G4y7GoAV4CfXF85wNoNAkjumVBbJAKAdoVpoZyRQdbEDkMb1O15BMgCsEEU+KY2Na5kabOiAJNrynQX57bsxrK6XBGeoIGlqIzyCPA4pik0GjMOf36pSk3wS4Ujn1SAMMFzldYU0t0zjmE9t+bX3fPpuDrWEbD2TeCvDLnAnx8qJKzIsCbMGh4wvbMShJEjhhEYDDhZ4JtECC79V4UucFbAyk9cvfAcIuNK4kmMJ8AqCFfOKJUAAVLkAOpF2VVXF00xLfnaEU/gQ6koXSDsOorVIv1WKzk4q77/bryJUBonKPy823tbwBxyXhwAVAs04xecyia8KpMwbkBJmuCJU8q59Vy279uV3471wKHt3uR3LDNvP4I++CBkK4vU2LfdlkoSrL8vv5JmGqUzE+3IIKAFn4uLDdxBOZYsqNfwOXAS8wCWUXaAUKFwyfV+BbknwFUmdCbBSlyGRuIrYy8ag5TwtZ/mpTPe9c7XuZf1LjCulZUnkNXFq4VRK7WysaUvsKwm+zNcIZV4Z+Xvvp0pMOTFG/SFRpGVV80ocgQDLUB2CSLSVlyWuVeC0nF4UqsD4NRjrllVaz/U7T8C1ta0CThW4Ak0BbuBxWd3hnSqMSIqETXSk49LSnQiIRTHfmu57HCGz8at+VrSpxDqJ0Xthw59xalXmvOe7cPU+8yjTei3vV5X1PftIeyo45Oxv2b6qVK7ilWq0QxDja4PhPodlYlUBx9r0y1rMdwdgvrsIuBYmJQHXIGu50iY7Jr8XQC9Rb1mVtL/Kt7WZfr/d17axRqqUr6uw40WVOQqbmrjfbyBZqz01uJDEaZwr3hVAW4FjZV4lPMvn76Lrdy8BXxdI38VQvW7dX68Ib8DoxiD9vQun70P98sa67I1Yb0Dg+wECbxDw90MvvtGG/2oh8D2sQv9X22dvNPwmIVD1AzcfxsLOeCywvHDZtrK+AnI6kyS6Va4ZeL3kggmWezbmPuXLsarG2uVX67p7g4DXBa43In8vQ8BFCm5o74buZZCAJOBX/uMn4qXf+U8c1+L50FifXXKpl1oZXFycO23oEKS/OgtO2VTBxQ+ucdeq74YKi+wIUhrIJGc3uFjkfff+PXHv3/1b0XFgD9SshbsIrnYqDxco363n+gYBrwdab8T9noWAm6O74b9EXBJgeZXIdn7kQ3H+sSfj5B98JnrvOpSbu7dvLvZJcwPARnb4GD19Nho5h7ihpyvGvvltNoNmv2Yk996P/VA0b9qUjkXNfJ9hmx731prn2KCXf/cP8njUe9nTrB3itXwJOBkHV+sgQ/H9je/DvtwNbxDwMizeuPs+hoAb2iXx0MZSbS2vSuAGVNsjv/zzMcYWvqMvnWSBDAeAn2OnGJZaLqD+NrKTh9J1uu48fkfs4jE0yoIaTr5gmeLpT3+R9Q+eeuFZTps5MI4NADlvavyV0+xfPRtHf+WnYuu73lYQrjCuqNpl+V7VDDzKqHb/8hvpjtdpPfCNVOX7L06uLWWd6Dyb5y1Ulvnp1ePJuFGoAABAAElEQVTOF3mlw9PBEw7v/KPufnoMecSHpzM0sowyt47NDr/K+Or7D2y3vEVKOfcfV9KVRLO6EOPUQ7TjJ16J849+KYZfOM5RLqxIQnUW/H7PGxOqAetvn5mwz0spVf3kPR/q2Ha2va8nNr3lTbHjfe/mGddV87hKMP929pRe6zyyay1meIOArwLQ9b9mZ4cZDlkbeZGTBS+x8fcw5xydiMtnvxVjl07wzJrd9PhxQYUbxrEfE6cNOI7ywPHZKXaWRM2TkJN4OXmwe9PB6N16NJrb2M6V3R/aew5FR89h4qz2Y15/bf9rSlESsGr09YKH0rs/uGmSaK+XgO/GW4sx5AaPfHMMLGHXxvG+TFeW42EE6yXgN1ToG+igG4mywHrl0Utfj8vnPsdezZvh9osxPjbI5uyX2Y50jpMoRIp29gzuYPf+VsZU7MnEsRtL+nM3cFLg7BBxxtidcyaP9excGI7m1jOcpNjHRiVuD/Qie0G/klK5tfPAjVTpjTjXgUBJQLXRliByJXUpK91eZ3VQVS4jlERZxjduSZDel9/La77j5/zpU5yqORRbt22Pvs3sLLrB8AYBbxBwq5Mtsa/X2GRnvHxxV/RvORxbBnZzkt5MXJg5FucuI4FbOLitrTN6tu/gwLUtGCzY+b+UCCBJ3ehYzA5diqmxy5wcMMy5tMeir68NCfxQXBrvibOXzkRba2N0buVoEzb9fyOsHwIlYZXSr8yhJOTa71BhlfhWx5N4yzxq09Tel2m81ubvGPfy0CCb5s1xlvB2iHiQY2zZd5vD1zYS3iDgjUBtjTSOV3sHjsbANGfwdnajhvWxx/Agy9F6orN7cx7j6bk5WwY2xaZNveyzhAEkx2QOpyBuxkyudmtvh7BnmqMZFZzTidgmlvT1nK083Z7HoHZ2bV+j9Dde3SgESklYXk1XEmN5X3v1fnUo05bX2u+170rCLd959Z3nUg9zDO6kh7Mh4FWbS+KvzetG7t8g4BuB0g3GUdtq4OgO9y52SWShfHFWDns1u4F4C8egcBhAXHrZA8Y9wrIhj/VwA/GG+uIQ6U62O53yH/vVHT81EVPNo9GzaTNE7mFj5PmG79wN9saV0UpCKr+UBFZeV79f/VwS4NXyWf29fDafMo0GLxn51h07Y2x0JAa2bk87SFnWeq9vEPB6IXat+FCsRCzhdnZwvvLufohunP29OdVuZimOn+Eomc7muOf2bbG5t5VzeiKGx2c5vmOGExzH4+VT4xzbsRTb+9uio68ldm7tjr69+ziDth0C50Dt75I1qNcCwffCt5JgS6K6Xp1r45VEWXut/W5eZf6r8zWeWtdLzz8bvX2c8Mj88+CFC+DGdOzZvzG7xoYI2HW5l196Ki5+68+ipbsvtj/wgzF18dUYefXF2PXgh5gna4pZxnKvfvWPY8/DH42xV16Ii9/+WjSh6/cfehPjuH2Y7Jvi/FNfjOZOdv9vaY2xV1+ivaiSbPS++Y4HsdxNx8jLz8bkpdOx5e63x+ipl1gFx8FSI4Ox/S3vS442fuZEDL/87dh2/w9QxvMx+MIT0bP/zujcvi/a+rchrb4Dy+bKDeUYJ3mIVgOwaKF9Q5NLqNib4ofefYTpw4Z47hLHqj59IR578lQ0YuT6pQ8cjof2Homnvn0yDzpv77k7Ztq2xtTSDgxXM9G7qT864NxoYDcXWAt8+djTTGXNR8++O7IfPRFygb/WvoHoO3Rv5m8f55RIWVoyJ89cYpP00aE4+8Rn6MPm6N59JPvJI1zaB3ZGx5bd0bZpO/vDjcbZr/8pfbE/4+TUClpHI7BwX6kLf/4lLPHNGXf68sUYevGbxDscXbsOgVObMu+y6Ft1LQmrlvjMu3z2u55R5bPXMvjN4Lu1vvutzN/7MpR5lOkdA+/YvTe9rxYh5o5urN6VPMs067lujIAxvpz/5uc4Wf5yXPr24zF88rnsEBdLn/6zP4k7f+pv4ffZwrfHYuu974oX/vA3iTvEZHg78b4cd/7032ZSfCZOfvbfR++Bu6OpvStOfOZ3o//gvWyDNRObbntzXH7xqTj2qY8nok1dOhsTF07BKN4fF57+SiJKa9/WeOWLvxcjp57H62U2Tn35D5hUn4zTIM2Wu94WRz7y34As7pj/+gVnBosuLzrbsU2XRMe87zzudm1dAyBvfRwfW4yzsw3x4P7eeGgbJwtiADu0oyum2K948y6mjOrGORUP6c0JCZlnDVLddGvQwRch3ovAcejYn8fl40/H5MUzWceunQfjcDMn2Y8NxcnP/ceYvnyhQkhIjpnJ6KOv9r33J2Pk+DNx5mufigmYdteOg2Ju3rdw6Nqed380tsHUz33jc/TJJ0iPpkH/ejzM/PREHP7hv5hEbXrTdWzdE+fBiYV58OFLvx973vZDsec9Px4tHHr3WofVBFcSm+XW3pf1WP2uNn1JoGVcr7Xfa587OzvzG2eXVpnBWulr87ra/YYIOLkpXHQaabgA521q4ygODqnu53iLiYunU1Ke+NRvx6UXnwAR/kMxr8m0ieM+HRMmLryanTcM8c3Cqfe+8yMQ3TtiAMK7DFLVI7WauzgcGcRd4IgLEaWpvSc23/4AvqqjceJTvxOHf/QvxdTQ+ZgdH4mpwXMAQnc3pmVAzoVpHCcg5tedgOGkSlz3Fq7PjfUaY3B0EdV4Og4c7outW7s4tR23vdalONDJod5s4Of5u6YBIDHCGbe7tnXFuZNjcen8VBzch8bSCwyIY/uSLdykBFaqdu86HO1IyXkOvZ5j/rm5vRs4z0CMB/IUwrHTx6J7+4E4+IGf56C1ndStLoaefyJG0HLmia+G1OTpiGhZLZ09MT18IZlAS+9AbELDGj35fLz6lT+GOPdGz57b0LAwwO27Pc48/inagOvg9GSmdV68AYMOG3lzkr2Mbh7nibHUBq6GsLfq/WpiXP1cS3zXI67y++o8ap9r78v4tqX2fiNt2xAB62yw9b6H6dAXonPHviSgXW/j4Gm4dCPErHq97wd+MiYHz8be9/xEfPvf/ROOS+V0BMSTCNS772jM0VFb73kX3iqcfAfXV/JOc+7tpecej2N//FuocvdAoOfyvcg2evZYPPZPfzWZQT/fmkC6Vo68HIRJLEyPp3SQw7dyyNT8zFTMcd8Srz0XXw10JbDnL+mgMT4xG6+cnogXT3AMKBL3mWdHQM5Cte7tasEi3RHnL05Eb09bnDk/GlPTMMPGxRgZ4exfHHp27MQAhoueJrFGdkpUo7tJ+s0+UltRk+nZezSmgfHcJE4kaDEy1umhC5RWRz92IgU3Ac9ijtKhUiNalRrB8Mln40W0Kom+rW9bSm/7Q02sffN28r09CXdmdJBvC6mdJQLTAE9D7Ny6G6bfmcMj1fEtd76N+7PRf/g+ysYESN+9FqEkolqiKd/Vluf3Mo7fV8e5ke9lfqvT+r7M2/vye3n13XrChgjY8dHQc0/S6XOMSS8lRz/79U/HpiP3pxdLHx3RhOrYYIcDAMc4cmI7Z+zVY6RbiPHTxxN5/K4aXY//6J53fyTHYUMwgI5t+6JjYFdK9ANIghGQ5tKzj0crSNXLOG16+GJcev7r0bltPxy+I8e/s6h+XTsPgyB7cny1HkDcirhKSce7bWgbqs+TMJJLl6dieIRzaCcWYv++LRzxsZjvHn7rnrhwcTy+8czZJNC925la4lzbaWB66vx0dHIqXiPSuhH3vka9eKY9RyB54E1VVcLc9bYfzpyUtEo8DwnPUMMdCmeFFS9AvIKBdCKpZcj2gefhzoxx8BrS06+maN20Dca+H+1omPxlWjLni2kXcdx8CWmuVtXc1Zeq8nmYySJxlOi9SmwY+msRSsIR57xfTTTFu6sTVW1661emL/Na/b1sQ+33Mk15vVqaMu31rhsiYDtK/173aN5850Ox6fCbMEh9PjtKQ1M7HXj+m1+IC9/6ahqTWnr6MUK9gGTCoMOZtqpNm+58a5z+2ieR1k8TfweEuC+NTim9UMdHTnwrxs+dZLx0IMbPnkhpvPnoW3Is7SEDdv5ODGaqdAc/+Aupdp9+/JM5zm6jfA0pr3ewU5oh4CYYlxN8C5x419fTEncdHYhvvzSCNB6JzZu6Y9vmznj+2BBGLowYSOJWpGx/XwfE3xgTOLV3oV7X43015wnwGMI863dqEldMJvvhETcdEmlAYBmww5Itd78DFfnJNCj2oOpOnD9JOYh7hjDVQMEOaVR7B7FtSJhN7Z0xjZR1fNvc4UFfywSvPaQJA6UGxYE73hpjZ19OzagBZuH4VjtH57a9se2+98YLv/8brPTBSAn8Onceyr6tlnuLb0rC8VoSlkWUhLREv9nORqYINEKqQdS2q6xOmY/Pq+8TTsntluFRpquNv1b5tfFu5H5jBEzlpgbPx+VXvg0hT8c2DFUP/ur/GReRkK9++Q+zGzWE3PHjv5qdMYmatuvtP5IStGf3bcT5RPRhsNL/t//Im5LQ3/wrvxbjZ45j+PoaY6fdycH3YsyYg7u3wOVPfeUPo/8D92Kt/Aad/5ZEgp49R7GG/mkMvfRN1Pnn4o6f+FWs0s+m1L6Rxt/qOGnBhIHNg7yecreJqaC33rsVd8rx2NTfyfu2eODunUjnepaccWB0cF4xin5fL0YNpOwsuDKKGn3fbR0pkXo4hX4eBJpiTD86NgY9aVVXSd94ECE1Lp576gupDndhJU4GOXyeYcd4jEO8+mSf/cbn0xClamzQztCORrQJJircB24/i/q8FcRfTAuyUnOe6RCwPuNbjohs+gbGt72o63MQ/SCa286HfpC0W5KBnMIQaR573/VR8OcxxuSjwEKieR0D+Jx9p42GOl9EO3j1qT+LzTv3x45DdyIcipVGEnJJkvaCwwnf2WSJWLuHNqHh86/iddcdbb2cQV0hZBe2rGYatS2sZQK17693vyECdnpm4M4HGcO+AwJ8cxKYqvTE+Zfj4A/+XI5vVHs1VhzHkrzzrR+E0z4Ml+5B1X2SaZ/3ppp0+1/4b3PaSGNUC+PZyy8VBqwdb/1AGkk2H30AKXwip6UOvP9n4fqjTFPsie49RxI5HAN3wxC0aB94/8+QZxtjvKmKini9pr+G3+m0OlcdIa3Y2h+vq/rYf2BzjM63IHkvxARuk9s3Uc/NE8XysQlVWFTuhd6YXNqE5RpDGJbp5ha3OXWPbE7MY1BcSombqbl5tTFVd/uP/TWYxGwMos4OPvd1sgT5IEAJVfV3P9bmZgxUjRW/zWn6VyNTqd1I7HihkKw+DWH2gYbHVghTxFayn/36Z9DMYBSqDRIJ6rN9axw1K/tqauEcQ6cfiyldRfvxC4axN2K1fi1CSSS1ks9yZDRjw4MxrHEVeD/9tc/Ho3/4e9HJ8OUt73w4bn/gnczf410H3s+ytND2OfUjOXssaQM2j3mGhTPA5NQzT8ULf/612H3HnXHgrgeZJurFdtDO7MJ+4roJ/80x4NVweWM10mqI3MTzFJbvETSGJoYKqtFzqL76us4xvlvgEOjTow2xfXNP3L23N8eMSh56NN0shyfm46kTF9FoxuPI5iaMWKwtRWVuY8w6PHw5zp8/jQvmpti79yBziG+sRlpPN0mwLid0TbAS1lBLxBLWiW98Mb716B/ApGZxWe2OcRb/P/PsMRYdnMWLjrlb+m1gANWfPnA2xWNKW2C0U2MT+KkPxqlXL+DDztw6Q8Sjtx2OTVuw0k8ydTYzj2FvV9z7wZ9mVRnnLlfKzht+SoK2PhtZTrghCVwW/sZ1NQSUvLo7wmXRteyUOeY3J6cmcMJoiG6Q59ixyWjl4237N+V3osQI3lhPfOtsjGCRPbq7ESYwjnBbiq6lHqYKNehcaXBZXfIbz9eHQEksxqy993mGKbwuCLeB4U0j+2b3M5vynndtj0kI+eWXOWP43Jk4/ezJaG48FR0yUCTvLDaKKYcKuMoObNsRRw4eYnXRViQyWgnvW9roN/pxxqNNS917VdniyM2ENwj4ZqC3Ku0C6uk4Vt1mOH0P6qTbqkxOIJVHsMbOMA3EsZUNdOjj3zweQ5cnY/8ejHtjM3HsJNbcxvm4Z38Hc7PMkaKO6nI3r9dSliEjwBnEuaU3wi2BQEk4ErI0lFvgOCSAAY9gb/BdW0dH+qrv3r097rjzSNohzrNLx/Q0JAkzVpr39/fHtu2bM97kxESMjowksc5iy2h3rh81fJqhR2pbt6TmKzO5ZQScFUxuUur4N8dZVlbztXtKQ4TjklswNtFiPA+hpRWSKi+CDDMY+cYgavdjasGhoaWZ+c+F5jjHapRx1O2OtiakMRboxqU4d46psUtsBoDKLYItEK+pZTLGx6cLBvAagWG5716jAl6rbOmzHF/fYP6rpW5tMolxfHSScfkcU5BM4TENODeFUQ4WqkFyit052th2Z+fWAb5DNhI9BG8/XbpwiTExr7jXPVIymGX7nXkPXccW0jmwzWwKHONjLfO4Vp1q63e1+5skYJAMa+o8u01Q82zU1Qpa9/u1CCp5wjJjWNNcvxYxClGCMCyBl09CHaNFnY4XzR2c59yxLoTITFf9ZFHF0Da1JlefzM6w48bSTMJn02a8sXCrPDtWF92t9XheMe1EL4yNT8arZy7FSy+dilmI3XwOH2lknMU8K8+qa4V316oCN/iYhrFZEZbpqZzD3WBGa/bTch/JGFPKwdxWIMjqfkrAGScpYbkyEJbb2qxIW/1K3vYdjLEeX4AbIWb7vySa8ipcp2eYqsOG0cQ9XYbGsxhzFIu5Kh1zmprrY3pyMhlpSwcGRqb+Rpjjb2Y83MgYGSxivIuxkX5aZArQPBrRuBwXTzAkKrfdseplud4v46NP6w8bJ2BqODcxlAhgsVqmJag8aszaAyjndNPwzrMVzWc7is6rRRrnh0sVw/ciV+GNQ+fZnzx7k3PETEmYHvbHxP8QHcc2JBh67GCnLpwXzrk7opjGeWk72Hx1FmhOH1struyRhKNBCw78vl/CE6mevyY9xnK6xvQbCbSduuhxpKXSe6dlVInJOLqQyAN97bELxw3dT2fm3C+LxQR83zbAdEvXLuIXG7D1YzDZtYN1xeNMTc2NFEiwkSqtSiMsFpiumZ/Bklzpj1VRhJxrI/N7AX9i0J5cIGJ/0ifCzUUQiZDkUxAHrWTcXs+eXhLUHDMHwlbLsotcDMJ+EThoYc++BEYNrKeuY4HLAvaCBuaXnVEQfDPMUDgNZZ5rBfdbduFLQ5bRQ/2ujtJrEW+RZ9FPHZ3MBgCb0eFina7rdtWGDJsHmBKKecbJSOqZwRgdnWPDhU3MHbRgVGyJIVaTzbIopQ3CdupvFobQ0Mi8dmdTTAIjcWCtUBLzRgn56q1dq7TqOyQvnS/3Ljog8Kx6KQaf/nICvu8Inlh4TJ3/6h9BQM1Mzh+MnsP3xkVWoLhqySmEXib3DU5dXPr2Z2Pm8oXo3HUkekg7x9Yyl1npNMvUhUjSgj+um2c3szC+9+j9FElHs/XMOCuYWnHd0y83iR7EGGaaag5jUL1TSkxjuZCgH2eTpq7euMx0iQ4epQeZdRm4/33Rjs+uDGQRiTQP0ja2Q8QbDDoCKC+ES86ecCtTmwPRlpamww3KqGz0dbVGdxfTaoOMm8fx/wUB3fhuHqPXPEhEBvyDEcjDzAscE82KzL3ZaNAxZKLQmq5BvLqlDr/wDWDRGV24RjrPOwfDG2EeXibYyfTdJHPG4zjoTENkEmgSKbXsYs63HW849FD69XzM4+/egYOG1nNh47vR498qCBhYzLP4ublrU/Tf9VBMsMJMBqMXn44uoyxqaccZpJcpxTWnlwQMQVwU1xo2oEVJPM0sLJhmh0kojem7phzf6ljTCBFqpZ6egrl3LuLy+iqzC9MxPkXfUM9ONq6bm+hmrIv/fk4pNURTTgEivNAcxkcZOjGfX/ZbLROpvc9GbOBnYwRMxVb4qwLEaebxXFnSyRI15wMnzrwEwFnPquM7c2hT+EVPnH4xdjBhf+aLvx9tOBC09A/E9OBpiPr0/9/emcTGeab5/am9WMVVlEhJ1L5blmzLq9pue7rH6CVOY7ozyCFAgHSADJBzjrkEuSbIIUAOySlIkABBgMkMMgNMkpnudrfb7aXlRXbbkqyV4i4u4k7WXvn9n48fVaJpmZuLslSvVKzl297l2bfXdhNVNUywRtOegwRp7LLd599w4FgY7bOOJ0B2JjmelX9QEA0YMNEFkikSigASpuBvFTduJjtmHg4qgIvABZTiFojGiKz0TdRfsb/ySYrzB26FJamAWXZuzMJINFt/gwvxT92R414GLAW6RIljFiGpgI0iNErsb2mRX5G84TTAisi1qAqUfAfmQegZEB79CmRwTs4BIXFw9/X3qvYKES+NkQ6KMtQeWv4MKSM5YcDXq4nSQNV9gVS0yFrMQ6jVUel2LYeetAyhrFOEtCrqKk1EnTilh0Lq1txfcFJA18+ERIl1TOEHbuomxBLiXYU7tR09y9oyHxDdDOuvNRLnFQfXOvlafEVflzvNfSsYAP3ZINJqrZbbhZ91nrwGc7iD5kFgWY07iZbT+HKsXWsrzAEiMztFhhjqTzSjyis77Gh7m1397AoEWVw3Zs2pVtSdJu4z4y7EDHXPpienEMWRvmLcV/DEGDQtW4G44fg2AqU+OA1wGQCYPC3Uwh0WeLjXOqCW4jILBGEoLzRD8EU7jn0utL7/99+cgifh0B4S2brLF7L/V/+DoI69jvxB8IIyU6Zw8A9aleisIiF7bcRYtxDq5+Iwi1yAa0u8YrqD8SCGiku4CAclluiW7trnoX4LQ702c4MYa/JNdXaaoAHlpaY922ZpOuifEMyrR24AgbmcawN1QRJCbo7xj79t5clJqyYJPsGBpMyjllYWGyTOzd+BHOUtne22kbuDuCv6bHxsgmkl4aNNOp2IQYDE/BU6L3V0428anyPvA24hIGvVPEtEFpJpYABfG0EWjvwCw2CwzC0EkTnPE+ss5JaYrPVPkVRSxWqu6Kvc+ICVmPckEXVKly4hJitjzDOapseoyUziBFFdAdf/CJ0SQg38CEbS5BdnyTmOs54PbOoSRMKR4ytODBHHiSH9D5FYhGL27pSNDY1ZT89uPAlYmcGMBBx9cnLaCWu2OU0ZnFkMWSkbGbpr03dxB8Kh29rJZy+n0KHziNXzIHMSDl3EGj1HAEfMxieQWvDvf18itOaspoXPr/lp3R83hMDOBe97VJWtI87YznPfc/F35J2/tj2v/NT2//CfOGXt+5v/7OJPjJTA3a/+qY0T/rioOGciqhZHb7se2nn2uzb+8Zt874cKH0bMZQsM9Kfd538Cp+6Cyn8I4MEZASRxkTmKB2QPkiDBQgtwJKIpmWGBaBoZ1iTeJZAE8kQWpXf2OPetAGwSsXR/Jww8w9N+pOstNdHIgE6Gv6zznUUS4Mri3NJ60EqRvVaMK7GjGbyRflwBIJQmOY/IjsuBFSjr+QC+3BMFLJ5KYhi+gysjMmEdneh3UbgLXLrskV0P7o8j21edsszF7gekL58uFKapv8yvAFy6pa4K9NaAkEgfLk7fhRiSvIB0U4WAzvVfCZBIyRwkS+i6DAUcJGZrPZQTnkPi0nWz5BUX5iYtNzroKk478dGtB087QUih6mitdW6V9XbgX+6/9+7Lf77meC3C1H6usGYtFBlcpDrG+1dvWLw5S8mbvdbV3YkZALLJeuHqxY20YD3HuvEMNNn4yLC1de2ydCLLGCL4+pEa0IHnsFbnFhZtGm9CDrdSAbdSz8knAnuI+ldDOMIBhIQl/L6e9w0hsIxVkSiGpxJmdp+0CIPvswl0XIk8WRasBOUdp+KGxKUE+o2SD4oz4zZ9/WM3bDASG/v41y4C58knnSaMUgYoBbsrxG+OZAa9K8RSv0tPSmR6oNLouSBzCT256/kfuD4l3VubezcRQ70DEW6abCbp0WkQv5kqD1nEamXGCOnTAEY8k7UF4q6d0sPhlpvGImSqQejlY2v9AJRrQeSzzWMnqBTGMbBMY9RoAYmJbca6mWOxrTVBbDSVTcptVoikrULyfqnKGChuJ4tnKhWF2t8z7ol1Bcj5ZeRbibQrv9/XdRno3NAD8dKtaoZ/33lLX4SkixBDsSHXa6UfqDFXslHMD91Aitnnouvi1IATL+mMCyNIPLc+g0gH+vBdMo5m0J9bySRrRWROAA9lDHgqeJ4itLP1yBlLAivTxNPn7g5bgvRF2UW0jiIgAZwFj171L2MRTPq5q54QrEst4mqe9F32lSKSRgfuo0xaYv+cLX5x2W7dpNA+mJvEH1yFJS9AYG9cuWldu1EJ8QzMj0NwZzHi5Sqe7hmDy8aQcBIQnF30oQDxm0SaqqIOOZrU9OuBa1Rz3td93BACqzcSaQr4J0PK2P6EdF2MP0xGM1RUbSfQUSThXrqndmbb8+rPLE/eZ9t3n0KcIr8U0SmBWCXjVAEkduMXCyuElt6069nvO/JOKN0MHbL9+G7E5jsASdG6nv1jFiziBKITI5VK8shKPUVpFnHsg2/8U+fIs7cuuQVQyf6BWFey8Yu/pZtMLBxDyN7mZWRYSADFraEPsGR+3YSKmiugo4JlOZ5GBNz5jBUn3uZZw1ZNICWgV41RAaNQRcxKQdzS5DUjCUyyx04TbqXcfNWtoAk4cptcEnBBNmzwxq19usM+1AKBPocvHQ+P6T0EWgdWcVOC84FYOGyNZXQFhMmSn8WoqAdW4f56lx4ng5aaCObCSJ81Id2IQC4gUc0wl5ndh1gXjD7YRFo5twm7iL53nD7vcy2kLw7NuI7rojZGyHnWTsQ1w9xIBE+h3kxT9qcM8grWpm9+Gvyu3OQV/fTOqG/8E4HUsx7UwvmonR9JGhpjinpllXzcOpqwlxCRleRZ7rqj4CByskVa49Y7MWOjA0Nw7LR1d1JkooXU0QxUsMoiMSe6b6GUtLlS1SawRDdl8ANj3eZnn0P1LXy2PmtNar/rt/W0+2Kha28kq1yaWNza31beuLww5ZxRYiFd8QUWNZMBR02TqQ76d02ygAdK7nqmfw867xydYxI9uZordS4iG0gmEU6DlzvIP+gY93VRzlmIPyiYCBmfuI84aOhK0nflqjrwqj+crv7Ujksw4cgLF4xiePN7cN562yxEp7f3muu5HW1tIGqfDfdds9G+P+BT5N7NB0knJJ+ZLJVMBsoOdS9XqEwJAs8S/TNNzLOyjjTulpYscc+H7ciRY57N1Nt7k+t22PHjT2AxJTtGk0LTu15C9Nr38Hg4hgB5A3FQ81vFaltBQohITNakaBJWNCFF2KS78gCtsv/EHXxO/Tp/ttaN9fX70DetswOtfl9qQi6tKecHRkLuos/+e7Ammnu9grHcIzD+1FX6qLHINiD1LErixWprp3spFjqsw60+6rfwXRLDW//1P9rl//O/kOwwViH+N2N9ToHEMc6N0z8JamIYcc5VUkOCl8ojKSZa9wr/AcIYrojA48M06aSjkxNOCH/+7/4TJZVwcy09O5yS2u+r7cyg4woC0t5JYQuv0XtcD1/ZvEPq1NJr5fHwexR3SzyO+KdtQ+CKalroWiqou2ugYfOn8T0AA44tHfDfmbDwu36GpvrR2t+WTr/vGav9FuFeYaut5uj90eSHB/kk0Uu+4gj+PD11tTlZPv0BH3wql0RdbY+Slkm5MIF1XOWBurk1G2ah9FZ4zxWqJPrf9XFo4Xy09Dmblf+UfGdEaQGnR/sAJLJG0zEA/t66qJ9C3PteOkdX+oTe31kBoXzTmo+oAlcw4qGToIQLUWouuDc5yzdY+dN93+nafd+XrlrtN6ir/w9vrGEF7d6ahD2RRPXgFjANjSVYO407vPrelSvhODznvnd03TTclM1F8QAQeQVRKLGWygrTS9PjMxthn1+V9+X93qjFdmBUPLvES4ilIBAKkZKN1AZnz7hfON289r7d630wJvVV91Wr7fcyAoc/hhcKKEKKFf626rtcMU1ycn+5c6ue/5D+KDoecPWNd1BzBkaiU0mayEGtF7zQQLWMoad6yzK4STqTi9ZOeKQQchoRsUK4ZJwUQi24U3uAVusU7FIHIOA/Lvl9tXjoZyCbIzULuhJxfQmwfkexGRgcVhZiPxcChanbIqpdBqFS7epoBUTW2hF4EASccPclANn4DGzHlZoXETZJb6s3wbZemi9Je0w0Yw3EXUmM/HdtohyhoH4rvmpsE3nmvcABGbDkLZEorYUJJBGew2cl/Ovlz+d7MH0iKpI0IAAEmLB4Ntg/YFcuvmsvvP4TP189rm3qm+Zea7XaGqjf4RjC68LzHIHDg3oPmzouStRoa58BLYCaKPHi4jRuh6uko/3BRgmA794RsSzI0h67Q1YS1lghegT3SzmD4/8oPuJ2K6CbRiK8ABYFBgjJJTrJLRFIESA04pmrITxD66VneZRPbtYGLn9qv3vzTRseGLBW3B5nTx6xMwThq5B4eRIgAGjLSE3VDnzjzR1U/RBnF+AFr7WP9Nt1puapvITgOVL/FvoGcXeOOqKlujotgeuohBU6vYOkBMIlNR+QYJcqnGzyXcTTkVd4zAdu5xFWOdajAjHkP3RhSVJi3SpcU4FASuTOdkTswm/fsiNPPmvtO3dzr3t4VjuTitarxcHwmOAqhC39Fq6X3uOh8CRAEKURHfPuilqpl4225hkoM4dgGkglPUgGKHyilBNKIU4nSFbIYnmOJojcqTTbLPLVPGw3IhdTVGGETYZXGs4YEIAc+tPQKNZQDCItGFfks5ZzsowOKY6s9XKugz88PjdmA5cu2p+zy/wv3v7A7tydhEBE7NShffbTH3/PfvD6d3FHdUIkZBvAtzt6zarznVYCkSNSHcRlfNFB5DWP9ltyonCFQeXn5uzO2xds7MJFAofuBjYSHaIWW7q7ywqpglWzhEZmOwxbIshIEIlfKnE5GKsjDh8lLuexo8jd10HUVhxiC3qTQqgQGNaFtdNFFRBKNF01TVSiZ2ZyzFo6UaV0TnDL5b/CvaLWletWroHWW7Cla1gpv9oVDk6MV8dHATQeq4cvXSngcFeKdLhGW9MMiHIWCYavkmXkM40LqFXOhBaC2aPzLCgRSByIY+WMI6opehs7J7oRc8z8x6sEnYD5SuSHDDtSyZ2ULSIOwz2jlOWBrVsRwII9O/JGEQUTVUUtDdtb77xvv3n3A9uLZfTHL5+zO+N37dMvrtvfvfmOdeGvfPllQhETxBwT3yuAU+BNefK2lSEoZdxXagLQR7FJQrnz1ns2efk6bh4MhLvaloepEVdxZ3Wj0u7Ye8BSB/YC+qwJBzQdkoL0LuOYxGVoXSANISVVy7gDZc0X2vIMzV+Zc7Ew+PppHWMEg0RA3hTJFi1Em1XGRnigbshlei01Z6DgW1UPWLEO4syheC2GGzxHtgxylxf/7b8K73Hfu1R0da3R1jED4F6HiJ8wWIjGQsg85U146Zgd/oCBg496Beuo6+6dE6zvvSMZITX/CgBOAWKbgGtkX6PUy+kn2BHxrn30ySXb29Fq//wf/wN76bVXLY8o/l/++/+0v/zLv7LL13vt2ZeeQxrIOBCK2is2PI6fvUh02vzbxJ0PDAoyvQ+P3p+qu+SEtj6j+rOszN4bbWQag9V1JJ0VCHTvjNpPvqArVrT2+P2fBRbyfjxIphXOrbcRbY6i3WhbNgMByq1+uwcdC69Y7Rz9Fv4usTnW0mKZp5+yplOnYOwUlZuYtCnC+Ha0deBXztroOAXXEd1feP6cvffeeyDwLap+5Ky7h2CR0K4hSCLoJXr8hFXJg60Q7llkv1o38oSdeYTeQ0OdDymglV8eHWqPsqu+TS0weX4TPXZOxI317tzom3jIN3hP9TtcaFHkEIO+wUd+7a01lYh3TSdPWuaps+hviGogYgFukseXXKykbeyugukHrTw4Yln8zUeoz/R3v/i1/e6dC9az/4BlskS6SUynub81gfvkySesdGfUyhcuBLrhQzJWhx11VBbgerU1cd81dEZTLJ+330/SWAhMa7h2HadsuZLrrhgAJIJVj9Aip+hVUX0KfLmeIBN7HddjHXMRIKzsAVwUwWJM+QzmH10HK3CVMDpZJJxD1ROgagaguU3s3Gnpk6csqiwZQvbIZfKA+TJ9PH34oB07sM/a9pE80kUyARbsZ08ct08ufGh/9dd/Q/mXdvvx3/uRB5CE4rzgKkaoYPr4Mcvfvm2FQW2Ns02iNHDj8AOMaP4j0vVFSJn7KlFNDjauI9ZMysP00fsPjGBjMJIe/B2YEexUVVJJA9jiud0cAjukL80gE60gg/je3RZ/4rjFeFfqlQM8OluJ1KoSolyJYPEKYYOy/j1MTYDiyf8H91nixFGLoWNGtAgATLWALxb3Q/naDSve6rMqpVa2BciBgMQe5nfvHuZaRhOzG9eu2Ue/fx+x+a4NjYzY8O1bBGloUzUSySmVOjrST5jmrI2gJ7/97vv23IvP2779FA2AqLrRCulI2Vdxxpvk3kXucU/0qN8KyYgahZAkjh6y+BF21ugktkDWXQZZwXhXGhi2Eka58jChtBAy73v9uve1T6oifkfJMkueOmaxQ/stRoE85YaKQJZJKy33kUd8+SoeALLNMD5uVds4AjOxcTopxFRTDGvTd5639AtsrwLnrZB0IKqjEehYsnu3VU+fsWJ/v+XeetsKV6+zCKL0DEbj2UbKKuSNMflN50mDO3vapQfvP858IUmEbVFTe3useuasFa5ftxwW3yJGn7rqiwCC4snju3bhw9UmbkUs1ma9N27a1atXbXRqyi7dum3HyPaJT+TJlSDfmV0hJnCfTJDapgihK19cs08+ukjBeaKDlDAPd/ABQnglLcVwNUUJn3VfaL2kDB7tkgXSQ+blFy1xYD/AgG9baYwu8cCNiZtPHzpm5WfOWf7ji5b7gG19KFPzsCCxZ589gb/91VecEFLqBPiH6yJCK2AkyV7AduyklZ571vLv/t777/4lAdcmW+xfPHPqX6/7HjKAwJ0y3z1vpd5+N323/uQNt4pGlPKHOU37FUWJ9fWEbBCYVfJiYEkQIXnwADhLDaE0FJaUrSjJ0VUqHpCqEyDzuju08QuAa4tTWbD1Rz+0pufOoVMC1IpSwj+qkjcSgzymW/3HBZPcx8ZcFDarTE3DlWX02fwirKX3IjLRbAbxmb2D4JReFgcMvnT5sv0epByfnLFxktIP7NttL7/6onXs67Zbfb32t795z77oHfIxSOQekYjMvfbu6QaJ2R2R9fKYc4ZRJha7ODgExwuCGdbSr82eI+RtOn3aWt/4kSWQLESVFNrqOd0QmaA0D8QLpFaGUhJEj0FkSnBiIckW4MCmhiDOm3nheWv9k78PE8A5iLQmn773X0RU4jSwjhPKEpRvSh07wnECdG73gxMA3ybbOjkwaIcMX6WmU6GHSJ4zbFOpxH6KeTW/9KJzXYVVOmdiZj1cTQACUnisNLvuIc9ZfDdpft//Iyv/37+1fF+fRXawWzkRQ5VPKLNSRyR2zptttubzL1nT02cRldFz2RLD+ytElnipOdYLCSECp1KgReoQi/AaETggjETOeonTIiZVxGMhnYidnPuqQZwmmCAGITm4b6+dO/+iS0aTE6PWT4GAgaFR37ozStbTDIEcNyYK9qv3PiPfdY+9cO5JBqZ1AntlcEGtiSxVXNwkXK3pcnGuJOJ88/deQ7LYCYxAJEmCdw+P4tXhXpiF6ZocLCwCSfMxosqyz79AFUCqdb7zLrnf9SM2Kwcl5E0fPWKtP/yBS22aQhKEgRn6KomSuHeRdw+tlLTJmqkARTNuvurkrM3//oKmf1NtnQjM8wCiBNS73N3KFioYec7gyiCLp4rI42lqUE1ReKDMEVm1kCslxOnBcYv87qLZAfQ3RLg4AfzZQ4ctB/eoTM9a6rmnrYjOXBWS14msKjwxtZ8d5Z95JugviRmaeG1ObspscSDSDIPIRDyVJtgIG2tvjOip5L59WILP2MzYeAD8m1yIta6iiIvypMVNVd3j+XNP25Ur16xzZ5f9oz/9qZ3FaHVn5A7677hN3J212XKCLV2wXANcWXZNzMeb7ePb05Z963OKsu2wY/uoiKKHA31B4bV6DYRlRgLIPvusSzSa4wgcq4rU4/NPl8rUNospfptMI+mTFap+VEk5lCqReYa9tW71Wq73Fn0H3urdeKT63/LaaxgB8farD6xHlbTVCO45hx0i8ErsOUWOqK+Vw7WIFCGz2ZfPWw77RVkq6CamfJ0IjG6CQSH/6RcWG6E8ygFieMcW0F1e8QT+2Cid6SPvVZt1taKnkYVBWo1RCczszQtWUVYGnDshSgSSxDEYJal8wF0dcSqk0tXLZSCDWzSbttRRDFYtzQElB3iEuFHPO9XUsChLwCHCFYUblMhz1U/qf3IfG5XtIhHhTlC/6ZuGIemEEhu1l7Is+yWszO2M4fxzz1gPlufW7j3WOz5lH11k0zkKIKSw5jZTeysxlXPX0Rz6sNhboi1hn17ptQ8P77YedkVUmdsqtooK95NoXg8CKtE51UUJJVQSsiqC56ooHbnhEYo6aO7L1AaL4NeOEsFURcKISO+nQodFMMC1tVji0AErDLM96zZwYa1FGlUwAQNwLwtIqSoy8XSXj0ehr05sYQhl6oJXmzBy4QLU70p2ieMRSB8jVdS58MYxeJ0IzLxKNIYaEhlgc796D0ryCvmsKO0sCOW7oJBk2nzab9GpBQf+KiGFFQqCWVuz5c8dxcAF10bsE7WXqyl9+iTB+lQ2+MMluCCYUSedUlQvqj2MQcAyWSPqjxA63rKTfiPukJDvYqWASxyP8yNUaIyqkgSVItxFBuWNI/4Xh7HcSmL6JhvzLndWCYtyFFFSKok2PKsAFCcO77MPQch//y//jTXhG97JlqXfe+aUlaNJJM2ch+FJHWBQXvFSY52ambFrt4fQnQ/bni5Vx0AkB8EruGvq0qCCMQxylCABdlCx3CoeuFokgIlIqnSSdvuLUBRQC6C8bm3eHqumIKCEpCJ2q2KGkYCwGS62kfFKTI7DfCqaVmDfDVcUYCgCGwU2SY+3Q9gnVEaoHd0dwyPSTpFCgcTOYh9C0qPJY+NuJQ12g239COwP4oEAQRFRLYLYq7haj6cGAYrHe6yyH+5MMa/ULYq2fXwV6pOywovouFlq6CJiePV6p/TMO3vJFH/5aysTgF8vXTKYK6AEfU86ZQmpAn6MfkJgIxSzCkHKUzVjcajXEiTRl+AE2QPHHIHJxLfKAon4UFWP7pG/uA4iP711HV0F8mRkIsvcOWYlJk8w3AzDCAUVbZjNxHu6dlh3R7PdGhzzRHbX6amrJTApQozyIIFEvDtEcE3OzNmeXe2sIRtxYcmuQhzqYt0VIxDyUgkjouJ5SGV6tip3qshdGfhQJdM4qZFJVepAAlIRwwrfff8pQkWrFJXzMp51mP8AZu791RxF5A2g71J9NbtV9oeNg7BRSjZJDYiRwK/ftWthdRh4kZpCCqmkD+3+4L5iCLDX/Lp363V92iACLz0DqijupXDMCnmPVYDCi7QjNVsLmtXdL6xK/eMKQEKtVAd0Ua6SgES6HAMq3O5zETQqv/AmKNG6Rs3JQghRTu0eXyVvtkRJUYUZNlFozycf45Yo5SJlY7KoCvJJilDloar54T6StKmcKKBbIkTrff66z6fDMpqUCXeU6y62E66JlCAbIozYE8ZVysddF8yrKlAUqP6ojcIVCC+gcWAC8IolJTSkCAAJQjDFAcsUX6tARKmqtzQ56+7h+i7QeOiXV73kSsGFKlUWIZYqD6wa2SrHVJqZtjKlWqsQLEkfcTwBEYiQJLUy6+Xq1/qevGVneyANxMWZl8ZAGZ0YEgOiAv/pG7DhdgU5g8EV7Rvt6o9DH2Ok/5ttm0JgDaA4gSulk1zW2WmL55QbSefRBZLvUNMIwJp58bg1/+ZjWAOixaE9MDg2UVY0CmJ4dQHReWIMiur8ZbNjWdf14kYyBglA4lRi0F7GZQCmwHvLEXzBEJT0gSOWLu6joBncLb9ADWuMQ7dvIkWw04MWBNGtxJYoLl+v6+kbO1lUv4q7SD5otnBw62ZpgQ212FlvhHK0swTIqGBd39ikXRsg4EEGH/nheYmjCdBUHkaqikTTSXypMwQZFMV9h0ZAYDgwiFQXDswClHh+maAYJyCshdxE6Z5DrgNLpF6kHJFcd8ryUp9Skob4LCQQApdQA6RWbFcr4naL05cSL9lUVIFTZZTzwHQSPMjfHXdCL+lCfu2IfOwwL2U4lYGvEte7KrmJAWwKgSF/TCDbRgAYqh5Ynicl7pPrFrvSa4XDe2zqLP5eUU5EtPgg4rZ4AC6BIn7WCNS2NMGm0YpM4XpVSah3qwA8xVEICH5dAYVU8CIlTkWAWg6fghOpv3AvKFGefX5nblzxBG3FI6tqQ3lmCgv6lCNIXdiWpog+l/sHrYqYHNdWlkgG07iKJqYQzVAD0lhCh3HV/ZJ12JmhdA+Ska8TiCmJR1zYc4nRedvxWzYjhsoIp3tSExUgrNM68JgSqZdluGolknEkle9UhFSxBEy8G64EV7OD/S6xNe8/RPYexdsxGMlMUcIDILF7W5okmZFRSyLpqKaZdtMQo0334NUg5rzKcRV3z4+yNQy2nkR7l82PjgQ2DHk5IK5FfNkgz6ZAZ1MIHMGSpm0vKyCiysHOwoXnTlIiFCpZyCYMk4ulky1WeRqxdB5jBAC2QJEvFQfPUP2gioElQg1dWRjr3ZhfRH8mHsCNHN7vHFcimtrCcL/rZC2HjjqiBsh7FckBFYHJl+iqUqJ5qhNWcYEFBiK/tC5/ImQbla5cpxRtiioSO1zUl8jmkhnjEsW/OTxpt/kck9WTwQp5RWgFaKo9fZRwv3/4+nN2iv2YFBUXZWdEIbrfow6j8EQKVIH80BChq0RZSTenDngCdSYqfZ3+zo9jBIIDZ3fvAWnjqAnYJpCYMjswEOEiKyM1oNQzvjp0eMUjPMQWApInMCZO/HlxjN0nOneBuCAkejzyNHCNSI3NhARwdHsCUYh2y4HEkogW7yDxsHn4Zru+cQRmsaPd+IMvX4OSDFka53SCrU8WFqnxfGKPdeB/rFDeNU6nSwn2vB3spawoFjhiXJt3dSFmTJDcjkURK67iRLclNhqArtwZs8I1xOKnnrSICA+J8xIjZ/uJ20bsSWComLp+VVhhTSI6iKBavHw/SE5cdAS9VOJc3ZoexTOjA1BzAGMBK347m0t345cuXLgCh0IiQjrIIVFIVNPuAd4kXYDYMYxeZ04csD/72fftbE+rRW7etsjtYYgZBAC4q1vTOJACildvmlFwINbWCocatoWJUQ92kN6ek3rFeU2IzhEIZwlRP03Iq0TW0hesCZFwDLZuROe+uVH/iboqEHxkeDLiJJfM0d9ZFcig72ouHgMbOlUwoyCOOLaVHHp+6dPPLYInZ7MYvLFQSjokUSxG6dPEkYOIXhgfCJ7P9hwklY14XRYj34ruAoLOjY/ZzMiAzWHYiuEHbt3Tg+g5Y7nPLlmUPWbajp2y3CVcSKxD3UmpZhZkqM7MWkluib3ouyB1AQuzjFsCoNmhAddfYvhKZUBJZqiHPTZmZRLoo3eovlFP5KW73uh3BNE4qkgwdOAKxciPU//qwKGDNrNQAK6nbF76udxMMAQVk9d+tyePHrCf//R1+7M3ztuhZnThG7dJYEc8xRZRV+RdHgfAzU4G2qsqsnOnh7TmpydtjqoV2n4lrhgCxpqD6xYZTwZXTIwAoMINkP7SDQguFTG0htvVhJzkUhe011bPXgyd1IO+M2yLJJEUkSzl8sojleoln30KBqcglPylKxa9TP+RMjbbIn0//5lQZ4MNoRiOGunaSccSlqeQWqWH3QIx8iwi/sg9E2NQAv4YHdcrjxW1fLOPLUdKliV8sefpF238L/7CylduBSl7grg6NxiuVVqarHTqCOLcCe+nXEfaBQJ27OKb4m9FZKS3RK/esriQ14lOnTtb+zieL/WjyGZcpf3ow4SoFojDvTU67fHPo+QGS1TdRWDNkZ5OO7yrldBXVB6szYmBcUsg9omAbSsSaAwgYbEbLnv2lCV7SBqhT0UFP6CeSRxViZu44p/hwJJ64tf6LCrj4XYib7gOSwbY/H58vc+cIThl95I1Hd0e+4mqWSpiLg5OFAhUqlzvtST9j2yRtX+TCMwoQDjsbwAS/lMMUQW2UiwRSK/UNAG9AEiihHyMUTaKyuB+iXS12xRVG3fsY9vII8epENhv8x/9wQxuYBhj3HwdTlC93mXkgUsVqZdU2U/fO0WU5A9jiABSSX5qIsqSo5MWg8ttC8dabS5ERNR3iGRpBxU3dlI8vINtXAAYj8HVYdaoDDGtMLfxiWlLgNhRLNeOAQ8DEmhckhSoiV3cTSANCRkSScP+q+8lJLn4IHHdbDAWRRWou7SmPj6o0f8iLtNST5dFqHIZayboR7DP/JbZI6mMoTAxMGYJYqA91HiLFPfNI/DKQTEQIXIF3asMUImCRiXuEQIYRWfQxEewfi7ubbeWV16wroMnbOLP/7ctfnKZQ4x2OwHKkSHsPzq8+q/+oqvFlFAubqUObmcfV853+H0JkdXfKv2uKKhevnU6q35H0XEjiHGBzviQjsGFLxEjQlOw3FYhqCJOUbiV91+RKpr7h3H+tQ5aA/6UFSDELoUV5l8eFvU9lkOa0PEttjNs3Iilvq5sTLYmV1k7MfQqvbx5x+n5kr4oy21K/rAT2nDsfVv48DO43dZ2ZWXX1vTdAQN5AkARl/X+a0xqIi7qv3/3E4Pft+Nv2KflZ9MfdUl91BIwtzEIpn/3A/px6ZylNVi+9GH6sDSGKGVZo1SKDPzrS/OvfmoMD1PzrtX0T32jjzFCKjGkLBFLwX3w+31d12VbMJwtwhqoPMEOshQuTzIdVNUH+fMUcyx/XRDv6t5guBqDvMp+wojVoah03wDr/YWJV4y3MkmEBfJvSwdTMQJP42MsTp9wJVVkdFFAxBYswLqHSYpdBOquzB3vgPzUWMslJmuu5X6JYmwTp63ga9RY1Bidv8vC7pYtxDv/SdE2/ObSD2PbljGpZ3RL8xz0FxjB6u/9dC7MMVxmVSQhXwQdWxqXLt2WBrxEtSUOEuZyWwrYUIyA1idOKGWJ7XO8MAFYrBDLsrwc9D/W2m4VPvuq1N5j+WZr+7AlCCygyb74qqVPPRlkhujZyuUEsBa/+NyaX32dkigYrrDqRtBtSridFi5eIIySgAQGvZUlRtY27PvPUhRNjKydzLnnSWhQtQuQAr/kwofvW3J3D5X794O0pITt6gY5SMm7dtlyVz5zJK8nwCugJEHwRtPZZ0FiUi9BUL0XblFqZvIuVtxOJBmypI6ccENK7vNPKJQAJwAxpUNWsOTGO9mJgDGVCDAQIKWOU18L62hxkHpYfb1BYESdCZOITxwLc+roSSv0E3/OfBex/quPqYNHLd7FvDeTkQQTKGORzt/4grJMpJ1uU/M8YGw36XMvuIjsRBEcUGLC4scfWOrUGRRi9nnGXVrE7yuYmn/nLct+5zWCP4g7IM0weeAwazaBB+YTMqoouLDBOa8hH5uZDXFgAjf6+zw4Qshb6L0uPuadLQP8RfxjinWtTOG7w5GtelmqLaV44oej0VsASca2Mi+pAc6ZkB4SBw6RNnbIC8lFWIwErrCAA9a/55JWvGACyKcCBFp3RYYVx7D6g6SCBBEfcVRVg4hDdLy/yoCB0yZ2dpMB9hQ5uOyTDMLrXmUIq5AkjgXVOXk9h8U0R+lb5unngQWyjxSZRVx2GiQQIvv+vIePWeY7r1Ix5SWL79kTcL6NQvyWjA24xs5QGmajcsIlRSDzN68FMdv0qwJiRlsIYHKbAwZE4ClOhVBxtuobfQAABs1JREFU6+TRUxQQPAUzI2MJQ6mnTiqEa4NtSziwx5CRqqagc9UsjuGsZlMfKDxJ/ZgXq4QcxqgLFMEalz512ubefdu53Ab7vOWXqQqFamLJOuhqgIdPUuhNgRsQmCKhfCWygNJPnnWEERdwF8eW9+Trb1jBIKUwPUe+eaLCiKctQxRT5AML4L0BKFGs0FHWQcjsZWoYm0S+CGKcpAnPbya5P0b0UPJwO8gPRyaMsZ4Shfoq6U3wovlMnXwSAD/pQ5BaIAIkQpn79COXepSJJUnJDXEbh3m//1b8CfoI7NCnCERIeFgB1qsdEEapA1K/5NkYVMIOEWeHj1v+4gdIUBSQgAAro604hEtpE5O+NRxYkyl/GIBT0v62fI3vP+jdAiUsgoiWgLrHcCGJSyTgCs7hNig2bMXkh/fwxH7E4uTBIywCNYww/6sIgThR8thJ14GFCAlyP4UIFThECQor4lTXxqQKGOIihFB8ifkxCrm7JIC04ByYeG2Np9B7w8VMcWMBljhvBW4tQEsoLJF1iCNGx5Szikg399tfUh4I4ktVD1hyXYclCaAEF5t5k/JK16/Y/Pu/RQy94CpKiThz9V1SRNNz37H0E2dIQcQ9JuTYZmOcpEtlqFUI2ChjE4kzd1oLT9iHUJbHxwlooobXUdQZOLAYgGLnNV6J0FGOiRBFm7VfhDBmY21rOLCQFKBPQz0r6FxVBiQ/GFEcLtJJvxL1jEOZ5BvWQKJtovroxNu8EJo2SWNurFLCvgCeJr+2FgR+B5Cjo0BNFTKahNNFZeyi3xufdn/E+v4sETtPJ8wOQmMU0I/vXRwW3UviWApgUctfxSUnPyTALjFbCNDMcSF3cWjQZn/zC0sR5y2OHe/sgrjuwaBCRJfKu4AwPiHr693Gz9bjmNums+dcnyfQHFG+yyULzw+GS0Wo2pG/+rkXGhTnUmZPfSf/y8PzapMHD6OXI2mim4u4xoBpEZfAmIsajFpTuHEN4nOeSioLJDR0IEoTsCKbBBFbyQOHXJISARMMbqRtiR9Ya546jLEBA5V0GJYkGAjIIOAXZy4OD1jTGUQHRKXFS58xYIxcunCbm8MrxCcJZ4qCwMuisSMHUUuyGgL4+r2ilMkdZC4pDUz6Z72JD9xRiCpOGZTk1eTBXeljBSAiYsaBR8YTHddalDCiuKFQflUMKyqJJAML4UGISUrOENdg21HEalne3RpdzzUBBLweNDp5EaOVJCBxs2L/bdchU0hyJQi+4EjBKUmQpoTBzvV9xrstDXiIYT+QJKniCm7EYr5VIL8wcNvnU1KbVDDBuuw9ivuOKh0Se0MKxNWcS9LTOMvA1UbbliCwHq60uyCCqoaUoBTI3eJitDiWG6xAbg8w2GiXt/46pyNLbhiX+/2PiItYs14a4NJndDZHHv22DU3ERFxKiLvcJPYu95PffSwc1W9y74XjcTKvcYSXc254m/D65ZvW8YO6IfiBaDpRV/8BcPVblnI32i0dc5eMPuu1jc3XQf1UC2EBQArdi9LttQ6SLoI5hgkIdoQPjMnLeAgz4Ny+TsGd1v13i0Ro+iC/qF6rtHB83tlVjm/3Tw7XADoD+OquLA/iAed89dVbdsS5PonjD2yi7l9q4QCWDvhX/qz4+UuX1eMHdSPssxajBjnvgxmO3fe9Hn37imcE67DaPAcXeEncEB98jum7XKs0eQ2og7QlbXuhcUuG0LhJYwYe3xloIPDju/aNkT8CM9BA4EdgERtDeHxnoIHAj+/aN0b+CMxAA4EfgUVsDOHxnYEGAj++a98Y+SMwAw0EfgQWsTGEx3cGGgj8+K59Y+SPwAw0EPgRWMTGEB7fGWgg8OO79o2RPwIz0EDgR2ARG0N4fGfga4JqH9+JedDIFWQfIy7Xw6cfdGLj2JpmQDkBJRIBPMd2TVc0TgpnoIHA4Uys+T1ieTKCeknkvs2WpEVPZXoYMgLWPICH6kQymm0PRfqOZ5ss4xQxTI96qLr50HamgcDrWhp2QQBh36Yw+n+4NWyjqrW8rusbJ682A2kQ958d7LI/YXeGZlJNPb92tRMbv31pBhoI/KUp+eofhKzamnOGfM5pVdPkhwYCf/V8reWIBJgFyhNNUWaY+v9eV6rBg9cyc8E5DQRe+1y5jpYiV/XVHdQxIsH/81m2/FCS9jru0Tj13gwIUVXU5EBTyv6YLWFaE2xFwiw32tpnYMsqcqz9kd/+M6MyYCm5/Ns/lIdmBGXsCqo/1mjrm4EGB17ffPnZEqP1arTGDGz3DDT8wNu9Ao3nN2ZgEzPQQOBNTF7j0sYMbPcMNBB4u1eg8fzGDGxiBv4/+LdwAB9Z3j4AAAAASUVORK5CYII=;" vertex="1" parent="1">
          <mxGeometry x="230" y="57" width="143.07" height="310" as="geometry" />
        </mxCell>
        <mxCell id="8OXMd4z44nyRTxKYUgdR-60" style="edgeStyle=orthogonalEdgeStyle;rounded=0;orthogonalLoop=1;jettySize=auto;html=1;exitX=1;exitY=0.5;exitDx=0;exitDy=0;entryX=0;entryY=0.5;entryDx=0;entryDy=0;" edge="1" parent="1" source="8OXMd4z44nyRTxKYUgdR-58" target="8OXMd4z44nyRTxKYUgdR-21">
          <mxGeometry relative="1" as="geometry" />
        </mxCell>
        <mxCell id="8OXMd4z44nyRTxKYUgdR-58" value="" style="rounded=1;whiteSpace=wrap;html=1;shadow=0;fillColor=none;strokeColor=#CC0000;strokeWidth=2;" vertex="1" parent="1">
          <mxGeometry x="230" y="190" width="140" height="40" as="geometry" />
        </mxCell>
      </root>
    </mxGraphModel>
  </diagram>
</mxfile>
